<svg xmlns="http://www.w3.org/2000/svg" viewBox="0 0 304 406.4"><defs><style>.cls-1{fill:#00c8aa;}</style></defs><g id="Icons"><path class="cls-1" d="M114.46,151.61a12.41,12.41,0,0,0-12.21,11.47A12.12,12.12,0,0,0,112.86,176c4.37.48,8.84.09,13.88.09,0-4.65.24-8.92-.06-13.15A12.21,12.21,0,0,0,114.46,151.61Z"/><path class="cls-1" d="M190.69,151.65a11.89,11.89,0,0,0-13.08,10.29c-.57,4.51-.11,9.16-.11,14.21,4.95,0,9.11.3,13.22-.06a12.29,12.29,0,0,0,11.17-12.49A12.58,12.58,0,0,0,190.69,151.65Z"/><path class="cls-1" d="M304,152A152,152,0,1,0,107.77,297.45v12.42a19.1,19.1,0,0,0,19.1,19.1h49.8a19.1,19.1,0,0,0,19.1-19.1V297.58A152,152,0,0,0,304,152Zm-84.21,19.08c-3.17,13.68-15.17,23.38-29.65,23.87-4.1.13-8.21,0-12.53,0V301.84h0v1.81a9.64,9.64,0,0,1-9.64,9.64h0a9.64,9.64,0,0,1-9.64-9.64V293.47h-.08v-98H145.84v98h0v9.85a9.86,9.86,0,0,1-9,9.95,9.65,9.65,0,0,1-10.29-9.62V293.47h0V195c-4.42,0-8.55.14-12.66,0C97,194.3,83.73,181,83.4,164.54A31.25,31.25,0,0,1,112.06,133c16.19-1.5,30.59,10.05,32.93,26.75.75,5.35.65,10.82.93,16.14h12.62c0-4.18-.12-8,0-11.8.86-24.15,25.23-38.68,45.94-27.41A31.19,31.19,0,0,1,219.79,171.08Z"/><rect class="cls-1" x="107.77" y="341.13" width="87.97" height="25.28" rx="12.64"/><rect class="cls-1" x="107.77" y="381.13" width="87.97" height="25.28" rx="12.64"/></g></svg>