<?xml version="1.0" encoding="UTF-8"?><svg id="logo" xmlns="http://www.w3.org/2000/svg" viewBox="0 0 2104.85 839.66"><defs><style>.cls-1{fill:#00c7a9;}</style></defs><path id="symbol" class="cls-1" d="m361.76,237.87c.09,0,.09.09.09.09v96.86h114.9v-206.34h-114.9v96.86s0,.08-.11.08c-.07,0-.07-.08-.07-.08-3.27-57.04-50.56-102.29-108.42-102.29s-108.6,48.62-108.6,108.6,48.62,108.6,108.6,108.6,105.15-45.25,108.42-102.29c0,0,0-.09.09-.09Z"/><path id="a_meemoo_initiative" d="m193.19,701h-23.66l-4.68,14.56h-13.05l22.23-64.31h14.88l22.23,64.31h-13.28l-4.69-14.56Zm-3.72-11.44l-8.13-25.17-8.08,25.17h16.21Zm112.08,26h-12.49v-47.31l-13.41,36.98h-12.77l-13.41-36.79v47.13h-12.54v-64.31h17.73l14.61,39.09,14.61-39.09h17.68v64.31Zm53.93-11.44v11.44h-42.67v-64.31h42.54v11.44h-29.95v14.7h28.39v11.44h-28.39v15.3h30.09Zm52.58,0v11.44h-42.67v-64.31h42.54v11.44h-29.95v14.7h28.39v11.44h-28.39v15.3h30.09Zm74.54,11.44h-12.49v-47.31l-13.41,36.98h-12.77l-13.41-36.79v47.13h-12.54v-64.31h17.73l14.61,39.09,14.61-39.09h17.68v64.31Zm67.98-32.15c0,19.98-12.03,33.21-29.81,33.21s-29.81-13.23-29.81-33.21,12.03-33.21,29.81-33.21,29.81,13.23,29.81,33.21Zm-46.58,0c0,13.18,6.89,21.04,16.77,21.04s16.77-7.85,16.77-21.04-6.89-21.04-16.77-21.04-16.77,7.85-16.77,21.04Zm111.6,0c0,19.98-12.03,33.21-29.81,33.21s-29.81-13.23-29.81-33.21,12.03-33.21,29.81-33.21,29.81,13.23,29.81,33.21Zm-46.58,0c0,13.18,6.89,21.04,16.77,21.04s16.77-7.85,16.77-21.04-6.89-21.04-16.77-21.04-16.77,7.85-16.77,21.04Zm87.73,32.15h-12.59v-64.31h12.59v64.31Zm63.27,0h-12.03l-27.74-41.8v41.8h-12.49v-64.31h12.03l27.79,41.89v-41.89h12.45v64.31Zm23.74,0h-12.59v-64.31h12.59v64.31Zm53.01-52.64h-17.59v52.64h-12.59v-52.64h-17.59v-11.67h47.77v11.67Zm17.99,52.64h-12.59v-64.31h12.59v64.31Zm46.37-14.56h-23.66l-4.69,14.56h-13.05l22.23-64.31h14.88l22.23,64.31h-13.28l-4.69-14.56Zm-3.72-11.44l-8.13-25.17-8.08,25.17h16.21Zm62.81-26.64h-17.59v52.64h-12.59v-52.64h-17.59v-11.67h47.77v11.67Zm18,52.64h-12.59v-64.31h12.59v64.31Zm63.51-64.31l-21.73,64.31h-15.07l-21.73-64.31h13.32l16.03,50.62,16.12-50.62h13.05Zm47.86,52.87v11.44h-42.67v-64.31h42.54v11.44h-29.95v14.7h28.39v11.44h-28.39v15.3h30.09Z"/><path id="thearchives.be" d="m248.82,482.25h-48.44v48.85c0,16.7,8.83,22.77,20.01,22.77,8.56,0,17.8-4.28,25.12-8.69l13.25,28.15c-11.73,8-25.25,14.08-44.3,14.08-33.12,0-50.09-18.77-50.09-53.41v-51.75h-25.81v-32.02h25.81v-39.74h36.02v39.74h48.44v32.02Zm59.42-17.66c9.52-13.25,23.74-17.94,38.36-17.94,30.36,0,52.03,21.11,52.03,52.16v85.15h-36.02v-73.55c0-19.32-9.66-29.95-26.08-29.95-15.46,0-28.29,10.07-28.29,30.22v73.28h-36.02v-198.86h36.02v79.49Zm239.29,52.3c0,4.14-.28,9.11-.69,12.14h-94.81c3.86,19.32,17.39,27.74,34.36,27.74,11.59,0,24.15-4.69,33.81-12.83l21.11,23.18c-15.18,13.94-34.5,20.29-56.99,20.29-40.99,0-69.41-27.88-69.41-69.97s27.6-70.79,67.62-70.79,64.86,28.57,65,70.24Zm-95.36-12.42h59.2c-3.31-17.11-13.66-26.77-29.12-26.77-16.97,0-26.91,10.21-30.08,26.77Zm252.54,79.49h-35.19v-14.77c-8.69,10.76-21.67,18.22-40.02,18.22-36.85,0-64.72-30.22-64.72-70.38s27.88-70.38,64.72-70.38c18.35,0,31.19,7.45,40.02,18.35v-14.77h35.19v133.72Zm-103.09-66.93c0,20.42,13.39,36.85,34.5,36.85s34.5-15.73,34.5-36.85-13.94-36.85-34.5-36.85-34.5,16.42-34.5,36.85Zm223.23-67.48l-5.38,35.74c-5.93-2.62-14.49-4.28-21.8-4.28-16.7,0-28.15,10.21-28.15,30.08v72.86h-36.02v-133.72h34.91v14.63c8.42-12.56,21.25-18.22,37.67-18.22,7.73,0,13.8,1.1,18.77,2.9Zm127.51,22.36l-25.94,21.67c-8.14-8.69-16.84-13.39-28.57-13.39-18.63,0-33.53,14.63-33.53,36.85s14.77,36.85,33.4,36.85c11.59,0,21.53-5.24,29.12-13.52l25.67,21.94c-12.56,16.15-31.33,25.12-53.68,25.12-42.64,0-71.21-29.81-71.21-70.38s28.57-70.38,71.21-70.38c22.36,0,41.26,9.11,53.54,25.25Zm51.5-7.31c9.52-13.25,23.74-17.94,38.36-17.94,30.36,0,52.03,21.11,52.03,52.16v85.15h-36.02v-73.55c0-19.32-9.66-29.95-26.08-29.95-15.46,0-28.29,10.07-28.29,30.22v73.28h-36.02v-198.86h36.02v79.49Zm158.83-58.1c0,12.97-10.07,22.91-23.05,22.91s-22.91-9.94-22.91-22.91,9.94-23.18,22.91-23.18,23.05,10.21,23.05,23.18Zm-4.83,177.47h-36.02v-133.72h36.02v133.72Zm106.59,0h-41.54l-52.85-133.72h39.19l34.64,95.77,34.91-95.77h37.95l-52.3,133.72Zm183.98-67.07c0,4.14-.28,9.11-.69,12.14h-94.81c3.86,19.32,17.39,27.74,34.36,27.74,11.59,0,24.15-4.69,33.81-12.83l21.11,23.18c-15.18,13.94-34.5,20.29-56.99,20.29-40.99,0-69.41-27.88-69.41-69.97s27.6-70.79,67.62-70.79,64.86,28.57,65,70.24Zm-95.36-12.42h59.2c-3.31-17.11-13.66-26.77-29.12-26.77-16.97,0-26.91,10.21-30.08,26.77Zm211.06-16.97c-10.63-5.24-27.6-10.76-42.64-10.9-13.66,0-20.56,4.83-20.56,12.14,0,7.73,9.66,9.66,21.8,11.45l11.87,1.79c28.98,4.42,45.13,17.39,45.13,40.02,0,27.6-22.63,45.4-61.41,45.4-18.22,0-42.09-3.45-59.48-15.73l14.21-27.32c11.45,7.59,25.39,13.11,45.54,13.11,16.7,0,24.7-4.69,24.7-12.56,0-6.49-6.76-10.07-22.22-12.28l-10.9-1.52c-30.91-4.28-46.23-17.8-46.23-40.57,0-27.46,21.25-43.75,56.44-43.75,21.39,0,38.09,4,55.89,12.7l-12.14,28.01Zm86.14,73c0,14.49-12.42,26.91-26.63,26.91s-26.91-12.42-26.91-26.91,12.56-26.63,26.91-26.63,26.63,12.28,26.63,26.63Zm164.08-43.47c0,40.16-27.88,70.38-64.72,70.38-18.49,0-31.33-7.45-40.02-18.22v14.77h-35.19v-198.72h35.88v78.94c8.69-10.49,21.25-17.53,39.19-17.53,36.98,0,64.86,30.22,64.86,70.38Zm-105.85,0c0,21.11,13.94,36.85,34.36,36.85s34.5-16.42,34.5-36.85-13.25-36.85-34.5-36.85-34.36,15.73-34.36,36.85Zm251.71-.14c0,4.14-.28,9.11-.69,12.14h-94.81c3.86,19.32,17.39,27.74,34.36,27.74,11.59,0,24.15-4.69,33.81-12.83l21.11,23.18c-15.18,13.94-34.5,20.29-56.99,20.29-40.99,0-69.41-27.88-69.41-69.97s27.6-70.79,67.62-70.79,64.86,28.57,65,70.24Zm-95.36-12.42h59.2c-3.31-17.11-13.66-26.77-29.12-26.77-16.97,0-26.91,10.21-30.08,26.77Z"/></svg>