<?xml version="1.0" encoding="utf-8"?>
<svg version="1.1" xmlns="http://www.w3.org/2000/svg" x="0px"
	 y="0px"
	 width="203px" height="85px" viewBox="0 0 203 85" style="enable-background:new 0 0 203 85;" xml:space="preserve">
<style type="text/css">
	.st0{fill:#F2F2F2;}
	.st1{fill:#FFED00;}
	.st2{fill:#373636;}
</style>
	<g>
		<polygon class="st0" points="46.3,0 75.2,85 203,85 203,0 			"/>
		<polygon class="st1" points="0,0 0,85 76.2,85 47.3,0 			"/>

		<path class="st2" d="M38.2,63.9c-0.1-0.1,0.3-2.3,0.7-3.3c0.7-1.8,2.1-3.5,4.6-3.7c2.7-0.2,4.4,0.6,5.8,0.6l0-14.5
			c-2.1-1.6-3,0-4.3-0.1c-1.1-0.1-2.1-1.9-3-1.4c-1.6,0.8,0.7,3.7,1.6,4.3c0.9,0.5,2,1,2.3,1.1c1.3,0.6,1.8,1.5,2,3
			c0,0.3,0,1.1-0.1,1.4c-0.6,2.5-5,4.8-7.6,3.1c-1.2-0.8-2.3-1.9-2.7-3.8c-0.7-3.3-3.1-5.8-3.9-9c-0.5-2-0.8-4.1-1.3-6
			c-0.5-2.1-1.1-4.1-1.5-6c-0.4-1.7-1.2-4.3-1.8-5.9c-2.4-6.3-3.5-5.9-3.5-5.9s0.9,1.8,4.1,17.3c0.1,0.6,1.3,7.5,2.2,9.7
			c0.3,0.8,0.8,2.5,1.2,3.3c1,2.2,3.7,5.6,3.9,8.6c0.1,1.8,0.3,3.2,0.3,4.5c0,0.4,0.2,2,0.5,2.7c0.7,1.9,6,7.8,11.6,7.8v-4.5
			C43.7,67.4,38.4,64.2,38.2,63.9L38.2,63.9z M42,29.8c0.7-2.1,1.1-10-9.6-7.6c1.1,0.1,1.9,3.7,4.5,4.5c1.9,0.6,4,0.3,4.4,1.4
			C40.5,28.5,41.2,30.1,42,29.8L42,29.8z M36,23.8c0.1-0.3,0.2,0,0.5-0.2c0.3-0.3,0.6-0.8,1.1-0.9c0.4-0.1,0.8-0.1,1.2,0.1
			c0.2,0.1,0.1,0.6-0.1,0.8c-0.4,0.3-1.4-0.2-1.4,0.6c0,1.3,1.7,0,2.6,0C40.4,27.2,35.2,26.4,36,23.8L36,23.8z M23.9,34.6
			c2.2-3.2,1.4-6.6,1-8.1c-0.2,3.4-5.5,8-7.1,11c-0.8,1.5-1.8,4-2,5.4c-0.7,4.1,0.2,6.6,1.2,8.9c1.7,4.2-0.2,5.7,1.1,4.9
			c1.7-1.4,1.4-4.6,1.3-6.6c-0.1-1.6-0.2-3.5,0-5.4C19.8,41.2,22,37.3,23.9,34.6L23.9,34.6z M23.9,20.1c-0.6-1.3-1.8-1.2-1.8-1.2
			s1.6,1.4-6.4,8.1c-8.1,6.7-1.1,10.6-1.1,10.6s-2-3.9,4.5-9.3C25.7,22.9,24.1,20.6,23.9,20.1L23.9,20.1z M20.9,12.4
			c-0.2,1.2-2,2.4-2,2.4c-1,0.6-4.8,2.4-5.1,6.6c-0.1,0.9,0,1.8,0.3,2.9c1-2,2.4-3.5,4.5-4.8C22.7,16.8,20.9,12.4,20.9,12.4
			L20.9,12.4z M24.1,45.7c-6.2,18.1,5.7,19.8,9,24.1c0,0,1.3-1.8-4.1-7.7c-2-2.2-3.7-6.9-2.2-13.7c2.2-9.8-0.9-12.3-0.9-12.3
			S26.5,38.8,24.1,45.7L24.1,45.7z"/>
		<path class="st2" d="M84.1,59.5L84.1,59.5c0.3,0.1,0.6,0.2,1,0.3c0.4,0.1,0.8,0.1,1.2,0.1c0.6,0,1.1-0.1,1.6-0.4
				c0.4-0.3,0.7-0.7,0.7-1.4c0-0.7-0.3-1.1-0.9-1.5c-0.4-0.3-0.9-0.5-1.4-0.8c-0.5-0.3-1-0.5-1.3-0.8c-0.5-0.4-0.8-1.1-0.8-2
				c0-1.1,0.4-1.8,0.9-2.2c0.6-0.4,1.3-0.6,2.1-0.6c0.6,0,1.2,0.1,1.7,0.3v1l0,0c-0.4-0.1-1.1-0.2-1.7-0.2c-0.5,0-1,0.1-1.4,0.3
				c-0.4,0.2-0.6,0.6-0.6,1.3c0,0.5,0.2,0.8,0.4,1.1c0.3,0.2,0.7,0.5,1.2,0.8c0.5,0.3,1.1,0.6,1.6,0.9c0.4,0.2,0.7,0.5,0.9,0.8
				c0.2,0.3,0.4,0.8,0.4,1.4c0,1.1-0.4,1.9-1.1,2.4C87.9,60.8,87,61,86.1,61c-0.7,0-1.4-0.1-2-0.5V59.5z"/>
		<path class="st2" d="M90.4,52.6h0.9v-1.5l1.1-0.2h0.1v1.7h2.2v1.1h-2.2v4.1c0,0.8,0.2,1.3,0.4,1.6c0.2,0.3,0.6,0.5,1,0.5
				c0.4,0,1-0.2,1.5-0.5l0.3,1.1c-0.7,0.3-1.3,0.5-1.9,0.5c-0.7,0-1.3-0.2-1.7-0.7c-0.4-0.5-0.7-1.3-0.7-2.5v-4.1h-0.9V52.6z"/>
		<path class="st2" d="M102.5,61c-0.5-0.2-0.9-0.6-1.2-1.2c-0.3,0.3-0.6,0.6-1,0.8c-0.4,0.2-0.9,0.3-1.4,0.3
				c-0.5,0-1.1-0.1-1.6-0.5c-0.5-0.4-0.9-1-0.9-2c0-0.8,0.2-1.4,0.7-1.8c0.5-0.4,1.2-0.6,2.3-0.6c0.4,0,0.9,0,1.6,0.1v-1
				c0-0.6-0.2-1-0.4-1.3c-0.3-0.2-0.6-0.3-1-0.3c-0.4,0-0.8,0-1.2,0.1c-0.4,0.1-0.8,0.2-1.2,0.5l-0.3-1.1c0.5-0.2,0.9-0.4,1.3-0.5
				c0.4-0.1,0.9-0.2,1.5-0.2c0.6,0,1.3,0.2,1.7,0.6c0.4,0.4,0.7,1.1,0.7,2.1v2.6c0,0.4,0,0.9,0.2,1.2c0.2,0.4,0.4,0.7,0.9,0.8
				L102.5,61z M100.9,57.3c-1.1,0-1.9,0-2.5,0.1c-0.6,0.2-0.9,0.5-0.9,1.1c0,0.6,0.3,1,0.6,1.2c0.3,0.2,0.6,0.2,0.7,0.2
				c0.4,0,0.9-0.1,1.4-0.3c0.4-0.3,0.7-0.8,0.7-1.6V57.3z"/>
		<path class="st2" d="M103.6,52.6h0.9v-1.5l1.1-0.2h0.1v1.7h2.2v1.1h-2.2v4.1c0,0.8,0.2,1.3,0.4,1.6c0.2,0.3,0.6,0.5,1,0.5
				c0.4,0,1-0.2,1.5-0.5l0.3,1.1c-0.7,0.3-1.3,0.5-1.9,0.5c-0.7,0-1.3-0.2-1.7-0.7c-0.4-0.5-0.7-1.3-0.7-2.5v-4.1h-0.9V52.6z"/>
		<path class="st2" d="M115.4,57.1h-4.9c0.1,1,0.4,1.7,0.8,2.1c0.5,0.5,1.1,0.7,1.7,0.7c0.7,0,1.4-0.2,2.1-0.6l0,0v1.1
				c-0.8,0.4-1.5,0.6-2.2,0.6c-1,0-1.9-0.3-2.5-1.1c-0.7-0.7-1.1-1.8-1.1-3.3c0-1.2,0.3-2.2,0.8-3c0.5-0.7,1.4-1.2,2.5-1.2
				c0.8,0,1.4,0.2,1.8,0.6c0.4,0.3,0.6,0.8,0.7,1.3c0.1,0.5,0.2,1.1,0.2,1.6V57.1z M114.3,56c0-0.6-0.1-1.2-0.3-1.6
				c-0.2-0.4-0.6-0.7-1.2-0.7c-0.6,0-1.1,0.2-1.4,0.7c-0.4,0.4-0.6,1-0.7,1.7H114.3z"/>
		<path class="st2" d="M121.1,56.8c0-1.2,0.4-2.3,1-3.1c0.6-0.8,1.5-1.3,2.6-1.3c1.1,0,2,0.5,2.6,1.3c0.6,0.8,1,1.8,1,3
				c0,1.2-0.4,2.3-1,3c-0.6,0.8-1.5,1.3-2.6,1.3c-1.1,0-1.9-0.5-2.6-1.3C121.5,59,121.1,58,121.1,56.8L121.1,56.8z M122.3,56.7
				c0,0.9,0.2,1.7,0.6,2.2c0.4,0.6,1,0.9,1.8,0.9c0.8,0,1.4-0.3,1.8-0.9c0.4-0.5,0.6-1.3,0.6-2.2c0-0.9-0.2-1.7-0.6-2.3
				c-0.4-0.6-1-0.9-1.8-0.9c-0.8,0-1.4,0.3-1.8,0.9C122.5,55.1,122.3,55.9,122.3,56.7L122.3,56.7z"/>
		<path class="st2" d="M129,52.6h1.3v0c0-1.2,0.2-2,0.7-2.5c0.4-0.5,1-0.7,1.7-0.7c0.6,0,1.2,0.1,1.8,0.3l-0.3,1.1
				c-0.5-0.2-1-0.3-1.4-0.3c-0.4,0-0.7,0.1-0.9,0.4c-0.2,0.3-0.4,0.9-0.4,1.6v0h1.8v1.1h-1.8v7.1h-1.2v-7.1H129V52.6z"/>
		<path class="st2" d="M139,52.6h0.9v-1.5l1.1-0.2h0.1v1.7h2.2v1.1h-2.2v4.1c0,0.8,0.2,1.3,0.4,1.6c0.2,0.3,0.6,0.5,1,0.5
				c0.4,0,1-0.2,1.5-0.5l0.3,1.1c-0.7,0.3-1.3,0.5-1.9,0.5c-0.7,0-1.3-0.2-1.7-0.7c-0.4-0.5-0.7-1.3-0.7-2.5v-4.1H139V52.6z"/>
		<path class="st2" d="M145.5,49.5l1.1-0.2h0.1v3.9c0.3-0.2,0.7-0.4,1.1-0.6c0.4-0.2,0.8-0.3,1.1-0.3c0.7,0,1.4,0.2,1.9,0.7
				c0.5,0.5,0.8,1.3,0.8,2.4v5.3h-1.2v-5.2c0-0.8-0.2-1.3-0.5-1.6c-0.3-0.3-0.7-0.4-1.2-0.4c-0.4,0-0.7,0.1-1.1,0.2
				c-0.4,0.2-0.7,0.4-1,0.5v6.5h-1.2V49.5z"/>
		<path class="st2" d="M159.3,57.1h-4.8c0.1,1,0.4,1.7,0.8,2.1c0.5,0.5,1.1,0.7,1.7,0.7c0.7,0,1.4-0.2,2.1-0.6l0,0v1.1
				c-0.8,0.4-1.5,0.6-2.2,0.6c-1,0-1.9-0.3-2.5-1.1c-0.7-0.7-1.1-1.8-1.1-3.3c0-1.2,0.3-2.2,0.8-3c0.5-0.7,1.4-1.2,2.5-1.2
				c0.8,0,1.4,0.2,1.8,0.6c0.4,0.3,0.6,0.8,0.8,1.3c0.1,0.5,0.2,1.1,0.2,1.6V57.1z M158.2,56c0-0.6-0.1-1.2-0.3-1.6
				c-0.2-0.4-0.6-0.7-1.2-0.7c-0.6,0-1.1,0.2-1.4,0.7c-0.4,0.4-0.6,1-0.7,1.7H158.2z"/>
		<path class="st2"
			  d="M167.9,51.7l1.8,5.6H166L167.9,51.7z M167.1,50.4l-3.4,10.5h1.2l0.8-2.4h4.4l0.8,2.4h1.2l-3.4-10.5H167.1z"/>

		<path class="st2" d="M173.4,52.6h0.8l0.3,0.9c0.6-0.7,1.2-1.1,1.9-1.1c0.2,0,0.4,0,0.7,0.1c0.2,0,0.5,0.1,0.6,0.2l-0.4,1.1
				c-0.3-0.2-0.7-0.3-1.1-0.3c-0.7,0-1.2,0.5-1.6,1.1v6.2h-1.2V52.6z"/>
		<path class="st2" d="M178.6,52.6h0.9v-1.5l1.1-0.2h0.1v1.7h2.2v1.1h-2.2v4.1c0,0.8,0.2,1.3,0.4,1.6c0.2,0.3,0.6,0.5,1,0.5
				c0.5,0,1-0.2,1.5-0.5l0.3,1.1c-0.7,0.3-1.3,0.5-1.9,0.5c-0.7,0-1.3-0.2-1.7-0.7c-0.4-0.5-0.7-1.3-0.7-2.5v-4.1h-0.9V52.6z"/>
		<polygon class="st2"
				 points="84.1,24.8 84.1,43.9 87.3,43.9 87.3,36 95,36 95,32.8 87.3,32.8 87.3,28 95.2,28 95.2,24.8 		"/>
		<polygon class="st2" points="100,22.9 97.3,23.2 97.3,43.9 100.5,43.9 100.5,22.9 		"/>
		<path class="st2" d="M114.9,44.2c-0.5,0-1.1-0.1-1.6-0.3c-0.5-0.2-1.1-0.6-1.6-1.2c-0.6,0.5-1.1,0.8-1.6,1.1
			c-0.6,0.3-1.3,0.5-2.2,0.5c-0.7,0-1.4-0.1-2.1-0.4c-0.7-0.3-1.3-0.7-1.8-1.4c-0.5-0.7-0.8-1.7-0.8-3c0-1.3,0.3-2.4,1.1-3.1
			c0.8-0.7,2-1.1,3.9-1.1c0.8,0,1.7,0,2.9,0.1v-0.8c0-1-0.3-1.8-0.8-2.2c-0.5-0.4-1.2-0.6-2-0.6c-0.6,0-1.3,0.1-1.9,0.3
			c-0.7,0.2-1.3,0.4-1.9,0.7l-0.7-3c1.5-0.8,3.4-1.3,5.2-1.3c1.4,0,2.7,0.3,3.7,1.1c1,0.8,1.6,2,1.6,3.9v5.6c0,0.7,0.2,1.2,0.6,1.6
			c0.4,0.3,0.9,0.6,1.5,0.7L114.9,44.2z M111.1,37.8c-1.5,0-2.7,0-3.4,0.2c-0.8,0.2-1.2,0.6-1.2,1.5c0,1.2,0.8,1.9,2,1.9
			c0.4,0,1.1-0.1,1.6-0.5c0.6-0.4,1-1,1-2.2V37.8z"/>
		<path class="st2" d="M118.2,28.8h2.7l0.3,1.2c1.3-0.9,2.9-1.5,4.5-1.5c1.4,0,2.7,0.4,3.6,1.3c0.9,0.9,1.6,2.2,1.6,4.1v10h-3.2v-9
			c0-1.1-0.4-1.9-1-2.4c-0.6-0.5-1.4-0.7-2.2-0.7c-1.1,0-2.2,0.3-3.1,0.9v11.2h-3.2V28.8z"/>
		<path class="st2" d="M146.3,43.9h-2.4l-0.6-1.1c-1.1,0.9-2.2,1.4-3.8,1.4c-2,0-3.6-0.9-4.6-2.2c-1-1.3-1.5-3.1-1.5-5
			c0-2.8,0.8-5,2.1-6.4c1.3-1.4,3.2-2.1,5.4-2.1c0.6,0,1.3,0,2.1,0.1v-5.5l2.7-0.3h0.5V43.9z M143.1,32c-0.8-0.2-1.6-0.3-2.3-0.3
			c-1.2,0-2.2,0.4-3,1.2c-0.7,0.8-1.1,1.9-1.1,3.5c0,1.1,0.3,2.3,0.9,3.1c0.6,0.9,1.4,1.4,2.6,1.4c1,0,2.1-0.4,2.9-0.9V32z"/>
		<path class="st2" d="M160.4,40v3.3c-0.6,0.3-1.3,0.5-2,0.7c-0.7,0.1-1.4,0.2-2,0.2c-2,0-3.8-0.7-5.1-1.9c-1.3-1.3-2.2-3.3-2.2-5.9
			c0-2.5,0.8-4.5,2-5.8c1.2-1.3,2.8-2,4.4-2c0.4,0,1.3,0.1,2.1,0.4c0.8,0.3,1.7,0.9,2.4,1.9c0.7,1,1.2,2.5,1.2,4.6v2.3h-8.6
			c0.3,1.2,0.8,2,1.6,2.6c0.8,0.5,1.7,0.7,2.6,0.7c1.2,0,2.5-0.4,3.6-1L160.4,40z M158.2,34.9c-0.1-1.1-0.4-1.9-0.9-2.4
			c-0.5-0.5-1.1-0.7-1.7-0.7c-0.7,0-1.3,0.2-1.9,0.7c-0.6,0.5-1,1.3-1.2,2.4H158.2z"/>
		<path class="st2" d="M172.2,32.6c-0.8-0.5-1.6-0.8-2.4-0.8c-1,0-2,0.4-2.9,1.1v11h-3.2V28.8h2.7l0.3,1.2c1-0.9,2.2-1.5,3.6-1.5
			c0.4,0,0.9,0,1.4,0.1c0.5,0.1,1,0.2,1.4,0.5L172.2,32.6z"/>
		<path class="st2" d="M174.2,40l0.1-0.1c0.4,0.2,0.9,0.5,1.6,0.7c0.6,0.2,1.3,0.4,2,0.4c0.6,0,1.2-0.1,1.6-0.4
			c0.4-0.3,0.7-0.7,0.7-1.4c0-0.7-0.4-1.2-0.9-1.5c-0.3-0.2-0.6-0.3-1-0.4c-0.7-0.2-1.5-0.5-2.2-0.9c-0.7-0.4-1.3-0.9-1.6-1.8
			c-0.2-0.4-0.3-1-0.3-1.6c0-1.6,0.6-2.7,1.5-3.4c0.9-0.7,2.1-1,3.4-1c1.1,0,2.3,0.2,3.2,0.6v3l-0.2,0.1c-0.8-0.4-1.5-0.6-2.4-0.6
			c-0.6,0-1.2,0.1-1.6,0.3c-0.4,0.2-0.7,0.6-0.7,1c0,0.5,0.4,0.9,0.9,1.1c0.3,0.1,0.6,0.3,0.9,0.4c0.7,0.2,1.5,0.5,2.2,1
			c0.7,0.4,1.3,1.1,1.6,2c0.2,0.5,0.2,1,0.2,1.7c0,1.7-0.7,3-1.7,3.8c-1,0.8-2.4,1.2-3.8,1.2c-1.4,0-2.7-0.4-3.7-1V40z"/>
</g>
</svg>
