<?xml version="1.0" encoding="utf-8"?>
<svg viewBox="832.791 370.887 1821.6001 593.5" width="1821.6" height="593.5" xmlns="http://www.w3.org/2000/svg">
	<path
		d="M 1055.991 485.687 L 1056.091 582.687 L 1170.991 582.687 L 1170.991 376.287 L 1056.091 376.287 L 1056.091 473.187 C 1056.091 473.187 1056.091 473.287 1055.991 473.287 C 1055.891 473.287 1055.891 473.187 1055.891 473.187 C 1052.591 416.187 1005.291 370.887 947.491 370.887 C 889.691 370.887 838.891 419.487 838.891 479.487 C 838.891 539.487 887.491 588.087 947.491 588.087 C 1007.391 588.087 1052.591 542.787 1055.991 485.687 C 1055.891 485.787 1055.891 485.687 1055.991 485.687 L 1055.991 485.687 Z"
		style="fill:#00c7a9"
		transform="matrix(0.9999999999999999, 0, 0, 0.9999999999999999, 0, 7.105427357601002e-15)"/>
	<path
		d="M 887.391 948.787 L 863.691 948.787 L 858.991 963.387 L 845.991 963.387 L 868.191 899.087 L 883.091 899.087 L 905.291 963.387 L 891.991 963.387 L 887.391 948.787 Z M 883.691 937.387 L 875.591 912.187 L 867.491 937.387 L 883.691 937.387 Z M 995.691 963.387 L 983.191 963.387 L 983.191 916.087 L 969.791 953.087 L 956.991 953.087 L 943.591 916.287 L 943.591 963.387 L 931.091 963.387 L 931.091 899.087 L 948.791 899.087 L 963.391 938.187 L 977.991 899.087 L 995.691 899.087 L 995.691 963.387 L 995.691 963.387 Z M 1049.691 951.987 L 1049.691 963.387 L 1006.991 963.387 L 1006.991 899.087 L 1049.491 899.087 L 1049.491 910.487 L 1019.591 910.487 L 1019.591 925.187 L 1047.991 925.187 L 1047.991 936.587 L 1019.591 936.587 L 1019.591 951.887 L 1049.691 951.987 Z M 1102.291 951.987 L 1102.291 963.387 L 1059.591 963.387 L 1059.591 899.087 L 1102.091 899.087 L 1102.091 910.487 L 1072.091 910.487 L 1072.091 925.187 L 1100.491 925.187 L 1100.491 936.587 L 1072.191 936.587 L 1072.191 951.887 L 1102.291 951.987 Z M 1176.791 963.387 L 1164.291 963.387 L 1164.291 916.087 L 1150.891 953.087 L 1138.091 953.087 L 1124.691 916.287 L 1124.691 963.387 L 1112.191 963.387 L 1112.191 899.087 L 1129.891 899.087 L 1144.491 938.187 L 1159.091 899.087 L 1176.791 899.087 L 1176.791 963.387 L 1176.791 963.387 Z M 1244.791 931.187 C 1244.791 951.187 1232.791 964.387 1214.991 964.387 C 1197.191 964.387 1185.191 951.187 1185.191 931.187 C 1185.191 911.187 1197.191 897.987 1214.991 897.987 C 1232.791 897.987 1244.791 911.287 1244.791 931.187 Z M 1198.191 931.187 C 1198.191 944.387 1205.091 952.187 1214.991 952.187 C 1224.891 952.187 1231.791 944.387 1231.791 931.187 C 1231.791 917.987 1224.891 910.187 1214.991 910.187 C 1205.091 910.187 1198.191 918.087 1198.191 931.187 Z M 1309.791 931.187 C 1309.791 951.187 1297.791 964.387 1279.991 964.387 C 1262.191 964.387 1250.191 951.187 1250.191 931.187 C 1250.191 911.187 1262.191 897.987 1279.991 897.987 C 1297.791 897.987 1309.791 911.287 1309.791 931.187 Z M 1263.191 931.187 C 1263.191 944.387 1270.091 952.187 1279.991 952.187 C 1289.891 952.187 1296.791 944.387 1296.791 931.187 C 1296.791 917.987 1289.891 910.187 1279.991 910.187 C 1270.091 910.187 1263.191 918.087 1263.191 931.187 Z M 1350.891 963.387 L 1338.291 963.387 L 1338.291 899.087 L 1350.891 899.087 L 1350.891 963.387 Z M 1414.191 963.387 L 1402.191 963.387 L 1374.491 921.587 L 1374.491 963.387 L 1361.991 963.387 L 1361.991 899.087 L 1373.991 899.087 L 1401.791 940.987 L 1401.791 899.087 L 1414.191 899.087 L 1414.191 963.387 Z M 1437.991 963.387 L 1425.391 963.387 L 1425.391 899.087 L 1437.991 899.087 L 1437.991 963.387 Z M 1490.991 910.787 L 1473.391 910.787 L 1473.391 963.387 L 1460.791 963.387 L 1460.791 910.787 L 1443.191 910.787 L 1443.191 899.087 L 1490.991 899.087 L 1490.991 910.787 Z M 1508.991 963.387 L 1496.391 963.387 L 1496.391 899.087 L 1508.991 899.087 L 1508.991 963.387 Z M 1555.291 948.787 L 1531.591 948.787 L 1526.891 963.387 L 1513.891 963.387 L 1536.091 899.087 L 1550.991 899.087 L 1573.191 963.387 L 1559.891 963.387 L 1555.291 948.787 L 1555.291 948.787 Z M 1551.591 937.387 L 1543.491 912.187 L 1535.391 937.387 L 1551.591 937.387 L 1551.591 937.387 Z M 1614.391 910.787 L 1596.791 910.787 L 1596.791 963.387 L 1584.191 963.387 L 1584.191 910.787 L 1566.591 910.787 L 1566.591 899.087 L 1614.391 899.087 L 1614.391 910.787 L 1614.391 910.787 Z M 1632.391 963.387 L 1619.791 963.387 L 1619.791 899.087 L 1632.391 899.087 L 1632.391 963.387 Z M 1695.891 899.087 L 1674.191 963.387 L 1659.091 963.387 L 1637.391 899.087 L 1650.691 899.087 L 1666.691 949.687 L 1682.791 899.087 L 1695.891 899.087 L 1695.891 899.087 Z M 1743.791 951.987 L 1743.791 963.387 L 1701.091 963.387 L 1701.091 899.087 L 1743.591 899.087 L 1743.591 910.487 L 1713.591 910.487 L 1713.591 925.187 L 1741.991 925.187 L 1741.991 936.587 L 1713.591 936.587 L 1713.591 951.887 L 1743.791 951.987 Z M 942.991 730.087 L 894.591 730.087 L 894.591 778.887 C 894.591 795.587 903.391 801.687 914.591 801.687 C 923.191 801.687 932.391 797.387 939.691 792.987 L 952.991 821.187 C 941.291 829.187 927.691 835.287 908.691 835.287 C 875.591 835.287 858.591 816.487 858.591 781.887 L 858.591 730.087 L 832.791 730.087 L 832.791 698.087 L 858.591 698.087 L 858.591 658.387 L 894.591 658.387 L 894.591 698.087 L 942.991 698.087 L 942.991 730.087 L 942.991 730.087 Z M 1002.391 712.387 C 1011.891 699.087 1026.091 694.487 1040.791 694.487 C 1071.191 694.487 1092.791 715.587 1092.791 746.687 L 1092.791 831.887 L 1056.791 831.887 L 1056.791 758.387 C 1056.791 739.087 1047.091 728.387 1030.691 728.387 C 1015.191 728.387 1002.391 738.487 1002.391 758.587 L 1002.391 831.887 L 966.391 831.887 L 966.391 632.887 L 1002.391 632.887 L 1002.391 712.387 L 1002.391 712.387 Z M 1241.691 764.687 C 1241.691 768.787 1241.391 773.787 1240.991 776.787 L 1146.191 776.787 C 1150.091 796.087 1163.591 804.487 1180.591 804.487 C 1192.191 804.487 1204.791 799.787 1214.391 791.687 L 1235.491 814.887 C 1220.291 828.787 1200.991 835.187 1178.491 835.187 C 1137.491 835.187 1109.091 807.287 1109.091 765.187 C 1109.091 723.087 1136.691 694.387 1176.691 694.387 C 1216.691 694.387 1241.591 722.987 1241.691 764.687 L 1241.691 764.687 Z M 1146.391 752.287 L 1205.591 752.287 C 1202.291 735.187 1191.891 725.487 1176.491 725.487 C 1159.491 725.487 1149.491 735.687 1146.391 752.287 Z M 1398.891 831.787 L 1363.691 831.787 L 1363.691 816.987 C 1354.991 827.787 1341.991 835.187 1323.691 835.187 C 1286.891 835.187 1258.991 804.987 1258.991 764.787 C 1258.991 724.587 1286.891 694.387 1323.691 694.387 C 1341.991 694.387 1354.891 701.887 1363.691 712.687 L 1363.691 697.887 L 1398.891 697.887 L 1398.891 831.787 Z M 1295.791 764.887 C 1295.791 785.287 1309.191 801.687 1330.291 801.687 C 1351.391 801.687 1364.791 785.987 1364.791 764.887 C 1364.791 743.787 1350.891 727.987 1330.291 727.987 C 1309.791 727.987 1295.791 744.387 1295.791 764.887 Z M 1518.991 697.387 L 1513.591 733.087 C 1507.691 730.487 1499.091 728.787 1491.791 728.787 C 1475.091 728.787 1463.591 738.987 1463.591 758.887 L 1463.591 831.787 L 1427.591 831.787 L 1427.591 698.087 L 1462.491 698.087 L 1462.491 712.687 C 1470.891 700.087 1483.791 694.487 1500.191 694.487 C 1507.991 694.487 1514.091 695.587 1518.991 697.387 L 1518.991 697.387 Z M 1646.591 719.687 L 1620.691 741.387 C 1612.591 732.687 1603.891 727.987 1592.091 727.987 C 1573.491 727.987 1558.591 742.587 1558.591 764.887 C 1558.591 787.087 1573.391 801.687 1591.991 801.687 C 1603.591 801.687 1613.491 796.487 1621.091 788.187 L 1646.791 810.087 C 1634.191 826.287 1615.491 835.187 1593.091 835.187 C 1550.491 835.187 1521.891 805.387 1521.891 764.787 C 1521.891 724.187 1550.491 694.387 1593.091 694.387 C 1615.391 694.487 1634.291 703.587 1646.591 719.687 Z M 1698.091 712.387 C 1707.591 699.087 1721.791 694.487 1736.491 694.487 C 1766.891 694.487 1788.491 715.587 1788.491 746.687 L 1788.491 831.887 L 1752.491 831.887 L 1752.491 758.387 C 1752.491 739.087 1742.791 728.387 1726.391 728.387 C 1710.891 728.387 1698.091 738.487 1698.091 758.587 L 1698.091 831.887 L 1662.091 831.887 L 1662.091 632.887 L 1698.091 632.887 L 1698.091 712.387 L 1698.091 712.387 Z M 1856.891 654.287 C 1856.891 667.287 1846.791 677.187 1833.791 677.187 C 1820.791 677.187 1810.891 667.287 1810.891 654.287 C 1810.891 641.287 1820.791 631.087 1833.791 631.087 C 1846.791 631.087 1856.891 641.387 1856.891 654.287 Z M 1852.091 831.787 L 1816.091 831.787 L 1816.091 698.087 L 1852.091 698.087 L 1852.091 831.787 Z M 1958.591 831.787 L 1917.091 831.787 L 1864.291 698.087 L 1903.491 698.087 L 1938.091 793.887 L 1972.991 698.087 L 2010.891 698.087 L 1958.591 831.787 L 1958.591 831.787 Z M 2142.591 764.687 C 2142.591 768.787 2142.291 773.787 2141.891 776.787 L 2047.091 776.787 C 2050.991 796.087 2064.491 804.487 2081.491 804.487 C 2093.091 804.487 2105.691 799.787 2115.291 791.687 L 2136.391 814.887 C 2121.191 828.787 2101.891 835.187 2079.391 835.187 C 2038.391 835.187 2009.991 807.287 2009.991 765.187 C 2009.991 723.087 2037.591 694.387 2077.591 694.387 C 2117.591 694.387 2142.491 723.087 2142.591 764.687 L 2142.591 764.687 Z M 2047.291 752.287 L 2106.491 752.287 C 2103.191 735.187 2092.791 725.487 2077.391 725.487 C 2060.391 725.487 2050.391 735.787 2047.291 752.287 L 2047.291 752.287 Z M 2258.291 735.287 C 2247.691 730.087 2230.691 724.487 2215.691 724.387 C 2201.991 724.387 2195.091 729.187 2195.091 736.487 C 2195.091 744.187 2204.791 746.187 2216.891 747.987 L 2228.791 749.787 C 2257.791 754.187 2273.891 767.187 2273.891 789.787 C 2273.891 817.387 2251.291 835.187 2212.491 835.187 C 2194.291 835.187 2170.391 831.687 2152.991 819.487 L 2167.191 792.187 C 2178.591 799.787 2192.591 805.287 2212.691 805.287 C 2229.391 805.287 2237.391 800.587 2237.391 792.687 C 2237.391 786.187 2230.591 782.587 2215.191 780.387 L 2204.291 778.887 C 2173.391 774.587 2158.091 761.087 2158.091 738.287 C 2158.091 710.787 2179.391 694.487 2214.491 694.487 C 2235.891 694.487 2252.591 698.487 2270.391 707.187 L 2258.291 735.287 L 2258.291 735.287 Z M 2344.491 808.287 C 2344.491 822.787 2332.091 835.187 2317.891 835.187 C 2303.691 835.187 2290.991 822.787 2290.991 808.287 C 2290.991 793.787 2303.591 781.687 2317.891 781.687 C 2332.191 781.687 2344.491 793.987 2344.491 808.287 Z M 2508.491 764.887 C 2508.491 805.087 2480.591 835.287 2443.791 835.287 C 2425.291 835.287 2412.491 827.787 2403.791 817.087 L 2403.791 831.887 L 2368.591 831.887 L 2368.591 633.087 L 2404.491 633.087 L 2404.491 711.987 C 2413.191 701.487 2425.791 694.487 2443.691 694.487 C 2480.691 694.487 2508.491 724.687 2508.491 764.887 L 2508.491 764.887 Z M 2402.691 764.887 C 2402.691 785.987 2416.591 801.687 2437.091 801.687 C 2457.491 801.687 2471.591 785.287 2471.591 764.887 C 2471.591 744.487 2458.291 727.987 2437.091 727.987 C 2415.891 727.987 2402.691 743.787 2402.691 764.887 Z M 2654.391 764.687 C 2654.391 768.787 2654.091 773.787 2653.691 776.787 L 2558.891 776.787 C 2562.791 796.087 2576.291 804.487 2593.291 804.487 C 2604.891 804.487 2617.491 799.787 2627.091 791.687 L 2648.191 814.887 C 2632.991 828.787 2613.691 835.187 2591.191 835.187 C 2550.191 835.187 2521.791 807.287 2521.791 765.187 C 2521.791 723.087 2549.391 694.387 2589.391 694.387 C 2629.391 694.387 2654.291 723.087 2654.391 764.687 L 2654.391 764.687 Z M 2558.991 752.287 L 2618.191 752.287 C 2614.891 735.187 2604.491 725.487 2589.091 725.487 C 2572.191 725.487 2562.191 735.787 2558.991 752.287 Z"
		transform="matrix(0.9999999999999999, 0, 0, 0.9999999999999999, 0, 7.105427357601002e-15)"/>
</svg>
