<svg xmlns="http://www.w3.org/2000/svg" viewBox="0 0 1024.6 431" xml:space="preserve">
  <path fill="#2B2B2B"
		d="m402 110-33 96h-20l-33-96h18l24 73 26-73h18zm11-8 15-2h2v104h-17V102zm92 104-8-2c-3-1-6-3-8-6l-9 6-12 2-10-2c-4-1-8-4-10-7s-4-8-4-15 2-12 6-15 10-5 21-5h15v-3c0-6-2-9-5-11s-6-3-10-3l-10 1-10 4-4-15c7-3 17-6 27-6 7 0 14 2 19 6 6 3 9 10 9 19v28c0 3 1 6 3 7l8 4-8 13zm-20-32-18 1c-4 1-6 3-6 8 0 6 4 9 10 9 2 0 6 0 9-2s6-5 6-11v-5h-1zm93 32-8-2c-2-1-6-3-8-6l-9 6-11 2-11-2c-4-1-8-4-10-7s-4-8-4-15 2-12 6-15 10-5 21-5h15v-3c0-6-2-9-4-11-3-2-7-3-11-3l-10 1-10 4-4-15c8-3 17-6 27-6 7 0 14 2 19 6 5 3 8 10 8 19v28c0 3 1 6 3 7l8 4-7 13zm-19-32-18 1c-5 1-7 3-7 8 0 6 4 9 11 9 2 0 5 0 8-2 4-2 6-5 6-11v-5zm37-44h14l2 6c6-5 15-8 24-8 7 0 14 2 18 6 5 5 9 11 9 21v49h-17v-45c0-5-2-9-5-12-3-2-8-3-12-3-6 0-12 1-16 5v55h-17v-74zm147 74h-12l-3-6c-6 5-12 8-20 8-11 0-19-4-24-11s-8-16-8-25c0-14 4-24 11-32 8-6 17-10 29-10h11v-27l14-2h2v105zm-16-58-12-2c-6 0-12 2-16 6-3 3-5 9-5 17 0 5 1 11 4 15s8 8 14 8c5 0 11-2 15-5v-39zm91 39v16l-11 4-10 1c-11 0-20-3-27-10-8-6-12-16-12-29s4-23 11-29c6-6 14-10 23-10l10 2c4 2 10 4 13 9 4 5 7 13 7 23v11h-45c1 7 4 11 8 13s9 3 13 3c6 0 13-1 19-4h1zm-12-25c0-6-2-9-5-12-2-2-5-3-9-3-3 0-7 1-10 3-3 3-5 6-6 12h30zm72-12c-9-5-20-4-27 2v55h-17v-75h14l2 6c7-6 17-9 27-7l7 2-6 17zm65 37v16l-11 4-10 1c-11 0-20-3-27-10-8-6-12-16-12-29s4-23 11-29c6-6 14-10 23-10l10 2c4 2 10 4 13 9s7 13 7 23v11h-45c1 7 4 11 8 13s9 3 13 3c6 0 13-1 19-4h1zm-12-25c-1-6-2-9-5-12s-6-3-9-3-7 1-10 3c-3 3-5 6-6 12h30zm27-30h14l2 6c6-5 15-8 24-8 7 0 14 2 18 6 6 5 9 11 9 21v49h-17v-45c0-5-2-9-5-12s-8-3-12-3c-6 0-12 1-16 5v55h-17v-74zM377 270l-15 43h-8l-15-43h7l12 35 12-36h6v1h1zm36 23h-26c1 4 2 8 5 11 2 2 5 3 9 3s8-1 11-3v6l-12 3c-5 0-10-2-13-5-4-4-6-10-6-17s1-12 4-15c3-4 7-7 14-7 4 0 7 1 9 4 2 1 4 4 4 6l1 9v5zm-6-6-1-8c-1-2-4-4-7-4s-6 1-8 4c-2 2-3 5-4 9h20v-1zm18-17h4l2 5c3-4 6-6 10-6l4 1 3 1-2 5-6-1c-3 0-6 2-8 5v32h-7v-42zm31-16 6-1v20c3-2 6-3 11-3 6 0 10 2 14 6 3 4 5 9 5 15 0 7-2 12-5 16-5 4-10 6-17 6-5 0-10-1-14-3v-56zm6 52 8 1c5 0 8-1 11-4 2-3 4-8 4-13 0-4-1-8-3-11-2-2-5-4-10-4-4 0-8 1-10 4v27zm69-13h-27c1 4 2 8 5 11l9 3 12-3v6l-12 3c-5 0-11-2-14-5-4-4-6-10-6-17s2-12 4-15c3-4 7-7 14-7 4 0 7 1 9 4 3 1 4 4 5 6l1 9v5zm-7-6-1-8c-1-2-3-4-7-4-3 0-6 1-8 4-2 2-3 5-3 9h19v-1zm45 6h-26c0 4 2 8 4 11 3 2 6 3 10 3s7-1 11-3v6l-12 3c-5 0-10-2-14-5-3-4-6-10-6-17s2-12 4-15c4-4 8-7 15-7 4 0 7 1 9 4 2 1 3 4 4 6l1 9v5zm-6-6-2-8c-1-2-3-4-7-4-3 0-5 1-7 4-2 2-3 5-4 9h20v-1zm15-33 6-1h1v59h-7v-58zm52 58h-4l-2-4c-3 3-7 5-12 5-6 0-10-2-13-7-3-4-6-10-6-16s2-11 6-15c3-3 8-6 16-6l8 1v-16l5-1h1v59h1zm-6-35-9-2c-4 0-8 2-10 4-3 3-4 7-4 12l3 12c2 3 5 5 10 5 4 0 8-2 10-5v-26zm19-18 1-3 3-1 4 1 1 3-1 3-4 1-3-1-1-3zm1 11h6v43h-6v-43zm21 0h4l1 4 6-3 7-2c4 0 7 1 10 4s5 7 5 12v27h-7v-26l-2-8c-2-2-4-2-7-2l-6 1-5 3v33h-6v-43zm62 33c5 0 10 2 13 4 2 2 4 5 4 8 0 5-3 9-7 12s-9 4-15 4c-5 0-9-1-11-4-3-2-4-6-4-9 0-4 2-7 5-11l-3-3-1-4 3-7-2-5-1-5c0-5 1-8 4-10 2-3 7-4 11-4 3 0 6 0 9 2 1-2 3-3 5-3l5-1 3 5c-2 0-6 1-8 3l2 8c0 4-1 7-4 10-2 3-6 5-11 5l-8-2-1 3c0 2 2 4 5 4h7zm-11 6c-2 2-3 6-3 9 0 2 0 4 2 6s4 2 8 2c4 1 7-1 10-3s4-5 4-7c0-3-2-5-5-6l-11-1h-5zm7-34-7 2c-2 2-3 4-3 7l3 6 7 2 7-2 3-6-3-6c-1-2-4-3-7-3zm111-5-14 43h-8l-9-33-9 32h-8l-14-42h7l11 35 10-35h6l11 35 11-35h6zm37 23h-27c1 4 2 8 5 11l9 3 12-3v6l-12 3c-5 0-11-2-14-5-4-4-6-10-6-17s2-12 4-15c3-4 8-7 14-7 4 0 8 1 10 4 2 1 3 4 4 6l1 9v5zm-6-6-2-8c-1-2-3-4-7-4-3 0-5 1-7 4-2 2-3 5-4 9h20v-1zm17-17h4l2 5c3-4 7-6 10-6l4 1 4 1-2 5-6-1c-4 0-7 2-9 5v32h-6v-42h-1zm61 43c-3 0-5-2-8-4l-7-7-6-7-2-3-1-1v21h-6v-58l6-1h1v37l16-21h9l-17 21 3 5 7 7 8 5-3 6zm5-43h5v-8l6-1v9h12v6h-12v20l2 9 5 2 8-2 2 5c-3 2-7 3-10 3-4 0-7-1-9-4-3-2-4-6-4-12v-21h-5v-6zM337 431 190 0h2l147 431h-2zM191 214c-10-8-15 0-22 0-6-1-11-10-15-8-8 4 3 19 8 22l12 6c7 3 9 8 10 15v8c-3 13-26 24-39 15-6-4-12-10-14-19-3-17-15-30-19-46l-7-31-8-31-9-30C75 82 70 85 70 85s4 9 20 88c1 4 7 39 11 50l6 17c6 12 20 29 20 44l2 24 2 13c3 10 30 40 59 40v-23c-28 0-56-16-56-18l4-16c3-10 10-19 23-20 14-1 22 4 29 4l1-74zM66 130c-1 17-28 41-36 56-4 8-9 21-10 28-4 21 1 34 6 45 9 22-2 30 5 25 9-7 7-23 7-33v-28c2-19 13-38 23-52 12-16 8-34 5-41m6 49s3 14-9 49c-32 93 28 102 46 123 0 0 7-9-21-39-10-11-19-35-11-70 11-50-5-63-5-63m-60-60c-2-6-2-11-2-15 2-22 22-31 26-34 0 0 9-6 10-13 0 0 9 23-12 36-10 7-17 15-22 26m50-22c1 2 9 14-25 42-33 28-22 47-22 47s-36-19 5-54c41-34 32-42 32-42s7 1 10 7m43 11c6 1 10 19 23 23 10 3 20 2 23 7-5 3-1 11 4 9 3-10 5-51-50-39zm19 8c0-2 1 0 2-1 2-2 3-4 6-5l6 1-1 4c-1 1-7-1-7 3 0 7 9 0 14 0 2 16-25 11-20-2z"/>
</svg>
