<?xml version="1.0" encoding="utf-8"?>
<!DOCTYPE svg PUBLIC "-//W3C//DTD SVG 1.1//EN" "http://www.w3.org/Graphics/SVG/1.1/DTD/svg11.dtd">
<svg version="1.1" id="Layer_1" xmlns="http://www.w3.org/2000/svg" x="0px" y="0px"
	 viewBox="53.7 -110.9 451.7 438.1" enable-background="new 53.7 -110.9 451.7 438.1" xml:space="preserve">
	<path id="ring-bottom" fill="#FFFFFF" d="M397.2,49.6c8.1,16.7,13.6,36.5,13.6,56.3c0,70.5-57.2,127.7-127.7,127.7
			c-27.3,0-52.6-8.6-73.4-23.2l-22.1,19.1c26.4,20.4,59.5,32.6,95.4,32.6c86.2,0,156.1-69.9,156.1-156.1c0-26.7-7.7-52.8-19.5-74.7
			L397.2,49.6z"/>
	<path id="ring-top" fill="#FFFFFF" d="M176.8,176.7c-13.5-20.2-21.4-44.6-21.4-70.7c0-70.5,57.2-127.7,127.7-127.7
			c21.4,0,43.7,6.3,61.4,15.6l18.9-22.1c-23-13.4-51.8-22-80.3-22C196.9-50.2,127,19.7,127,106c0,34.6,11.3,66.6,30.4,92.5
			L176.8,176.7z"/>
	<path id="swoosh" fill="#FFFFFF"
		  d="M54,327.5l376.4-327c0,0,26.5-25.3,7-44.4c-19.2-18.9-42.9,6.8-42.9,6.8L54,327.5z"/>
</svg>
