<?xml version="1.0" encoding="utf-8"?>
<svg version="1.1" xmlns="http://www.w3.org/2000/svg" x="0px" y="0px"
	 viewBox="-216 364 178 65" xml:space="preserve">
<style type="text/css">
	.st0{fill:#00C7A9;}
</style>
	<title>hetarchief.be - een initiatief van meemoo (logo)</title>

	<circle class="st0" cx="-204" cy="376" r="12"/>
	<rect x="-192.2" y="365" class="st0" width="12.6" height="22"/>
	<path d="M-211.2,427.6v1.3h-4.7v-7.1h4.7v1.3h-3.3v1.6h3.1v1.3h-3.1v1.7C-214.6,427.6-211.2,427.6-211.2,427.6z M-205.4,427.6v1.3
	h-4.7v-7.1h4.7v1.3h-3.3v1.6h3.1v1.3h-3.1v1.7H-205.4L-205.4,427.6z M-198.5,428.9h-1.3l-3.1-4.6v4.6h-1.4v-7.1h1.3l3.1,4.6v-4.6
	h1.4V428.9L-198.5,428.9z M-193.7,428.9h-1.4v-7.1h1.4V428.9L-193.7,428.9z M-186.6,428.9h-1.3l-3.1-4.6v4.6h-1.4v-7.1h1.3l3.1,4.6
	v-4.6h1.4L-186.6,428.9L-186.6,428.9z M-184,428.9h-1.4v-7.1h1.4V428.9L-184,428.9z M-177.9,423.1h-1.9v5.8h-1.4v-5.8h-1.9v-1.3h5.3
	C-177.9,421.8-177.9,423.1-177.9,423.1z M-175.8,428.9h-1.4v-7.1h1.4V428.9z M-170.5,427.3h-2.6l-0.5,1.6h-1.4l2.5-7.1h1.6l2.5,7.1
	h-1.5L-170.5,427.3z M-170.9,426l-0.9-2.8l-0.9,2.8H-170.9z M-163.7,423.1h-1.9v5.8h-1.4v-5.8h-1.9v-1.3h5.3V423.1z M-161.5,428.9
	h-1.4v-7.1h1.4V428.9z M-155.5,427.6v1.3h-4.7v-7.1h4.7v1.3h-3.3v1.6h3.1v1.3h-3.1v1.7C-158.9,427.6-155.5,427.6-155.5,427.6z
	 M-153,423v1.7h3v1.3h-3v2.9h-1.4v-7.1h4.6v1.3H-153L-153,423z M-140.9,421.8l-2.4,7.1h-1.7l-2.4-7.1h1.5l1.8,5.6l1.8-5.6
	L-140.9,421.8L-140.9,421.8z M-136.8,427.3h-2.6l-0.5,1.6h-1.4l2.5-7.1h1.6l2.5,7.1h-1.5C-136.3,428.9-136.8,427.3-136.8,427.3z
	 M-137.2,426l-0.9-2.8l-0.9,2.8C-139,426-137.2,426-137.2,426z M-128.4,428.9h-1.3l-3.1-4.6v4.6h-1.4v-7.1h1.3l3.1,4.6v-4.6h1.4
	V428.9z M-117.8,428.9h-1.4v-5.2l-1.5,4.1h-1.4l-1.5-4.1v5.2h-1.4v-7.1h1.9l1.6,4.3l1.6-4.3h1.9L-117.8,428.9
	C-117.8,428.9-117.8,428.9-117.8,428.9z M-111.8,427.6v1.3h-4.7v-7.1h4.7v1.3h-3.3v1.6h3.1v1.3h-3.1v1.7
	C-115.1,427.6-111.8,427.6-111.8,427.6z M-106,427.6v1.3h-4.7v-7.1h4.7v1.3h-3.3v1.6h3.1v1.3h-3.1v1.7
	C-109.3,427.6-106,427.6-106,427.6z M-97.7,428.9h-1.4v-5.2l-1.5,4.1h-1.4l-1.5-4.1v5.2h-1.4v-7.1h1.9l1.6,4.3l1.6-4.3h1.9
	L-97.7,428.9L-97.7,428.9L-97.7,428.9z M-90.1,425.3c0,2.2-1.3,3.7-3.3,3.7s-3.3-1.5-3.3-3.7c0-2.2,1.3-3.7,3.3-3.7
	C-91.4,421.7-90.1,423.1-90.1,425.3z M-95.2,425.3c0,1.5,0.8,2.3,1.8,2.3s1.8-0.9,1.8-2.3c0-1.5-0.8-2.3-1.8-2.3
	S-95.2,423.9-95.2,425.3L-95.2,425.3z M-82.8,425.3c0,2.2-1.3,3.7-3.3,3.7c-2,0-3.3-1.5-3.3-3.7c0-2.2,1.3-3.7,3.3-3.7
	C-84.1,421.7-82.8,423.1-82.8,425.3z M-87.9,425.3c0,1.5,0.8,2.3,1.9,2.3c1.1,0,1.9-0.9,1.9-2.3c0-1.5-0.8-2.3-1.9-2.3
	C-87.2,423-87.9,423.9-87.9,425.3L-87.9,425.3z M-211.9,401.4c1-1.4,2.6-2,4.2-2c3.3,0,5.7,2.3,5.7,5.7v9.3h-3.9v-8.1
	c0-2.1-1.1-3.3-2.9-3.3c-1.7,0-3.1,1.1-3.1,3.3v8h-3.9v-21.8h3.9V401.4z M-185.3,407.1c0,0.4,0,1-0.1,1.3h-10.4c0.4,2.1,1.9,3,3.8,3
	c1.3,0,2.6-0.5,3.7-1.4l2.3,2.5c-1.7,1.5-3.8,2.2-6.2,2.2c-4.5,0-7.6-3.1-7.6-7.7c0-4.6,3-7.8,7.4-7.8
	C-188.2,399.4-185.4,402.5-185.3,407.1z M-195.8,405.7h6.5c-0.4-1.9-1.5-2.9-3.2-2.9C-194.3,402.8-195.4,403.9-195.8,405.7z
	 M-172.5,403.3h-5.3v5.4c0,1.8,1,2.5,2.2,2.5c0.9,0,1.9-0.5,2.7-1l1.4,3.1c-1.3,0.9-2.8,1.5-4.8,1.5c-3.6,0-5.5-2.1-5.5-5.8v-5.7
	h-2.8v-3.5h2.8v-4.3h3.9v4.3h5.3L-172.5,403.3C-172.5,403.3-172.5,403.3-172.5,403.3z M-155.9,414.4h-3.9v-1.6c-1,1.2-2.4,2-4.4,2
	c-4,0-7.1-3.3-7.1-7.7c0-4.4,3.1-7.7,7.1-7.7c2,0,3.4,0.8,4.4,2v-1.6h3.9L-155.9,414.4L-155.9,414.4z M-167.2,407.1
	c0,2.2,1.5,4,3.8,4c2.3,0,3.8-1.7,3.8-4s-1.5-4-3.8-4C-165.7,403.1-167.2,404.9-167.2,407.1z M-142.7,399.7l-0.6,3.9
	c-0.6-0.3-1.6-0.5-2.4-0.5c-1.8,0-3.1,1.1-3.1,3.3v8h-3.9v-14.6h3.8v1.6c0.9-1.4,2.3-2,4.1-2C-143.9,399.4-143.3,399.5-142.7,399.7z
	 M-128.6,402.2l-2.8,2.4c-0.9-1-1.8-1.5-3.1-1.5c-2,0-3.7,1.6-3.7,4c0,2.5,1.6,4,3.7,4c1.3,0,2.4-0.6,3.2-1.5l2.8,2.4
	c-1.4,1.8-3.4,2.7-5.9,2.7c-4.7,0-7.8-3.3-7.8-7.7c0-4.4,3.1-7.7,7.8-7.7C-132,399.4-129.9,400.4-128.6,402.2z M-122.9,401.4
	c1-1.4,2.6-2,4.2-2c3.3,0,5.7,2.3,5.7,5.7v9.3h-3.9v-8.1c0-2.1-1.1-3.3-2.9-3.3c-1.7,0-3.1,1.1-3.1,3.3v8h-3.9v-21.8h3.9
	L-122.9,401.4L-122.9,401.4z M-105.5,395c0,1.4-1.1,2.5-2.5,2.5c-1.4,0-2.5-1.1-2.5-2.5c0-1.4,1.1-2.5,2.5-2.5
	C-106.7,392.5-105.5,393.6-105.5,395C-105.5,395-105.5,395-105.5,395z M-106.1,414.4h-3.9v-14.6h3.9V414.4z M-89.4,407.1
	c0,0.4,0,1-0.1,1.3h-10.4c0.4,2.1,1.9,3,3.8,3c1.3,0,2.6-0.5,3.7-1.4l2.3,2.5c-1.7,1.5-3.8,2.2-6.2,2.2c-4.5,0-7.6-3.1-7.6-7.7
	c0-4.6,3-7.8,7.4-7.8C-92.3,399.4-89.4,402.5-89.4,407.1z M-99.8,405.7h6.5c-0.4-1.9-1.5-2.9-3.2-2.9
	C-98.4,402.8-99.5,403.9-99.8,405.7z M-77.4,403.3h-4.5v11.1h-3.9v-11.1h-2.7v-3.5h2.7V398c0-3.4,1.8-5.7,5.2-5.7
	c2,0,3.4,0.6,4.5,1.3l-1.6,3.1c-0.7-0.4-1.6-0.7-2.5-0.7c-1.1,0-1.7,0.7-1.7,2.1v1.8h4.5L-77.4,403.3L-77.4,403.3z M-72,411.9
	c0,1.6-1.4,2.9-2.9,2.9c-1.6,0-2.9-1.4-2.9-2.9c0-1.6,1.4-2.9,2.9-2.9C-73.4,408.9-72,410.3-72,411.9z M-54,407.1
	c0,4.4-3.1,7.7-7.1,7.7c-2,0-3.4-0.8-4.4-2v1.6h-3.9v-21.8h3.9v8.6c1-1.1,2.3-1.9,4.3-1.9C-57.1,399.4-54,402.7-54,407.1L-54,407.1z
	 M-65.6,407.1c0,2.3,1.5,4,3.8,4c2.3,0,3.8-1.8,3.8-4s-1.4-4-3.8-4C-64.1,403.1-65.6,404.8-65.6,407.1z M-38.1,407.1
	c0,0.4,0,1-0.1,1.3h-10.4c0.4,2.1,1.9,3,3.8,3c1.3,0,2.6-0.5,3.7-1.4l2.3,2.6c-1.7,1.5-3.8,2.2-6.2,2.2c-4.5,0-7.6-3.1-7.6-7.7
	c0-4.6,3-7.8,7.4-7.8C-41,399.4-38.1,402.5-38.1,407.1z M-48.5,405.7h6.5c-0.4-1.9-1.5-2.9-3.2-2.9
	C-47.1,402.8-48.2,403.9-48.5,405.7z"/>
</svg>
