<?xml version="1.0" encoding="UTF-8"?><svg xmlns="http://www.w3.org/2000/svg" viewBox="0 0 283.46 142.05"><defs><style>.cls-1{fill:#343433;stroke-width:0px;}.cls-2{mix-blend-mode:multiply;}.cls-3{isolation:isolate;}</style></defs><g class="cls-3"><g id="Layer_1"><g class="cls-2"><path class="cls-1" d="M105.94,42.97h15.27v4.23h-10.88v6.1h10.5v4.23h-10.5v10.2h-4.4v-24.76Z"/><path class="cls-1" d="M123.91,40.91l3.83-.38h.56v27.2h-4.4v-26.82Z"/><path class="cls-1" d="M148.04,68.11c-.73,0-1.45-.11-2.18-.43-.73-.3-1.46-.81-2.2-1.62-.77.58-1.45,1.09-2.25,1.45-.83.38-1.75.6-3,.6-.9,0-1.9-.13-2.86-.47s-1.84-.9-2.5-1.82c-.66-.92-1.07-2.2-1.07-3.93s.41-3.08,1.46-4c1.05-.92,2.76-1.43,5.37-1.43,1.05,0,2.27,0,4,.15v-.98c0-1.35-.43-2.29-1.13-2.85-.7-.56-1.63-.79-2.69-.79-.83,0-1.75.15-2.65.39-.9.24-1.8.56-2.57.94l-1.03-3.83c2.05-.98,4.66-1.65,7.12-1.65,1.93,0,3.74.41,5.09,1.43,1.33,1.01,2.18,2.61,2.18,5v7.25c0,.92.3,1.58.83,2.03.51.45,1.22.71,2.07.88l-1.99,3.68ZM142.8,59.84c-2.05,0-3.64-.04-4.73.23-1.09.26-1.69.83-1.69,1.97,0,1.6,1.15,2.48,2.74,2.48.54,0,1.46-.11,2.25-.6.79-.49,1.43-1.33,1.43-2.89v-1.18Z"/><path class="cls-1" d="M152.57,48.23h3.72l.43,1.52c1.8-1.2,4.04-1.9,6.22-1.9,1.86,0,3.64.51,4.94,1.63,1.29,1.13,2.14,2.87,2.14,5.3v12.94h-4.39v-11.65c0-1.45-.53-2.46-1.33-3.1-.81-.64-1.94-.9-3.08-.9-1.5,0-3.04.45-4.25,1.2v14.44h-4.39v-19.5Z"/><path class="cls-1" d="M191.13,67.73h-3.32l-.79-1.46c-1.5,1.13-3.08,1.84-5.24,1.84-2.8,0-4.88-1.13-6.25-2.86-1.37-1.73-2.05-4.06-2.05-6.46,0-3.68,1.11-6.42,2.95-8.25,1.84-1.8,4.43-2.69,7.44-2.69.88,0,1.84.06,2.87.19v-7.14l3.72-.38h.68v27.2ZM186.74,52.36c-1.11-.28-2.23-.41-3.12-.41-1.67,0-3.08.49-4.06,1.5-.98,1.01-1.54,2.52-1.54,4.55,0,1.48.41,2.93,1.2,4.04.79,1.11,1.95,1.84,3.51,1.84,1.33,0,2.82-.47,4-1.2v-10.31Z"/><path class="cls-1" d="M210.34,62.68v4.26c-.88.43-1.82.7-2.78.88-.98.19-1.94.28-2.76.28-2.7,0-5.2-.85-7.04-2.52-1.84-1.67-3-4.23-3-7.61s1.09-5.8,2.74-7.53c1.63-1.71,3.83-2.59,6.03-2.59.62,0,1.73.08,2.87.47,1.15.39,2.4,1.15,3.34,2.44.94,1.3,1.6,3.21,1.6,5.92v2.93h-11.83c.36,1.58,1.16,2.65,2.22,3.32,1.03.68,2.29.96,3.55.96,1.65,0,3.4-.47,4.9-1.28l.17.06ZM207.32,56.14c-.13-1.43-.6-2.44-1.28-3.12-.68-.66-1.54-.94-2.39-.94-.9,0-1.82.3-2.57.96-.77.68-1.39,1.69-1.63,3.1h7.87Z"/><path class="cls-1" d="M226.59,53.08c-1.11-.68-2.2-.98-3.3-.98-1.43,0-2.74.53-3.93,1.43v14.2h-4.4v-19.5h3.72l.45,1.6c1.35-1.15,3.01-1.97,4.96-1.97.53,0,1.26.04,1.97.17.71.13,1.41.32,1.92.6l-1.39,4.45Z"/><path class="cls-1" d="M229.31,62.66l.15-.11c.54.3,1.29.62,2.14.9.83.28,1.77.47,2.69.47.77,0,1.6-.13,2.22-.51.6-.36,1.01-.92,1.01-1.77,0-.92-.53-1.5-1.28-1.9-.39-.21-.83-.38-1.31-.53-.99-.3-2.03-.66-3.01-1.13-.99-.47-1.78-1.22-2.25-2.35-.24-.56-.36-1.26-.36-2.08,0-2.05.81-3.51,2.05-4.45,1.24-.94,2.91-1.35,4.7-1.35,1.5,0,3.19.3,4.34.73v3.94l-.23.17c-1.05-.51-2.08-.79-3.36-.79-.83,0-1.6.13-2.16.41-.56.28-.94.71-.94,1.31,0,.7.51,1.13,1.28,1.48.38.17.81.34,1.3.49.96.32,1.99.69,2.97,1.24.98.54,1.77,1.39,2.24,2.57.22.6.34,1.31.34,2.16,0,2.25-.9,3.89-2.29,4.94-1.39,1.07-3.27,1.58-5.2,1.58s-3.68-.49-5.01-1.33v-4.11Z"/><path class="cls-1" d="M69.01,70.11c-2.52-1.92-3.7.01-5.28-.11-1.34-.11-2.59-2.27-3.63-1.75-1.98,1,.79,4.56,1.99,5.29,1.07.64,2.42,1.23,2.74,1.38,1.58.74,2.22,1.87,2.42,3.62.05.4,0,1.32-.1,1.75-.72,3.08-6.11,5.87-9.21,3.76-1.46-1-2.79-2.29-3.25-4.57-.83-4.04-3.75-7.01-4.69-10.97-.57-2.4-.99-4.94-1.62-7.36-.64-2.5-1.29-4.98-1.81-7.25-.48-2.11-1.48-5.27-2.21-7.19-2.96-7.72-4.29-7.16-4.29-7.16,0,0,1.08,2.14,4.99,21.06.15.77,1.58,9.1,2.62,11.85.37.98,1.02,3.09,1.45,4.01,1.24,2.71,4.53,6.82,4.75,10.52.12,2.14.37,3.92.42,5.53.04.48.24,2.41.55,3.26.81,2.26,7.29,9.55,14.17,9.55v-5.52c-6.84,0-13.28-3.83-13.44-4.24-.1-.18.36-2.79.82-3.96.89-2.25,2.59-4.31,5.55-4.53,3.31-.24,5.31.72,7.06.72v-17.71Z"/><path class="cls-1" d="M39.32,50.06c-.25,4.14-6.65,9.8-8.66,13.42-.98,1.79-2.18,4.85-2.49,6.62-.85,4.94.23,8,1.43,10.89,2.12,5.08-.29,6.95,1.37,5.92,2.05-1.67,1.74-5.57,1.59-8-.12-1.97-.25-4.22.05-6.57.57-4.4,3.23-9.13,5.51-12.43,2.7-3.94,1.72-8.02,1.2-9.85"/><path class="cls-1" d="M40.61,61.81s.68,3.28-2.21,11.71c-7.56,22.04,6.88,24.13,10.99,29.31,0,0,1.59-2.24-4.96-9.43-2.39-2.63-4.55-8.41-2.67-16.67,2.72-11.97-1.16-14.92-1.16-14.92"/><path class="cls-1" d="M26.31,47.36c-.35-1.3-.45-2.47-.37-3.51.35-5.18,5.05-7.28,6.23-8.05,0,0,2.11-1.45,2.39-2.91,0,0,2.16,5.45-2.8,8.57-2.52,1.59-4.23,3.45-5.44,5.89"/><path class="cls-1" d="M38.17,42.35c.27.53,2.22,3.38-5.77,9.97-7.97,6.58-5.48,11.29-5.48,11.29,0,0-8.5-4.73,1.3-12.91,9.79-8.17,7.79-9.83,7.79-9.83,0,0,1.4-.07,2.16,1.47"/><path class="cls-1" d="M48.53,44.87c1.38.18,2.26,4.48,5.45,5.42,2.35.68,4.84.31,5.39,1.72-1.07.57-.23,2.46.86,2.15.89-2.51,1.34-12.23-11.7-9.3ZM52.83,46.81c.12-.31.28-.06.63-.28.37-.35.75-.93,1.36-1.12.43-.13,1.03-.07,1.43.09.27.06.11.76-.1.94-.43.32-1.7-.21-1.7.75.05,1.56,2.11-.05,3.2,0,.52,3.82-5.76,2.77-4.82-.37Z"/><rect class="cls-1" x="84.39" y="19.19" width=".47" height="103.67" transform="translate(-18.6 31.65) rotate(-19.13)"/></g><path class="cls-1" d="M104.38,94.29h.04c.39.17.94.32,1.53.44.59.12,1.24.2,1.89.2.91,0,1.8-.17,2.46-.55.66-.39,1.1-1.03,1.1-2.01,0-1.04-.48-1.65-1.37-2.21-.61-.39-1.46-.8-2.28-1.21-.81-.41-1.6-.8-2.06-1.18-.75-.6-1.23-1.57-1.23-2.97,0-1.56.59-2.61,1.49-3.27.9-.66,2.1-.92,3.33-.92.96,0,1.89.17,2.74.41v1.56l-.04.02c-.71-.14-1.71-.32-2.7-.32-.8,0-1.58.12-2.17.47-.59.35-.98.96-.98,1.9,0,.77.25,1.25.67,1.63.41.37,1.11.72,1.91,1.12.8.4,1.69.84,2.44,1.32.55.37,1.05.72,1.39,1.23.34.52.55,1.16.55,2.02,0,1.59-.7,2.76-1.73,3.53-1.04.77-2.43,1.13-3.81,1.13-1.13,0-2.23-.22-3.17-.68v-1.65Z"/><path class="cls-1" d="M114.65,84.15h1.36v-2.19l1.71-.32h.12v2.51h3.4v1.7h-3.4v6.02c0,1.12.25,1.88.64,2.37.39.5.94.71,1.57.71.71,0,1.5-.27,2.3-.73l.5,1.67c-1.04.47-2.06.74-3.02.74-1.07,0-2.01-.33-2.7-1.1-.7-.75-1.11-1.96-1.11-3.67v-6.02h-1.36v-1.7Z"/><path class="cls-1" d="M133.53,96.63c-.86-.28-1.46-.91-1.85-1.71-.42.48-.97.91-1.59,1.21-.62.31-1.37.5-2.18.5s-1.8-.18-2.59-.74c-.8-.57-1.38-1.51-1.38-3.03,0-1.13.33-2.02,1.08-2.63.75-.6,1.92-.91,3.59-.91.66,0,1.38.05,2.47.14v-1.52c0-.91-.26-1.51-.67-1.86-.42-.35-1.01-.47-1.64-.47s-1.21.06-1.82.19c-.6.14-1.2.35-1.86.68l-.47-1.59c.81-.33,1.45-.57,2.12-.73.66-.17,1.37-.24,2.35-.24s1.97.22,2.67.84c.7.61,1.14,1.62,1.14,3.18v3.89c0,.65.04,1.3.27,1.85.24.57.66,1,1.42,1.24l-1.04,1.71ZM131.06,91c-1.69-.01-3.02-.04-3.93.19-.91.24-1.4.71-1.4,1.66,0,.9.41,1.42.88,1.71.46.29.96.37,1.14.37.65,0,1.47-.08,2.14-.51.66-.41,1.17-1.14,1.17-2.43v-.99Z"/><path class="cls-1" d="M135.53,84.15h1.36v-2.19l1.71-.32h.12v2.51h3.4v1.7h-3.4v6.02c0,1.12.25,1.88.64,2.37.39.5.94.71,1.57.71.71,0,1.5-.27,2.3-.73l.5,1.67c-1.04.47-2.06.74-3.02.74-1.07,0-2.01-.33-2.7-1.1-.7-.75-1.11-1.96-1.11-3.67v-6.02h-1.36v-1.7Z"/><path class="cls-1" d="M154.25,90.73h-7.63c.09,1.42.59,2.47,1.31,3.16.72.7,1.69,1.04,2.74,1.04s2.18-.31,3.3-.87h.04v1.7c-1.27.62-2.38.87-3.51.87-1.52,0-2.95-.51-3.99-1.57-1.04-1.06-1.7-2.68-1.7-4.94,0-1.75.4-3.31,1.26-4.42.85-1.11,2.16-1.78,4-1.78,1.26,0,2.13.32,2.76.83.61.51.98,1.2,1.18,1.97.2.77.25,1.6.25,2.37v1.65ZM152.46,89.08c-.01-.94-.14-1.8-.51-2.44-.37-.64-.97-1.03-1.92-1.03s-1.67.37-2.24.98-.93,1.49-1.08,2.49h5.76Z"/><path class="cls-1" d="M163.08,90.3c0-1.78.59-3.37,1.59-4.53.99-1.16,2.41-1.86,4.07-1.86s3.08.72,4.05,1.86c.97,1.14,1.52,2.72,1.52,4.47s-.58,3.36-1.57,4.52c-1,1.16-2.43,1.86-4.09,1.86s-3.07-.72-4.03-1.86c-.97-1.13-1.53-2.71-1.53-4.46ZM164.91,90.21c0,1.27.32,2.46.97,3.31.65.86,1.6,1.4,2.88,1.4s2.16-.5,2.78-1.31c.62-.81.94-1.97.94-3.28s-.32-2.48-.94-3.34c-.62-.86-1.57-1.39-2.84-1.39s-2.17.5-2.81,1.32c-.64.83-.98,1.99-.98,3.28Z"/><path class="cls-1" d="M175.75,84.15h1.98v-.05c0-1.8.39-3.01,1.04-3.75.65-.74,1.57-1.04,2.62-1.04.9,0,1.86.2,2.87.52l-.5,1.6c-.8-.27-1.54-.44-2.16-.44s-1.12.19-1.47.66c-.35.48-.57,1.26-.57,2.44v.05h2.77v1.69h-2.77v10.56h-1.83v-10.56h-1.98v-1.69Z"/><path class="cls-1" d="M190.43,84.15h1.36v-2.19l1.71-.32h.12v2.51h3.4v1.7h-3.4v6.02c0,1.12.25,1.88.64,2.37.39.5.94.71,1.57.71.71,0,1.5-.27,2.3-.73l.5,1.67c-1.04.47-2.06.74-3.02.74-1.07,0-2-.33-2.7-1.1-.7-.75-1.11-1.96-1.11-3.67v-6.02h-1.36v-1.7Z"/><path class="cls-1" d="M200.64,79.55l1.71-.24h.12v5.8c.48-.29,1.07-.6,1.67-.83.6-.22,1.2-.38,1.73-.38,1.17,0,2.24.29,3.04,1.03.79.73,1.29,1.89,1.29,3.62v7.83h-1.83v-7.74c0-1.18-.31-1.95-.78-2.42-.48-.46-1.16-.64-1.9-.64-.57,0-1.14.14-1.7.37-.55.24-1.06.53-1.53.81v9.61h-1.83v-16.84Z"/><path class="cls-1" d="M222.39,90.73h-7.63c.09,1.42.59,2.47,1.31,3.16.72.7,1.69,1.04,2.74,1.04s2.18-.31,3.3-.87h.04v1.7c-1.27.62-2.38.87-3.51.87-1.52,0-2.95-.51-3.99-1.57-1.04-1.06-1.7-2.68-1.7-4.94,0-1.75.4-3.31,1.26-4.42.85-1.11,2.16-1.78,4-1.78,1.26,0,2.13.32,2.76.83.61.51.98,1.2,1.18,1.97.2.77.25,1.6.25,2.37v1.65ZM220.6,89.08c-.01-.94-.14-1.8-.51-2.44-.37-.64-.97-1.03-1.92-1.03s-1.67.37-2.24.98-.93,1.49-1.08,2.49h5.76Z"/><path class="cls-1" d="M240.58,92.77h-6.86l-1.25,3.62h-1.89l5.34-15.55h2.44l5.35,15.55h-1.89l-1.25-3.62ZM234.29,91.07h5.71l-2.85-8.27-2.85,8.27Z"/><path class="cls-1" d="M245.95,84.15h1.23l.42,1.39c.91-1.05,1.87-1.63,3.01-1.63.29,0,.66.04,1.03.11.37.07.72.19,1,.32l-.64,1.64c-.46-.22-1.18-.38-1.69-.38-1.07,0-1.91.68-2.54,1.64v9.15h-1.83v-12.24Z"/><path class="cls-1" d="M253.53,84.15h1.36v-2.19l1.71-.32h.12v2.51h3.4v1.7h-3.4v6.02c0,1.12.25,1.88.64,2.37.39.5.94.71,1.57.71.71,0,1.5-.27,2.3-.73l.5,1.67c-1.04.47-2.06.74-3.02.74-1.07,0-2-.33-2.7-1.1-.7-.75-1.11-1.96-1.11-3.67v-6.02h-1.36v-1.7Z"/></g></g></svg>