<?xml version="1.0" encoding="UTF-8" standalone="no"?>
<svg
   xmlns:dc="http://purl.org/dc/elements/1.1/"
   xmlns:cc="http://creativecommons.org/ns#"
   xmlns:rdf="http://www.w3.org/1999/02/22-rdf-syntax-ns#"
   xmlns:svg="http://www.w3.org/2000/svg"
   xmlns="http://www.w3.org/2000/svg"
   xmlns:sodipodi="http://sodipodi.sourceforge.net/DTD/sodipodi-0.dtd"
   xmlns:inkscape="http://www.inkscape.org/namespaces/inkscape"
   id="logo"
   viewBox="0 0 1547.8678 308.0246"
   version="1.1"
   sodipodi:docname="logo_meemoo.svg"
   width="1547.8678"
   height="308.0246"
   inkscape:version="0.92.4 (5da689c313, 2019-01-14)">
  <metadata
     id="metadata14">
    <rdf:RDF>
      <cc:Work
         rdf:about="">
        <dc:format>image/svg+xml</dc:format>
        <dc:type
           rdf:resource="http://purl.org/dc/dcmitype/StillImage" />
        <dc:title>meemoo-secondary_logo_lockup-pos-rgb</dc:title>
      </cc:Work>
    </rdf:RDF>
  </metadata>
  <sodipodi:namedview
     pagecolor="#ffffff"
     bordercolor="#666666"
     borderopacity="1"
     objecttolerance="10"
     gridtolerance="10"
     guidetolerance="10"
     inkscape:pageopacity="0"
     inkscape:pageshadow="2"
     inkscape:window-width="960"
     inkscape:window-height="989"
     id="namedview12"
     showgrid="true"
     fit-margin-top="40"
     fit-margin-left="0"
     fit-margin-right="0"
     fit-margin-bottom="40"
     inkscape:zoom="0.69455318"
     inkscape:cx="627.10295"
     inkscape:cy="346.10771"
     inkscape:window-x="0"
     inkscape:window-y="27"
     inkscape:window-maximized="0"
     inkscape:current-layer="logo">
    <inkscape:grid
       type="xygrid"
       id="grid3719"
       originx="-144.64395"
       originy="-100.76744" />
  </sodipodi:namedview>
  <defs
     id="defs4">
    <style
       id="style2">.cls-1{fill:#00c8aa;}</style>
  </defs>
  <title
     id="title6">meemoo-secondary_logo_lockup-pos-rgb</title>
  <path
     id="symbol"
     class="cls-1"
     d="m 227.92271,160.54254 a 0.08323,0.08323 0 0 1 0.0898,0.0898 V 262.31583 H 348.63419 V 45.70062 H 228.01255 v 101.68322 c 0,0 0,0.0811 -0.11288,0.0811 a 0.07626,0.07626 0 0 1 -0.0764,-0.0811 114.00794,114.00794 0 1 0 0,13.24853 0.09,0.09 0 0 1 0.0994,-0.0898 z"
     inkscape:connector-curvature="0"
     style="fill:#00c8aa" />
  <path
     id="meemoo"
     d="m 685.90405,92.17046 v 85.15576 h -35.88433 v -73.563 c 0,-19.32129 -9.79907,-29.94873 -26.08483,-29.94873 -15.45777,0 -28.29346,10.0752 -28.29346,30.22559 v 73.28613 h -36.022 v -73.563 c 0,-19.32129 -9.661,-29.94873 -26.08484,-29.94873 -15.45777,0 -28.29346,10.0752 -28.29346,30.22559 v 73.28613 h -36.022 V 43.58892 h 35.05591 V 59.3228 c 9.523,-14.21631 24.15271,-19.32275 39.33471,-19.32275 19.322,0 35.194,8.69531 44.165,22.91162 10.351,-16.97607 27.87891,-22.91162 45.40686,-22.91162 31.46788,0 52.72244,21.11719 52.72244,52.17041 z m 152.755,18.08057 a 103.24248,103.24248 0 0 1 -0.68994,12.145 h -94.81682 c 3.86426,19.32275 17.3899,27.74121 34.366,27.74121 11.59314,0 24.15271,-4.69336 33.81372,-12.835 l 21.11646,23.18555 c -15.18164,13.93945 -34.504,20.28809 -57.00074,20.28809 -40.99035,0 -69.42187,-27.87891 -69.42187,-69.97266 C 706.02586,68.70801 733.62901,40 773.65367,40 c 38.50631,5e-5 64.86728,28.57036 65.00538,70.25103 z m -95.3687,-12.42186 h 59.20862 C 799.18659,80.7154 788.83528,71.05476 773.37751,71.05476 c -16.97571,-2e-5 -26.91284,10.21287 -30.08716,26.77441 z m 240.8185,12.42188 a 103.32014,103.32014 0 0 1 -0.69,12.145 h -94.8167 c 3.8642,19.32275 17.3899,27.74121 34.366,27.74121 11.5931,0 24.1527,-4.69336 33.8137,-12.835 l 21.1164,23.18555 c -15.1816,13.93945 -34.504,20.28809 -57.0003,20.28809 -40.9907,0 -69.42226,-27.87891 -69.42226,-69.97266 0,-42.09521 27.60316,-70.80322 67.62786,-70.80322 38.5063,3e-5 64.8672,28.57034 65.0053,70.25101 z m -95.3687,-12.42188 h 59.2087 c -3.3124,-17.11377 -13.6637,-26.77441 -29.1215,-26.77441 -16.9757,-2e-5 -26.9128,10.21287 -30.0872,26.77441 z M 1221.891,92.17048 v 85.15576 h -35.8843 v -73.563 c 0,-19.32129 -9.799,-29.94873 -26.0848,-29.94873 -15.4578,0 -28.2935,10.0752 -28.2935,30.22559 v 73.28613 h -36.022 v -73.563 c 0,-19.32129 -9.661,-29.94873 -26.0848,-29.94873 -15.4578,0 -28.2935,10.0752 -28.2935,30.22559 v 73.28613 h -36.022 V 43.58892 h 35.0559 V 59.3228 c 9.523,-14.21631 24.1528,-19.32275 39.3348,-19.32275 19.322,0 35.194,8.69531 44.165,22.91162 10.351,-16.97607 27.8789,-22.91162 45.4068,-22.91162 31.4679,0 52.7224,21.11719 52.7224,52.17041 z m 164.7623,18.21826 c 0,40.30078 -30.7774,70.38721 -72.4581,70.38721 -41.5426,0 -72.1824,-30.08643 -72.1824,-70.38721 0,-40.30078 30.6398,-70.38867 72.1824,-70.38867 41.6807,-2e-5 72.4581,30.08787 72.4581,70.38865 z m -107.9282,0 c 0,21.668 15.1817,36.84961 35.4701,36.84961 20.2885,0 35.6082,-15.18164 35.6082,-36.84961 0,-21.66797 -15.3197,-36.85107 -35.6082,-36.85107 -20.2884,0 -35.4701,15.18308 -35.4701,36.85105 z m 265.3847,0 c 0,40.30078 -30.7775,70.38721 -72.4582,70.38721 -41.5426,0 -72.1823,-30.08643 -72.1823,-70.38721 0,-40.30078 30.6397,-70.38867 72.1823,-70.38867 41.6807,-2e-5 72.4582,30.08787 72.4582,70.38865 z m -107.9283,0 c 0,21.668 15.1817,36.84961 35.4701,36.84961 20.2885,0 35.6082,-15.18164 35.6082,-36.84961 0,-21.66797 -15.3197,-36.85107 -35.6082,-36.85107 -20.2884,0 -35.4701,15.18308 -35.4701,36.85105 z"
     inkscape:connector-curvature="0" />
  <path
     id="vlaams_instituut_voor_het_archief"
     data-name="vlaams instituut voor het archief"
     d="m 507.41828,225.34966 -14.18223,41.97656 h -9.83459 l -14.18225,-41.97656 h 8.69531 l 10.46411,33.041 10.52417,-33.041 z m 31.65345,34.36084 v 7.61572 h -27.405 v -41.97656 h 8.21557 v 34.36084 z m 28.801,-1.88965 H 552.4311 l -3.05823,9.50537 h -8.5155 l 14.51221,-41.97656 h 9.71447 l 14.5122,41.97656 h -8.66528 z m -2.42871,-7.46484 -5.30713,-16.43116 -5.2771,16.43116 z m 42.11792,7.46484 h -15.44163 l -3.05823,9.50537 h -8.5155 l 14.51221,-41.97656 h 9.71447 l 14.51221,41.97656 h -8.66528 z m -2.42871,-7.46484 -5.30713,-16.43116 -5.2771,16.43116 z m 60.5874,16.97021 h -8.15551 v -30.8833 l -8.755,24.1377 h -8.33533 l -8.75537,-24.01758 v 30.76318 h -8.18554 v -41.97656 h 11.57373 l 9.53466,25.51611 9.53467,-25.51611 h 11.5437 z m 33.15894,-31.54248 a 17.27335,17.27335 0 0 0 -10.22461,-3.44824 c -3.98767,0 -6.83606,1.76953 -6.83606,4.79736 0,2.81836 2.90845,4.01807 7.46594,5.0669 l 2.4884,0.56982 c 7.31617,1.67871 11.87366,5.33789 11.87366,11.96338 0,8.84473 -7.2561,13.25244 -15.80127,13.25244 -6.32666,0 -12.14355,-2.12842 -16.01147,-5.69678 l 4.73767,-6.17578 a 17.20626,17.20626 0 0 0 11.2738,4.25684 c 4.04773,0 7.07593,-1.73877 7.07593,-4.85742 0,-2.7583 -2.39868,-4.01661 -7.196,-5.0669 l -2.72828,-0.59912 c -7.70581,-1.68018 -11.81359,-5.69678 -11.81359,-12.353 0,-7.73584 6.41638,-12.8042 15.26147,-12.8042 a 24.09333,24.09333 0 0 1 14.75208,4.76807 z m 31.68823,31.54248 h -8.21558 v -41.97656 h 8.21558 z m 41.74512,0 h -7.85557 l -18.11023,-27.28564 v 27.28564 h -8.15552 v -41.97656 h 7.85559 l 18.14026,27.34424 v -27.34424 h 8.12549 z m 33.1549,-31.54248 a 17.27332,17.27332 0 0 0 -10.2246,-3.44824 c -3.98768,0 -6.83606,1.76953 -6.83606,4.79736 0,2.81836 2.90844,4.01807 7.46594,5.0669 l 2.4884,0.56982 c 7.31616,1.67871 11.87366,5.33789 11.87366,11.96338 0,8.84473 -7.2561,13.25244 -15.80127,13.25244 -6.32666,0 -12.14356,-2.12842 -16.01111,-5.69678 l 4.73731,-6.17578 a 17.20626,17.20626 0 0 0 11.2738,4.25684 c 4.04773,0 7.07593,-1.73877 7.07593,-4.85742 0,-2.7583 -2.39868,-4.01661 -7.19605,-5.0669 l -2.72827,-0.59912 c -7.70581,-1.68018 -11.8136,-5.69678 -11.8136,-12.353 0,-7.73584 6.41638,-12.8042 15.26148,-12.8042 a 24.09318,24.09318 0 0 1 14.75207,4.76807 z m 38.78834,-2.81836 h -11.48363 v 34.36084 h -8.21557 v -34.36084 h -11.48365 v -7.61572 h 31.18287 z m 12.81999,34.36084 h -8.2156 v -41.97656 h 8.2156 z m 35.7487,-34.36084 h -11.4836 v 34.36084 h -8.2156 v -34.36084 h -11.4836 v -7.61572 h 31.1829 z m 36.9269,18.98 c 0,10.25391 -6.2962,16.04 -16.3407,16.04 -10.0448,0 -16.3711,-5.78613 -16.3711,-16.04 v -26.5957 h 8.2156 v 26.17529 c 0,5.84619 3.2981,8.5459 8.1555,8.5459 4.8571,0 8.1555,-2.69971 8.1555,-8.5459 v -26.17531 h 8.1852 z m 39.5991,0 c 0,10.25391 -6.2962,16.04 -16.3407,16.04 -10.0448,0 -16.3711,-5.78613 -16.3711,-16.04 v -26.5957 h 8.2156 v 26.17529 c 0,5.84619 3.2981,8.5459 8.1555,8.5459 4.8571,0 8.1556,-2.69971 8.1556,-8.5459 v -26.17531 h 8.1851 z m 35.40155,-18.98 h -11.48355 v 34.36084 h -8.2156 v -34.36084 h -11.4836 v -7.61572 h 31.18285 z m 50.5459,-7.61572 -14.1822,41.97656 h -9.8346 l -14.1823,-41.97656 h 8.6954 l 10.4641,33.041 10.5241,-33.041 z m 39.9877,20.98828 c 0,13.043 -7.8556,21.67822 -19.459,21.67822 -11.6038,0 -19.4593,-8.63525 -19.4593,-21.67822 0,-13.04297 7.8555,-21.67822 19.4593,-21.67822 11.6034,0 19.459,8.63525 19.459,21.67822 z m -30.4032,0 c 0,8.60449 4.4974,13.73291 10.9442,13.73291 6.4464,0 10.9439,-5.12842 10.9439,-13.73291 0,-8.606 -4.4975,-13.73291 -10.9439,-13.73291 -6.4467,0 -10.9442,5.12695 -10.9442,13.73291 z m 73.8431,0 c 0,13.043 -7.8555,21.67822 -19.459,21.67822 -11.6037,0 -19.4593,-8.63525 -19.4593,-21.67822 0,-13.04297 7.8556,-21.67822 19.4593,-21.67822 11.6035,0 19.4591,8.63525 19.4591,21.67822 z m -30.4031,0 c 0,8.60449 4.4974,13.73291 10.9442,13.73291 6.4464,0 10.9438,-5.12842 10.9438,-13.73291 0,-8.606 -4.4974,-13.73291 -10.9438,-13.73291 -6.4468,0 -10.9442,5.12695 -10.9442,13.73291 z m 46.768,4.46777 h -2.0687 v 16.52051 h -8.2156 v -41.97656 h 15.6515 c 9.3849,0 14.692,4.85742 14.692,12.95215 0,6.627 -4.1678,11.18408 -11.2441,12.26367 l 11.5737,16.76074 h -9.6548 z m -2.0687,-6.98584 h 7.3458 c 3.988,0 6.3867,-1.80029 6.3867,-5.51806 0,-3.687 -2.4587,-5.42725 -6.3867,-5.42725 h -7.3458 z m 74.1456,-18.47021 v 41.97656 h -8.1855 V 249.9356 h -16.9105 v 17.39062 h -8.2156 v -41.97656 h 8.2156 v 17.001 h 16.9105 v -17.001 z m 35.4928,34.51025 v 7.46631 h -27.8547 v -41.97656 h 27.7646 v 7.46484 h -19.549 v 9.59473 h 18.5299 v 7.46631 h -18.5299 v 9.98437 z m 35.0094,-26.89453 h -11.4836 v 34.36084 h -8.2156 v -34.36084 h -11.4836 v -7.61572 h 31.1828 z m 39.5424,24.85547 h -15.4417 l -3.0582,9.50537 h -8.5155 l 14.5122,-41.97656 h 9.7145 l 14.5122,41.97656 h -8.6653 z m -2.4287,-7.46484 -5.3072,-16.43116 -5.2771,16.43116 z m 28.6849,0.4497 h -2.0687 v 16.52051 h -8.2156 v -41.97656 h 15.6515 c 9.3849,0 14.692,4.85742 14.692,12.95215 0,6.627 -4.1679,11.18408 -11.2442,12.26367 l 11.5738,16.76074 h -9.6548 z m -2.0687,-6.98584 h 7.3458 c 3.988,0 6.3867,-1.80029 6.3867,-5.51806 0,-3.687 -2.4587,-5.42725 -6.3867,-5.42725 h -7.3458 z m 61.9662,-9.68554 -7.0763,3.86865 a 9.91675,9.91675 0 0 0 -8.9949,-5.398 c -6.2966,0 -10.8241,5.127 -10.8241,13.73291 0.03,8.90478 4.7673,13.73291 10.8541,13.73291 a 10.14567,10.14567 0 0 0 9.055,-5.36719 l 6.7763,4.2876 a 17.45222,17.45222 0 0 1 -15.8313,9.0249 c -11.5136,0 -19.3692,-8.5459 -19.3692,-21.67822 0,-13.13232 7.8556,-21.67822 19.3692,-21.67822 7.106,5e-5 13.1027,3.50835 16.0412,9.47466 z m 38.8498,-8.78467 v 41.97656 h -8.1855 V 249.9356 h -16.9106 v 17.39062 h -8.2155 v -41.97656 h 8.2155 v 17.001 h 16.9106 v -17.001 z m 15.8537,41.97656 h -8.2156 v -41.97656 h 8.2156 z m 35.4785,-7.46631 v 7.46631 h -27.8548 v -41.97656 h 27.7647 v 7.46484 h -19.5491 v 9.59473 h 18.5299 v 7.46631 h -18.5299 v 9.98437 z m 15.1003,-27.04541 v 9.92578 h 17.9601 v 7.46489 h -17.9601 v 17.12109 h -8.2156 v -41.9766 h 27.4351 v 7.46484 z"
     inkscape:connector-curvature="0" />
</svg>
