<svg viewBox="0 0 1547.9 308"
	 xmlns="http://www.w3.org/2000/svg"
	 height="308" width="1547.9">
	<path
			d="M228 161v101h121V46H228v101a114 114 0 1 0 0 14z" fill="#00c8aa"/>
	<path
			d="M686 92v85h-36v-73c0-20-10-30-26-30s-28 10-28 30v73h-36v-73c0-20-10-30-26-30s-29 10-29 30v73h-36V44h35v15c10-14 24-19 40-19 19 0 35 9 44 23 10-17 28-23 45-23 32 0 53 21 53 52zm153 18a103 103 0 0 1-1 12h-95c4 20 18 28 35 28 11 0 24-5 33-13l21 23a81 81 0 0 1-57 21c-41 0-69-28-69-70s28-71 68-71c38 0 65 29 65 70zm-96-12h59c-3-17-13-27-29-27-17 0-27 10-30 27zm241 12a103 103 0 0 1-1 12h-94c3 20 17 28 34 28 12 0 24-5 34-13l21 23a81 81 0 0 1-57 21c-41 0-70-28-70-70s28-71 68-71c39 0 65 29 65 70zm-95-12h59c-3-17-14-27-29-27-17 0-27 10-30 27zm333-6v85h-36v-73c0-20-10-30-26-30s-28 10-28 30v73h-36v-73c0-20-10-30-26-30s-29 10-29 30v73h-36V44h35v15c10-14 24-19 40-19 19 0 35 9 44 23 10-17 28-23 45-23 32 0 53 21 53 52zm165 18c0 41-31 71-73 71-41 0-72-30-72-71 0-40 31-70 72-70 42 0 73 30 73 70zm-108 0c0 22 15 37 35 37s36-15 36-37c0-21-16-36-36-36s-35 15-35 36zm265 0c0 41-31 71-72 71-42 0-73-30-73-71 0-40 31-70 73-70 41 0 72 30 72 70zm-108 0c0 22 15 37 36 37 20 0 35-15 35-37 0-21-15-36-35-36-21 0-36 15-36 36z"/>
	<path
			d="m507 225-14 42h-10l-14-42h9l10 33 11-33zm32 35v7h-27v-42h8v35zm29-2h-16l-3 9h-8l14-42h10l15 42h-9zm-3-8-5-16-5 16zm43 8h-16l-3 9h-8l14-42h10l14 42h-8zm-3-8-5-16-5 16zm61 17h-8v-31l-9 25h-9l-8-24v30h-8v-42h11l10 26 9-26h12zm33-31a17 17 0 0 0-10-4c-4 0-7 2-7 5s3 4 7 5l3 1c7 1 12 5 12 12 0 9-8 13-16 13-6 0-12-2-16-6l5-6a17 17 0 0 0 11 4c4 0 7-1 7-4s-2-5-7-6h-3c-8-2-12-6-12-13s7-12 15-12a24 24 0 0 1 15 4zm32 31h-9v-42h9zm41 0h-8l-18-27v27h-8v-42h8l18 28v-28h8zm33-31a17 17 0 0 0-10-4c-4 0-7 2-7 5s3 4 8 5l2 1c8 1 12 5 12 12 0 9-7 13-16 13-6 0-12-2-16-6l5-6a17 17 0 0 0 11 4c4 0 8-1 8-4s-3-5-8-6h-2c-8-2-12-6-12-13s6-12 15-12a24 24 0 0 1 15 4zm39-3h-11v34h-8v-34h-12v-8h31zm13 34h-8v-42h8zm36-34h-12v34h-8v-34h-11v-8h31zm37 19c0 10-7 16-17 16s-16-6-16-16v-27h8v27c0 5 4 8 8 8 5 0 9-3 9-8v-27h8zm39 0c0 10-6 16-16 16s-16-6-16-16v-27h8v27c0 5 3 8 8 8s8-3 8-8v-27h8zm36-19h-12v34h-8v-34h-11v-8h31zm50-8-14 42h-10l-14-42h9l10 33 11-33zm40 21c0 13-8 22-19 22-12 0-20-9-20-22s8-21 20-21c11 0 19 8 19 21zm-30 0c0 9 4 14 11 14 6 0 11-5 11-14 0-8-5-13-11-13-7 0-11 5-11 13zm74 0c0 13-8 22-20 22-11 0-19-9-19-22s8-21 19-21c12 0 20 8 20 21zm-31 0c0 9 5 14 11 14 7 0 11-5 11-14 0-8-4-13-11-13-6 0-11 5-11 13zm47 5h-2v16h-8v-42h15c10 0 15 5 15 13 0 7-4 11-11 13l11 16h-9zm-2-7h7c4 0 7-2 7-6 0-3-3-5-7-5h-7zm74-19v42h-8v-17h-17v17h-8v-42h8v17h17v-17zm36 35v7h-28v-42h28v8h-20v9h19v8h-19v10zm35-27h-12v34h-8v-34h-12v-8h32zm39 25h-15l-3 9h-9l15-42h9l15 42h-9zm-2-8-6-16-5 16zm28 1h-2v16h-8v-42h16c9 0 15 5 15 13 0 7-5 11-12 13l12 16h-10zm-2-7h8c4 0 6-2 6-6 0-3-2-5-6-5h-8zm62-10-7 4a10 10 0 0 0-9-5c-6 0-11 5-11 13 1 9 5 14 11 14a10 10 0 0 0 9-5l7 4a17 17 0 0 1-16 9c-11 0-19-9-19-22s8-21 19-21c7 0 13 3 16 9zm39-9v42h-8v-17h-17v17h-8v-42h8v17h17v-17zm16 42h-8v-42h8zm36-7v7h-28v-42h27v8h-19v9h18v8h-18v10zm15-27v10h18v7h-18v17h-9v-42h28v8z"
			data-name="vlaams instituut voor het archief"/>
</svg>
