<?xml version="1.0" encoding="utf-8"?>
<svg width="283.5px" height="110px" enable-background="new 0 0 283.5 283.5" version="1.1" viewBox="0 0 218.36 84.65" xmlns="http://www.w3.org/2000/svg">
  <style type="text/css">.st0{fill:#FFED00;}
        .st1{fill:#F6F6F3;}
        .st2{fill:#373636;}
    </style>
  <g transform="translate(-32.5 -99.2)">
    <polygon class="st0" points="79.8 99.2 108.7 184.2 32.5 184.2 32.5 99.2"/>
    <polygon class="st1" points="251 184.2 108.7 184.2 79.8 99.2 251 99.2"/>
    <path class="st2" d="m79.9 142.5c-2.1-1.6-3.1 0-4.4-0.1-1.1-0.1-2.1-1.9-3-1.4-1.6 0.8 0.7 3.7 1.6 4.3 0.9 0.5 2 1 2.3 1.1 1.3 0.6 1.8 1.5 2 3 0 0.3 0 1.1-0.1 1.4-0.6 2.5-5 4.8-7.6 3.1-1.2-0.8-2.3-1.9-2.7-3.8-0.7-3.3-3.1-5.8-3.9-9-0.5-2-0.8-4.1-1.3-6-0.5-2.1-1.1-4.1-1.5-6-0.4-1.7-1.2-4.3-1.8-5.9-2.4-6.3-3.5-5.9-3.5-5.9s0.9 1.8 4.1 17.3c0.1 0.6 1.3 7.5 2.2 9.7 0.3 0.8 0.8 2.5 1.2 3.3 1 2.2 3.7 5.6 3.9 8.6 0.1 1.8 0.3 3.2 0.3 4.5 0 0.4 0.2 2 0.5 2.7 0.7 1.9 6 7.8 11.6 7.8v-4.5c-5.6 0-10.9-3.1-11-3.5-0.1-0.1 0.3-2.3 0.7-3.3 0.7-1.8 2.1-3.5 4.6-3.7 2.7-0.2 4.4 0.6 5.8 0.6v-14.3z"/>
    <path class="st2" d="m55.4 126c-0.2 3.4-5.5 8-7.1 11-0.8 1.5-1.8 4-2 5.4-0.7 4.1 0.2 6.6 1.2 9 1.7 4.2-0.2 5.7 1.1 4.9 1.7-1.4 1.4-4.6 1.3-6.6-0.1-1.6-0.2-3.5 0-5.4 0.5-3.6 2.7-7.5 4.5-10.2 2.3-3.3 1.5-6.6 1-8.1z"/>
    <path class="st2" d="m56.5 135.6s0.6 2.7-1.8 9.6c-6.2 18.1 5.7 19.8 9 24.1 0 0 1.3-1.8-4.1-7.7-2-2.2-3.7-6.9-2.2-13.7 2.3-9.9-0.9-12.3-0.9-12.3z"/>
    <path class="st2" d="m44.8 123.7c-0.3-1.1-0.4-2-0.3-2.9 0.3-4.3 4.2-6 5.1-6.6 0 0 1.7-1.2 2-2.4 0 0 1.8 4.5-2.3 7-2.2 1.4-3.6 2.9-4.5 4.9z"/>
    <path class="st2" d="m54.5 119.6c0.2 0.4 1.8 2.8-4.7 8.2s-4.5 9.3-4.5 9.3-7-3.9 1.1-10.6c8-6.7 6.4-8.1 6.4-8.1s1.1 0 1.7 1.2z"/>
    <path class="st2" d="m63 121.7c1.1 0.1 1.9 3.7 4.5 4.5 1.9 0.6 4 0.3 4.4 1.4-0.9 0.5-0.2 2 0.7 1.8 0.8-2.1 1.1-10.1-9.6-7.7zm3.5 1.6c0.1-0.3 0.2 0 0.5-0.2 0.3-0.3 0.6-0.8 1.1-0.9 0.4-0.1 0.8-0.1 1.2 0.1 0.2 0.1 0.1 0.6-0.1 0.8-0.4 0.3-1.4-0.2-1.4 0.6 0 1.3 1.7 0 2.6 0 0.5 3-4.6 2.2-3.9-0.4z"/>
    <path class="cls-1" d="M 109.64 156.612 L 109.669 156.612 C 109.949 156.735 110.345 156.843 110.77 156.929 C 111.194 157.015 111.662 157.073 112.13 157.073 C 112.785 157.073 113.425 156.951 113.9 156.677 C 114.375 156.396 114.691 155.936 114.691 155.231 C 114.691 154.482 114.346 154.043 113.706 153.64 C 113.267 153.36 112.655 153.065 112.065 152.77 C 111.482 152.475 110.914 152.194 110.583 151.921 C 110.043 151.489 109.698 150.791 109.698 149.783 C 109.698 148.661 110.122 147.905 110.77 147.43 C 111.417 146.956 112.281 146.768 113.166 146.768 C 113.857 146.768 114.526 146.891 115.138 147.063 L 115.138 148.186 L 115.109 148.2 C 114.598 148.1 113.878 147.97 113.166 147.97 C 112.59 147.97 112.029 148.057 111.604 148.308 C 111.18 148.56 110.899 148.999 110.899 149.676 C 110.899 150.23 111.079 150.575 111.381 150.848 C 111.676 151.115 112.18 151.367 112.756 151.654 C 113.331 151.942 113.972 152.259 114.512 152.604 C 114.907 152.87 115.267 153.122 115.512 153.489 C 115.756 153.864 115.908 154.324 115.908 154.943 C 115.908 156.087 115.404 156.929 114.663 157.483 C 113.914 158.037 112.914 158.296 111.921 158.296 C 111.108 158.296 110.316 158.138 109.64 157.807 L 109.64 156.62 L 109.64 156.612 Z" style="fill: rgb(52, 52, 51); stroke-width: 0px;"/>
    <path class="cls-1" d="M 117.03 149.316 L 118.009 149.316 L 118.009 147.74 L 119.239 147.51 L 119.326 147.51 L 119.326 149.316 L 121.772 149.316 L 121.772 150.539 L 119.326 150.539 L 119.326 154.871 C 119.326 155.677 119.505 156.224 119.786 156.576 C 120.067 156.936 120.462 157.087 120.916 157.087 C 121.427 157.087 121.995 156.893 122.571 156.562 L 122.931 157.764 C 122.182 158.102 121.448 158.296 120.758 158.296 C 119.988 158.296 119.311 158.059 118.815 157.505 C 118.311 156.965 118.016 156.094 118.016 154.864 L 118.016 150.532 L 117.037 150.532 L 117.037 149.309 L 117.03 149.316 Z" style="fill: rgb(52, 52, 51); stroke-width: 0px;"/>
    <path class="cls-1" d="M 130.616 158.296 C 129.997 158.095 129.565 157.641 129.285 157.066 C 128.982 157.411 128.587 157.72 128.14 157.936 C 127.694 158.159 127.155 158.296 126.572 158.296 C 125.989 158.296 125.276 158.167 124.708 157.764 C 124.132 157.353 123.715 156.677 123.715 155.583 C 123.715 154.77 123.952 154.13 124.492 153.691 C 125.032 153.259 125.874 153.036 127.075 153.036 C 127.55 153.036 128.068 153.072 128.853 153.137 L 128.853 152.043 C 128.853 151.388 128.666 150.956 128.371 150.705 C 128.068 150.453 127.644 150.366 127.191 150.366 C 126.737 150.366 126.32 150.41 125.881 150.503 C 125.449 150.604 125.017 150.755 124.542 150.992 L 124.204 149.848 C 124.787 149.611 125.248 149.438 125.73 149.323 C 126.205 149.201 126.716 149.15 127.421 149.15 C 128.126 149.15 128.838 149.309 129.342 149.755 C 129.846 150.194 130.162 150.92 130.162 152.043 L 130.162 154.842 C 130.162 155.31 130.191 155.778 130.357 156.173 C 130.529 156.584 130.832 156.893 131.378 157.066 L 130.63 158.296 L 130.616 158.296 Z M 128.838 154.245 C 127.622 154.238 126.665 154.216 126.01 154.382 C 125.356 154.554 125.003 154.893 125.003 155.576 C 125.003 156.224 125.298 156.598 125.636 156.807 C 125.967 157.015 126.327 157.073 126.457 157.073 C 126.924 157.073 127.514 157.015 127.996 156.706 C 128.471 156.411 128.838 155.886 128.838 154.957 L 128.838 154.245 Z" style="fill: rgb(52, 52, 51); stroke-width: 0px;"/>
    <path class="cls-1" d="M 132.055 149.316 L 133.034 149.316 L 133.034 147.74 L 134.264 147.51 L 134.35 147.51 L 134.35 149.316 L 136.797 149.316 L 136.797 150.539 L 134.35 150.539 L 134.35 154.871 C 134.35 155.677 134.53 156.224 134.811 156.576 C 135.092 156.936 135.487 157.087 135.941 157.087 C 136.452 157.087 137.02 156.893 137.596 156.562 L 137.955 157.764 C 137.207 158.102 136.473 158.296 135.782 158.296 C 135.012 158.296 134.336 158.059 133.839 157.505 C 133.336 156.965 133.041 156.094 133.041 154.864 L 133.041 150.532 L 132.062 150.532 L 132.062 149.309 L 132.055 149.316 Z" style="fill: rgb(52, 52, 51); stroke-width: 0px;"/>
    <path class="cls-1" d="M 145.525 154.051 L 140.035 154.051 C 140.1 155.072 140.46 155.828 140.978 156.324 C 141.496 156.828 142.194 157.073 142.949 157.073 C 143.705 157.073 144.518 156.85 145.324 156.447 L 145.353 156.447 L 145.353 157.67 C 144.439 158.116 143.64 158.296 142.827 158.296 C 141.733 158.296 140.704 157.929 139.956 157.166 C 139.208 156.404 138.733 155.238 138.733 153.612 C 138.733 152.352 139.02 151.23 139.639 150.431 C 140.251 149.632 141.194 149.15 142.518 149.15 C 143.424 149.15 144.05 149.381 144.504 149.748 C 144.943 150.115 145.209 150.611 145.353 151.165 C 145.497 151.719 145.533 152.316 145.533 152.87 L 145.533 154.058 L 145.525 154.051 Z M 144.237 152.863 C 144.23 152.187 144.137 151.568 143.87 151.108 C 143.604 150.647 143.172 150.366 142.489 150.366 C 141.805 150.366 141.287 150.633 140.877 151.072 C 140.467 151.51 140.208 152.144 140.1 152.863 L 144.245 152.863 L 144.237 152.863 Z" style="fill: rgb(52, 52, 51); stroke-width: 0px;"/>
    <path class="cls-1" d="M 151.879 153.741 C 151.879 152.46 152.304 151.316 153.023 150.481 C 153.736 149.647 154.758 149.143 155.952 149.143 C 157.147 149.143 158.168 149.661 158.866 150.481 C 159.564 151.302 159.96 152.439 159.96 153.698 C 159.96 154.957 159.543 156.116 158.83 156.951 C 158.111 157.785 157.082 158.289 155.887 158.289 C 154.693 158.289 153.678 157.771 152.987 156.951 C 152.289 156.137 151.887 155 151.887 153.741 L 151.879 153.741 Z M 153.196 153.676 C 153.196 154.59 153.426 155.447 153.894 156.058 C 154.362 156.677 155.045 157.066 155.967 157.066 C 156.888 157.066 157.521 156.706 157.967 156.123 C 158.413 155.54 158.643 154.705 158.643 153.763 C 158.643 152.82 158.413 151.978 157.967 151.359 C 157.521 150.741 156.837 150.359 155.923 150.359 C 155.009 150.359 154.362 150.719 153.901 151.309 C 153.441 151.906 153.196 152.741 153.196 153.669 L 153.196 153.676 Z" style="fill: rgb(52, 52, 51); stroke-width: 0px;"/>
    <path class="cls-1" d="M 160.996 149.316 L 162.421 149.316 L 162.421 149.28 C 162.421 147.985 162.702 147.114 163.17 146.581 C 163.637 146.049 164.299 145.833 165.055 145.833 C 165.702 145.833 166.393 145.977 167.12 146.207 L 166.76 147.359 C 166.185 147.164 165.652 147.042 165.206 147.042 C 164.76 147.042 164.4 147.179 164.148 147.517 C 163.896 147.862 163.738 148.423 163.738 149.273 L 163.738 149.309 L 165.731 149.309 L 165.731 150.525 L 163.738 150.525 L 163.738 158.123 L 162.421 158.123 L 162.421 150.525 L 160.996 150.525 L 160.996 149.309 L 160.996 149.316 Z" style="fill: rgb(52, 52, 51); stroke-width: 0px;"/>
    <path class="cls-1" d="M 171.56 149.316 L 172.538 149.316 L 172.538 147.74 L 173.769 147.51 L 173.855 147.51 L 173.855 149.316 L 176.302 149.316 L 176.302 150.539 L 173.855 150.539 L 173.855 154.871 C 173.855 155.677 174.035 156.224 174.316 156.576 C 174.596 156.936 174.992 157.087 175.446 157.087 C 175.956 157.087 176.525 156.893 177.101 156.562 L 177.46 157.764 C 176.712 158.102 175.978 158.296 175.287 158.296 C 174.517 158.296 173.848 158.059 173.344 157.505 C 172.841 156.965 172.546 156.094 172.546 154.864 L 172.546 150.532 L 171.567 150.532 L 171.567 149.309 L 171.56 149.316 Z" style="fill: rgb(52, 52, 51); stroke-width: 0px;"/>
    <path class="cls-1" d="M 178.907 146.006 L 180.137 145.833 L 180.224 145.833 L 180.224 150.007 C 180.569 149.798 180.994 149.575 181.425 149.409 C 181.857 149.251 182.289 149.136 182.67 149.136 C 183.512 149.136 184.282 149.345 184.858 149.877 C 185.426 150.402 185.786 151.237 185.786 152.482 L 185.786 158.116 L 184.469 158.116 L 184.469 152.547 C 184.469 151.698 184.246 151.144 183.908 150.805 C 183.562 150.474 183.073 150.345 182.541 150.345 C 182.13 150.345 181.72 150.446 181.317 150.611 C 180.922 150.784 180.555 150.992 180.216 151.194 L 180.216 158.109 L 178.9 158.109 L 178.9 145.991 L 178.907 146.006 Z" style="fill: rgb(52, 52, 51); stroke-width: 0px;"/>
    <path class="cls-1" d="M 194.558 154.051 L 189.067 154.051 C 189.132 155.072 189.492 155.828 190.01 156.324 C 190.528 156.828 191.226 157.073 191.981 157.073 C 192.737 157.073 193.55 156.85 194.356 156.447 L 194.385 156.447 L 194.385 157.67 C 193.471 158.116 192.672 158.296 191.859 158.296 C 190.765 158.296 189.736 157.929 188.988 157.166 C 188.24 156.404 187.765 155.238 187.765 153.612 C 187.765 152.352 188.053 151.23 188.671 150.431 C 189.283 149.632 190.226 149.15 191.55 149.15 C 192.456 149.15 193.082 149.381 193.536 149.748 C 193.975 150.115 194.241 150.611 194.385 151.165 C 194.529 151.719 194.565 152.316 194.565 152.87 L 194.565 154.058 L 194.558 154.051 Z M 193.27 152.863 C 193.262 152.187 193.169 151.568 192.903 151.108 C 192.636 150.647 192.205 150.366 191.521 150.366 C 190.837 150.366 190.319 150.633 189.909 151.072 C 189.499 151.51 189.24 152.144 189.132 152.863 L 193.277 152.863 L 193.27 152.863 Z" style="fill: rgb(52, 52, 51); stroke-width: 0px;"/>
    <path class="cls-1" d="M 207.647 155.519 L 202.71 155.519 L 201.811 158.123 L 200.451 158.123 L 204.293 146.934 L 206.049 146.934 L 209.899 158.123 L 208.539 158.123 L 207.64 155.519 L 207.647 155.519 Z M 203.121 154.295 L 207.229 154.295 L 205.179 148.344 L 203.128 154.295 L 203.121 154.295 Z" style="fill: rgb(52, 52, 51); stroke-width: 0px;"/>
    <path class="cls-1" d="M 211.511 149.316 L 212.396 149.316 L 212.698 150.316 C 213.353 149.56 214.044 149.143 214.864 149.143 C 215.073 149.143 215.339 149.172 215.605 149.222 C 215.872 149.273 216.123 149.359 216.325 149.452 L 215.864 150.633 C 215.533 150.474 215.015 150.359 214.648 150.359 C 213.878 150.359 213.274 150.848 212.821 151.539 L 212.821 158.123 L 211.504 158.123 L 211.504 149.316 L 211.511 149.316 Z" style="fill: rgb(52, 52, 51); stroke-width: 0px;"/>
    <path class="cls-1" d="M 216.965 149.316 L 217.944 149.316 L 217.944 147.74 L 219.174 147.51 L 219.261 147.51 L 219.261 149.316 L 221.707 149.316 L 221.707 150.539 L 219.261 150.539 L 219.261 154.871 C 219.261 155.677 219.441 156.224 219.721 156.576 C 220.002 156.936 220.398 157.087 220.851 157.087 C 221.362 157.087 221.93 156.893 222.506 156.562 L 222.866 157.764 C 222.117 158.102 221.383 158.296 220.693 158.296 C 219.923 158.296 219.254 158.059 218.75 157.505 C 218.246 156.965 217.951 156.094 217.951 154.864 L 217.951 150.532 L 216.972 150.532 L 216.972 149.309 L 216.965 149.316 Z" style="fill: rgb(52, 52, 51); stroke-width: 0px;"/>
    <path class="cls-1" d="M 107.53 124.6 L 117.534 124.6 L 117.534 127.372 L 110.406 127.372 L 110.406 131.368 L 117.285 131.368 L 117.285 134.139 L 110.406 134.139 L 110.406 140.822 L 107.523 140.822 L 107.523 124.6 L 107.53 124.6 Z" style="fill: rgb(52, 52, 51); stroke-width: 0px;"/>
    <path class="cls-1" d="M 119.303 123.251 L 121.812 123.002 L 122.179 123.002 L 122.179 140.822 L 119.296 140.822 L 119.296 123.251 L 119.303 123.251 Z" style="fill: rgb(52, 52, 51); stroke-width: 0px;"/>
    <path class="cls-1" d="M 135.112 141.071 C 134.633 141.071 134.162 140.999 133.684 140.789 C 133.205 140.593 132.727 140.259 132.242 139.728 C 131.738 140.108 131.292 140.442 130.768 140.678 C 130.224 140.927 129.622 141.071 128.803 141.071 C 128.213 141.071 127.558 140.986 126.929 140.763 C 126.3 140.54 125.723 140.173 125.291 139.571 C 124.859 138.968 124.59 138.129 124.59 136.996 C 124.59 135.862 124.859 134.978 125.546 134.375 C 126.234 133.773 127.355 133.438 129.065 133.438 C 129.753 133.438 130.552 133.438 131.685 133.537 L 131.685 132.895 C 131.685 132.01 131.404 131.394 130.945 131.027 C 130.486 130.661 129.877 130.51 129.183 130.51 C 128.639 130.51 128.036 130.608 127.446 130.765 C 126.857 130.923 126.267 131.132 125.763 131.381 L 125.088 128.872 C 126.431 128.23 128.141 127.791 129.753 127.791 C 131.017 127.791 132.203 128.06 133.087 128.728 C 133.959 129.39 134.516 130.438 134.516 132.004 L 134.516 136.754 C 134.516 137.356 134.712 137.789 135.059 138.083 C 135.393 138.378 135.859 138.549 136.416 138.66 L 135.112 141.071 Z M 131.679 135.653 C 130.336 135.653 129.294 135.627 128.58 135.804 C 127.866 135.974 127.473 136.347 127.473 137.094 C 127.473 138.142 128.226 138.719 129.268 138.719 C 129.622 138.719 130.224 138.647 130.742 138.326 C 131.259 138.005 131.679 137.455 131.679 136.432 L 131.679 135.659 L 131.679 135.653 Z" style="fill: rgb(52, 52, 51); stroke-width: 0px;"/>
    <path class="cls-1" d="M 138.08 128.046 L 140.517 128.046 L 140.799 129.042 C 141.978 128.256 143.445 127.797 144.874 127.797 C 146.092 127.797 147.258 128.132 148.11 128.865 C 148.955 129.606 149.512 130.746 149.512 132.338 L 149.512 140.815 L 146.636 140.815 L 146.636 133.183 C 146.636 132.233 146.289 131.571 145.765 131.152 C 145.234 130.733 144.494 130.562 143.747 130.562 C 142.764 130.562 141.755 130.857 140.962 131.348 L 140.962 140.809 L 138.086 140.809 L 138.086 128.033 L 138.08 128.046 Z" style="fill: rgb(52, 52, 51); stroke-width: 0px;"/>
    <path class="cls-1" d="M 163.343 140.822 L 161.167 140.822 L 160.65 139.866 C 159.667 140.606 158.632 141.071 157.217 141.071 C 155.382 141.071 154.02 140.331 153.122 139.197 C 152.225 138.064 151.779 136.537 151.779 134.965 C 151.779 132.554 152.506 130.759 153.712 129.56 C 154.917 128.381 156.614 127.797 158.586 127.797 C 159.163 127.797 159.792 127.837 160.466 127.922 L 160.466 123.244 L 162.904 122.995 L 163.349 122.995 L 163.349 140.815 L 163.343 140.822 Z M 160.466 130.752 C 159.739 130.569 159.005 130.484 158.422 130.484 C 157.328 130.484 156.404 130.805 155.762 131.466 C 155.12 132.128 154.753 133.117 154.753 134.447 C 154.753 135.417 155.022 136.367 155.54 137.094 C 156.057 137.821 156.817 138.3 157.839 138.3 C 158.711 138.3 159.687 137.992 160.46 137.513 L 160.46 130.759 L 160.466 130.752 Z" style="fill: rgb(52, 52, 51); stroke-width: 0px;"/>
    <path class="cls-1" d="M 175.928 137.513 L 175.928 140.304 C 175.352 140.586 174.736 140.763 174.107 140.881 C 173.465 141.005 172.836 141.064 172.299 141.064 C 170.53 141.064 168.892 140.508 167.686 139.413 C 166.481 138.319 165.721 136.642 165.721 134.428 C 165.721 132.213 166.435 130.628 167.516 129.494 C 168.584 128.374 170.025 127.797 171.467 127.797 C 171.873 127.797 172.6 127.85 173.347 128.105 C 174.1 128.361 174.919 128.859 175.535 129.704 C 176.151 130.556 176.583 131.807 176.583 133.583 L 176.583 135.502 L 168.833 135.502 C 169.069 136.537 169.593 137.238 170.287 137.677 C 170.962 138.123 171.788 138.306 172.613 138.306 C 173.694 138.306 174.841 137.998 175.823 137.468 L 175.935 137.507 L 175.928 137.513 Z M 173.95 133.229 C 173.864 132.292 173.556 131.63 173.111 131.185 C 172.665 130.752 172.102 130.569 171.545 130.569 C 170.956 130.569 170.353 130.765 169.861 131.198 C 169.357 131.643 168.951 132.305 168.793 133.229 L 173.95 133.229 Z" style="fill: rgb(52, 52, 51); stroke-width: 0px;"/>
    <path class="cls-1" d="M 186.575 131.224 C 185.847 130.778 185.133 130.582 184.412 130.582 C 183.476 130.582 182.617 130.929 181.838 131.519 L 181.838 140.822 L 178.955 140.822 L 178.955 128.046 L 181.392 128.046 L 181.687 129.095 C 182.571 128.341 183.659 127.804 184.937 127.804 C 185.284 127.804 185.762 127.83 186.227 127.915 C 186.692 128.001 187.151 128.125 187.485 128.309 L 186.575 131.224 Z" style="fill: rgb(52, 52, 51); stroke-width: 0px;"/>
    <path class="cls-1" d="M 188.357 137.5 L 188.455 137.428 C 188.809 137.625 189.3 137.835 189.857 138.018 C 190.401 138.201 191.016 138.326 191.619 138.326 C 192.124 138.326 192.667 138.241 193.074 137.992 C 193.467 137.756 193.735 137.389 193.735 136.832 C 193.735 136.229 193.388 135.849 192.897 135.587 C 192.641 135.45 192.353 135.338 192.039 135.24 C 191.39 135.044 190.709 134.808 190.067 134.5 C 189.418 134.192 188.9 133.7 188.592 132.96 C 188.435 132.593 188.357 132.135 188.357 131.597 C 188.357 130.254 188.887 129.298 189.7 128.682 C 190.512 128.066 191.606 127.797 192.779 127.797 C 193.762 127.797 194.869 127.994 195.622 128.276 L 195.622 130.857 L 195.472 130.968 C 194.784 130.634 194.109 130.451 193.27 130.451 C 192.726 130.451 192.222 130.536 191.855 130.719 C 191.488 130.903 191.239 131.185 191.239 131.578 C 191.239 132.036 191.573 132.318 192.078 132.547 C 192.327 132.659 192.609 132.77 192.93 132.868 C 193.559 133.078 194.233 133.32 194.875 133.681 C 195.517 134.035 196.035 134.591 196.343 135.365 C 196.487 135.758 196.566 136.223 196.566 136.78 C 196.566 138.254 195.976 139.328 195.065 140.016 C 194.155 140.717 192.923 141.051 191.659 141.051 C 190.394 141.051 189.248 140.73 188.376 140.18 L 188.376 137.487 L 188.357 137.5 Z" style="fill: rgb(52, 52, 51); stroke-width: 0px;"/>
  </g>
</svg>