<?xml version="1.0" encoding="UTF-8"?><svg id="logo" xmlns="http://www.w3.org/2000/svg" viewBox="0 0 1837.15 509.57"><defs><style>.cls-1{fill:#000;}.cls-1,.cls-2{stroke-width:0px;}.cls-2{fill:#00c8aa;}</style></defs><path id="symbol" class="cls-2" d="M372.57,261.32c.1,0,.09.09.09.09v101.68h120.62v-216.62h-120.62v101.68s0,.08-.11.08c-.08,0-.08-.08-.08-.08-3.43-59.88-53.08-107.38-113.82-107.38s-114.01,51.04-114.01,114.01,51.04,114.01,114.01,114.01,110.39-47.5,113.82-107.38c0,0,0-.09.1-.09Z"/><path id="meemoo" class="cls-1" d="M830.55,192.95v85.16h-35.88v-73.56c0-19.32-9.8-29.95-26.08-29.95s-28.29,10.08-28.29,30.23v73.29h-36.02v-73.56c0-19.32-9.66-29.95-26.08-29.95-15.46,0-28.29,10.08-28.29,30.23v73.29h-36.02v-133.74h35.06v15.73c9.52-14.22,24.15-19.32,39.33-19.32,19.32,0,35.19,8.7,44.17,22.91,10.35-16.98,27.88-22.91,45.41-22.91,31.47,0,52.72,21.12,52.72,52.17ZM983.3,211.03c0,4.14-.28,9.11-.69,12.15h-94.82c3.86,19.32,17.39,27.74,34.37,27.74,11.59,0,24.15-4.69,33.81-12.83l21.12,23.19c-15.18,13.94-34.5,20.29-57,20.29-40.99,0-69.42-27.88-69.42-69.97s27.6-70.8,67.63-70.8,64.87,28.57,65.01,70.25ZM887.93,198.6h59.21c-3.31-17.11-13.66-26.77-29.12-26.77-16.98,0-26.91,10.21-30.09,26.77ZM1128.75,211.03c0,4.14-.28,9.11-.69,12.15h-94.82c3.86,19.32,17.39,27.74,34.37,27.74,11.59,0,24.15-4.69,33.81-12.83l21.12,23.19c-15.18,13.94-34.5,20.29-57,20.29-40.99,0-69.42-27.88-69.42-69.97s27.6-70.8,67.63-70.8,64.87,28.57,65.01,70.25ZM1033.38,198.6h59.21c-3.31-17.11-13.66-26.77-29.12-26.77-16.98,0-26.91,10.21-30.09,26.77ZM1366.54,192.95v85.16h-35.88v-73.56c0-19.32-9.8-29.95-26.08-29.95s-28.29,10.08-28.29,30.23v73.29h-36.02v-73.56c0-19.32-9.66-29.95-26.08-29.95-15.46,0-28.29,10.08-28.29,30.23v73.29h-36.02v-133.74h35.06v15.73c9.52-14.22,24.15-19.32,39.33-19.32,19.32,0,35.19,8.7,44.17,22.91,10.35-16.98,27.88-22.91,45.41-22.91,31.47,0,52.72,21.12,52.72,52.17ZM1531.3,211.16c0,40.3-30.78,70.39-72.46,70.39s-72.18-30.09-72.18-70.39,30.64-70.39,72.18-70.39,72.46,30.09,72.46,70.39ZM1423.37,211.16c0,21.67,15.18,36.85,35.47,36.85s35.61-15.18,35.61-36.85-15.32-36.85-35.61-36.85-35.47,15.18-35.47,36.85ZM1688.75,211.16c0,40.3-30.78,70.39-72.46,70.39s-72.18-30.09-72.18-70.39,30.64-70.39,72.18-70.39,72.46,30.09,72.46,70.39ZM1580.83,211.16c0,21.67,15.18,36.85,35.47,36.85s35.61-15.18,35.61-36.85-15.32-36.85-35.61-36.85-35.47,15.18-35.47,36.85Z"/><path id="flemish_institute_for_archives" class="cls-1" d="M622.08,333.57v9.93h17.97v7.47h-17.97v17.13h-8.22v-42h27.45v7.47h-19.23ZM674.18,360.48v7.62h-27.42v-42h8.22v34.38h19.2ZM706.04,360.63v7.47h-27.87v-42h27.78v7.47h-19.56v9.6h18.54v7.47h-18.54v9.99h19.65ZM755.17,368.1h-8.16v-30.9l-8.76,24.15h-8.34l-8.76-24.03v30.78h-8.19v-42h11.58l9.54,25.53,9.54-25.53h11.55v42ZM771.17,368.1h-8.22v-42h8.22v42ZM803.56,336.54c-2.64-1.92-6.09-3.45-10.23-3.45s-6.84,1.77-6.84,4.8c0,2.82,2.91,4.02,7.47,5.07l2.49.57c7.32,1.68,11.88,5.34,11.88,11.97,0,8.85-7.26,13.26-15.81,13.26-6.33,0-12.15-2.13-16.02-5.7l4.74-6.18c2.58,2.25,6.48,4.26,11.28,4.26,4.05,0,7.08-1.74,7.08-4.86,0-2.76-2.4-4.02-7.2-5.07l-2.73-.6c-7.71-1.68-11.82-5.7-11.82-12.36,0-7.74,6.42-12.81,15.27-12.81,5.52,0,10.05,1.44,14.76,4.77l-4.32,6.33ZM847.53,326.1v42h-8.19v-17.4h-16.92v17.4h-8.22v-42h8.22v17.01h16.92v-17.01h8.19ZM876.57,368.1h-8.22v-42h8.22v42ZM918.34,368.1h-7.86l-18.12-27.3v27.3h-8.16v-42h7.86l18.15,27.36v-27.36h8.13v42ZM950.71,336.54c-2.64-1.92-6.09-3.45-10.23-3.45s-6.84,1.77-6.84,4.8c0,2.82,2.91,4.02,7.47,5.07l2.49.57c7.32,1.68,11.88,5.34,11.88,11.97,0,8.85-7.26,13.26-15.81,13.26-6.33,0-12.15-2.13-16.02-5.7l4.74-6.18c2.58,2.25,6.48,4.26,11.28,4.26,4.05,0,7.08-1.74,7.08-4.86,0-2.76-2.4-4.02-7.2-5.07l-2.73-.6c-7.71-1.68-11.82-5.7-11.82-12.36,0-7.74,6.42-12.81,15.27-12.81,5.52,0,10.05,1.44,14.76,4.77l-4.32,6.33ZM989.69,333.72h-11.49v34.38h-8.22v-34.38h-11.49v-7.62h31.2v7.62ZM1001.89,368.1h-8.22v-42h8.22v42ZM1036.97,333.72h-11.49v34.38h-8.22v-34.38h-11.49v-7.62h31.2v7.62ZM1073.49,352.71c0,10.26-6.3,16.05-16.35,16.05s-16.38-5.79-16.38-16.05v-26.61h8.22v26.19c0,5.85,3.3,8.55,8.16,8.55s8.16-2.7,8.16-8.55v-26.19h8.19v26.61ZM1108.5,333.72h-11.49v34.38h-8.22v-34.38h-11.49v-7.62h31.2v7.62ZM1140.36,360.63v7.47h-27.87v-42h27.78v7.47h-19.56v9.6h18.54v7.47h-18.54v9.99h19.65ZM1168.65,333.57v9.93h17.97v7.47h-17.97v17.13h-8.22v-42h27.45v7.47h-19.23ZM1230.09,347.1c0,13.05-7.86,21.69-19.47,21.69s-19.47-8.64-19.47-21.69,7.86-21.69,19.47-21.69,19.47,8.64,19.47,21.69ZM1199.67,347.1c0,8.61,4.5,13.74,10.95,13.74s10.95-5.13,10.95-13.74-4.5-13.74-10.95-13.74-10.95,5.13-10.95,13.74ZM1246.27,351.57h-2.07v16.53h-8.22v-42h15.66c9.39,0,14.7,4.86,14.7,12.96,0,6.63-4.17,11.19-11.25,12.27l11.58,16.77h-9.66l-10.74-16.53ZM1244.2,344.58h7.35c3.99,0,6.39-1.8,6.39-5.52s-2.46-5.43-6.39-5.43h-7.35v10.95ZM1309.27,358.59h-15.45l-3.06,9.51h-8.52l14.52-42h9.72l14.52,42h-8.67l-3.06-9.51ZM1306.84,351.12l-5.31-16.44-5.28,16.44h10.59ZM1335.13,351.57h-2.07v16.53h-8.22v-42h15.66c9.39,0,14.7,4.86,14.7,12.96,0,6.63-4.17,11.19-11.25,12.27l11.58,16.77h-9.66l-10.74-16.53ZM1333.06,344.58h7.35c3.99,0,6.39-1.8,6.39-5.52s-2.46-5.43-6.39-5.43h-7.35v10.95ZM1394.3,334.89l-7.08,3.87c-1.95-3.48-5.07-5.4-9-5.4-6.3,0-10.83,5.13-10.83,13.74.03,8.91,4.77,13.74,10.86,13.74,3.87,0,7.02-1.89,9.06-5.37l6.78,4.29c-3.15,5.64-8.76,9.03-15.84,9.03-11.52,0-19.38-8.55-19.38-21.69s7.86-21.69,19.38-21.69c7.11,0,13.11,3.51,16.05,9.48ZM1432.4,326.1v42h-8.19v-17.4h-16.92v17.4h-8.22v-42h8.22v17.01h16.92v-17.01h8.19ZM1448.36,368.1h-8.22v-42h8.22v42ZM1490.29,326.1l-14.19,42h-9.84l-14.19-42h8.7l10.47,33.06,10.53-33.06h8.52ZM1522,360.63v7.47h-27.87v-42h27.78v7.47h-19.56v9.6h18.54v7.47h-18.54v9.99h19.65ZM1553.36,336.54c-2.64-1.92-6.09-3.45-10.23-3.45s-6.84,1.77-6.84,4.8c0,2.82,2.91,4.02,7.47,5.07l2.49.57c7.32,1.68,11.88,5.34,11.88,11.97,0,8.85-7.26,13.26-15.81,13.26-6.33,0-12.15-2.13-16.02-5.7l4.74-6.18c2.58,2.25,6.48,4.26,11.28,4.26,4.05,0,7.08-1.74,7.08-4.86,0-2.76-2.4-4.02-7.2-5.07l-2.73-.6c-7.71-1.68-11.82-5.7-11.82-12.36,0-7.74,6.42-12.81,15.27-12.81,5.52,0,10.05,1.44,14.76,4.77l-4.32,6.33Z"/></svg>