<?xml version="1.0" encoding="UTF-8"?>
<svg width="283.5px" height="110px" enable-background="new 0 0 283.5 283.5" version="1.1" viewBox="0 0 218.36 84.65"
     xmlns="http://www.w3.org/2000/svg">
    <style type="text/css">.st0{fill:#FFED00;}
        .st1{fill:#F6F6F3;}
        .st2{fill:#373636;}
    </style>
    <g transform="translate(-32.5 -99.2)">
        <polygon class="st0" points="79.8 99.2 108.7 184.2 32.5 184.2 32.5 99.2"/>
        <polygon class="st1" points="251 184.2 108.7 184.2 79.8 99.2 251 99.2"/>
        <path class="st2" d="m122 124.7-5.6 16.3h-3.4l-5.6-16.3h3l4.3 12.4 4.3-12.4h3z"/>
        <path class="st2" d="m126.4 123.2h0.4v17.6h-2.8v-17.4l2.4-0.2z"/>
        <path class="st2"
              d="m139.5 141c-0.9 0-1.9-0.3-2.8-1.3-0.5 0.4-0.9 0.7-1.5 0.9-0.5 0.2-1.1 0.4-1.9 0.4-0.9 0-1.9-0.2-2.7-0.8s-1.4-1.6-1.4-3.3c0-1.1 0.3-2 0.9-2.6 0.7-0.6 1.8-0.9 3.5-0.9 0.7 0 1.5 0 2.6 0.1v-0.6c0-0.9-0.3-1.5-0.7-1.8-0.5-0.4-1.1-0.5-1.7-0.5-1.1 0-2.4 0.4-3.4 0.9l-0.7-2.5c1.3-0.6 3-1.1 4.6-1.1 1.3 0 2.4 0.3 3.3 0.9 0.9 0.7 1.4 1.7 1.4 3.2v4.7c0 0.6 0.2 1 0.5 1.3s0.8 0.5 1.3 0.6l-1.3 2.4zm-3.4-5.3c-1.3 0-2.4 0-3.1 0.1s-1.1 0.5-1.1 1.3c0 1 0.7 1.6 1.8 1.6 0.4 0 0.9-0.1 1.5-0.4 0.5-0.3 0.9-0.9 0.9-1.9v-0.7z"/>
        <path class="st2"
              d="m152 141c-0.9 0-1.9-0.3-2.8-1.3-0.5 0.4-0.9 0.7-1.5 0.9-0.5 0.2-1.1 0.4-1.9 0.4-0.9 0-1.9-0.2-2.7-0.8s-1.4-1.6-1.4-3.3c0-1.1 0.3-2 0.9-2.6 0.7-0.6 1.8-0.9 3.5-0.9 0.7 0 1.5 0 2.6 0.1v-0.6c0-0.9-0.3-1.5-0.7-1.8-0.5-0.4-1.1-0.5-1.7-0.5-1.1 0-2.4 0.4-3.4 0.9l-0.7-2.5c1.3-0.6 3-1.1 4.6-1.1 1.3 0 2.4 0.3 3.3 0.9 0.9 0.7 1.4 1.7 1.4 3.2v4.7c0 0.6 0.2 1 0.5 1.3s0.8 0.5 1.3 0.6l-1.3 2.4zm-3.4-5.3c-1.3 0-2.4 0-3.1 0.1-0.7 0.2-1.1 0.5-1.1 1.3 0 1 0.7 1.6 1.8 1.6 0.4 0 0.9-0.1 1.5-0.4 0.5-0.3 0.9-0.9 0.9-1.9v-0.7z"/>
        <path class="st2"
              d="m155 128.1h2.4l0.3 1c1.2-0.8 2.6-1.2 4-1.2 1.2 0 2.4 0.3 3.2 1.1 0.8 0.7 1.4 1.8 1.4 3.4v8.4h-2.8v-7.5c0-0.9-0.3-1.6-0.9-2-0.5-0.4-1.2-0.6-2-0.6-1 0-2 0.3-2.8 0.8v9.4h-2.8v-12.8z"/>
        <path class="st2"
              d="m180 140.8h-2.2l-0.5-0.9c-1 0.7-2 1.2-3.4 1.2-1.8 0-3.2-0.7-4.1-1.8s-1.3-2.6-1.3-4.2c0-2.4 0.7-4.2 1.9-5.3 1.2-1.2 2.9-1.7 4.8-1.7 0.6 0 1.2 0 1.9 0.1v-4.6l2.4-0.2h0.4v17.4zm-2.9-10c-0.7-0.2-1.4-0.3-2-0.3-1.1 0-2 0.3-2.6 1s-1 1.6-1 2.9c0 1 0.3 1.9 0.8 2.6s1.3 1.2 2.3 1.2c0.9 0 1.8-0.3 2.6-0.8v-6.6z"/>
        <path class="st2"
              d="m192.4 137.5v2.8c-1.1 0.5-2.5 0.8-3.6 0.8-1.8 0-3.4-0.5-4.6-1.6s-1.9-2.7-1.9-4.9c0-2.1 0.7-3.8 1.8-4.9s2.5-1.7 3.9-1.7c0.4 0 1.1 0 1.9 0.3 0.7 0.3 1.6 0.7 2.2 1.6 0.6 0.8 1 2.1 1 3.8v1.9h-7.7c0.2 1 0.8 1.7 1.4 2.2 0.7 0.4 1.5 0.6 2.3 0.6 1.1 0 2.2-0.3 3.2-0.8l0.1-0.1zm-2-4.2c-0.1-0.9-0.4-1.6-0.8-2s-1-0.6-1.5-0.6c-0.6 0-1.2 0.2-1.7 0.6s-0.9 1.1-1.1 2h5.1z"/>
        <path class="st2"
              d="m202.8 131.3c-0.7-0.4-1.4-0.6-2.1-0.6-0.9 0-1.8 0.3-2.5 0.9v9.2h-2.8v-12.6h2.4l0.3 1c0.9-0.7 1.9-1.3 3.2-1.3 0.3 0 0.8 0 1.3 0.1s0.9 0.2 1.2 0.4l-1 2.9z"/>
        <path class="st2"
              d="m214.5 137.5v2.8c-1.1 0.5-2.5 0.8-3.6 0.8-1.8 0-3.4-0.5-4.6-1.6s-1.9-2.7-1.9-4.9c0-2.1 0.7-3.8 1.8-4.9s2.5-1.7 3.9-1.7c0.4 0 1.1 0 1.9 0.3 0.7 0.3 1.6 0.7 2.2 1.6 0.6 0.8 1 2.1 1 3.8v1.9h-7.7c0.2 1 0.8 1.7 1.4 2.2 0.7 0.4 1.5 0.6 2.3 0.6 1.1 0 2.2-0.3 3.2-0.8l0.1-0.1zm-1.9-4.2c-0.1-0.9-0.4-1.6-0.8-2s-1-0.6-1.5-0.6c-0.6 0-1.2 0.2-1.7 0.6s-0.9 1.1-1.1 2h5.1z"/>
        <path class="st2"
              d="m217.4 128.1h2.4l0.3 1c1.2-0.8 2.6-1.2 4-1.2 1.2 0 2.4 0.3 3.2 1.1 0.8 0.7 1.4 1.8 1.4 3.4v8.4h-2.8v-7.5c0-0.9-0.3-1.6-0.9-2-0.5-0.4-1.2-0.6-2-0.6-1 0-2 0.3-2.8 0.8v9.4h-2.8v-12.8z"/>
        <path class="st2"
              d="m79.9 142.5c-2.1-1.6-3.1 0-4.4-0.1-1.1-0.1-2.1-1.9-3-1.4-1.6 0.8 0.7 3.7 1.6 4.3 0.9 0.5 2 1 2.3 1.1 1.3 0.6 1.8 1.5 2 3 0 0.3 0 1.1-0.1 1.4-0.6 2.5-5 4.8-7.6 3.1-1.2-0.8-2.3-1.9-2.7-3.8-0.7-3.3-3.1-5.8-3.9-9-0.5-2-0.8-4.1-1.3-6-0.5-2.1-1.1-4.1-1.5-6-0.4-1.7-1.2-4.3-1.8-5.9-2.4-6.3-3.5-5.9-3.5-5.9s0.9 1.8 4.1 17.3c0.1 0.6 1.3 7.5 2.2 9.7 0.3 0.8 0.8 2.5 1.2 3.3 1 2.2 3.7 5.6 3.9 8.6 0.1 1.8 0.3 3.2 0.3 4.5 0 0.4 0.2 2 0.5 2.7 0.7 1.9 6 7.8 11.6 7.8v-4.5c-5.6 0-10.9-3.1-11-3.5-0.1-0.1 0.3-2.3 0.7-3.3 0.7-1.8 2.1-3.5 4.6-3.7 2.7-0.2 4.4 0.6 5.8 0.6v-14.3z"/>
        <path class="st2"
              d="m55.4 126c-0.2 3.4-5.5 8-7.1 11-0.8 1.5-1.8 4-2 5.4-0.7 4.1 0.2 6.6 1.2 9 1.7 4.2-0.2 5.7 1.1 4.9 1.7-1.4 1.4-4.6 1.3-6.6-0.1-1.6-0.2-3.5 0-5.4 0.5-3.6 2.7-7.5 4.5-10.2 2.3-3.3 1.5-6.6 1-8.1z"/>
        <path class="st2"
              d="m56.5 135.6s0.6 2.7-1.8 9.6c-6.2 18.1 5.7 19.8 9 24.1 0 0 1.3-1.8-4.1-7.7-2-2.2-3.7-6.9-2.2-13.7 2.3-9.9-0.9-12.3-0.9-12.3z"/>
        <path class="st2"
              d="m44.8 123.7c-0.3-1.1-0.4-2-0.3-2.9 0.3-4.3 4.2-6 5.1-6.6 0 0 1.7-1.2 2-2.4 0 0 1.8 4.5-2.3 7-2.2 1.4-3.6 2.9-4.5 4.9z"/>
        <path class="st2" d="m54.5 119.6c0.2 0.4 1.8 2.8-4.7 8.2s-4.5 9.3-4.5 9.3-7-3.9 1.1-10.6c8-6.7 6.4-8.1 6.4-8.1s1.1 0 1.7 1.2z"/>
        <path class="st2"
              d="m63 121.7c1.1 0.1 1.9 3.7 4.5 4.5 1.9 0.6 4 0.3 4.4 1.4-0.9 0.5-0.2 2 0.7 1.8 0.8-2.1 1.1-10.1-9.6-7.7zm3.5 1.6c0.1-0.3 0.2 0 0.5-0.2 0.3-0.3 0.6-0.8 1.1-0.9 0.4-0.1 0.8-0.1 1.2 0.1 0.2 0.1 0.1 0.6-0.1 0.8-0.4 0.3-1.4-0.2-1.4 0.6 0 1.3 1.7 0 2.6 0 0.5 3-4.6 2.2-3.9-0.4z"/>
        <path class="st2" d="m115.2 158.2h-1.5l-2.6-7.6h1.2l2.2 6.4 2.2-6.4h1.2l-2.7 7.6z"/>
        <path class="st2"
              d="m124.4 154.7h-4.7c0.1 1.6 1.1 2.6 2.5 2.6 0.7 0 1.4-0.2 2.1-0.5v1c-0.8 0.4-1.5 0.5-2.2 0.5-2.2 0-3.5-1.6-3.5-4 0-2.2 1-3.9 3.3-3.9 1.9 0 2.6 1.5 2.6 3.2v1.1zm-4.6-1h3.6c0-1.2-0.3-2.2-1.5-2.2-1.3 0-2 1-2.1 2.2z"/>
        <path class="st2"
              d="m126.9 150.6 0.3 0.9c0.6-0.7 1.2-1 1.9-1 0.2 0 0.4 0 0.6 0.1 0.2 0 0.4 0.1 0.6 0.2l-0.4 1c-0.3-0.1-0.7-0.2-1-0.2-0.7 0-1.2 0.4-1.6 1v5.7h-1.1v-7.6h0.7z"/>
        <path class="st2"
              d="m132.7 147.6 0.1 3.5c0.5-0.4 1.2-0.7 2-0.7 2.1 0 3.3 1.8 3.3 3.9 0 2.3-1.4 4-3.8 4-0.9 0-1.8-0.2-2.5-0.5v-10.1l0.9-0.1zm0.1 4.7v4.7c0.5 0.2 1 0.2 1.5 0.2 1.6 0 2.6-1.3 2.6-3.1 0-1.6-0.7-2.7-2.3-2.7-0.8 0.1-1.4 0.4-1.8 0.9z"/>
        <path class="st2"
              d="m145.1 154.7h-4.7c0.1 1.6 1.1 2.6 2.5 2.6 0.7 0 1.4-0.2 2.1-0.5v1c-0.8 0.4-1.5 0.5-2.2 0.5-2.2 0-3.5-1.6-3.5-4 0-2.2 1-3.9 3.3-3.9 1.9 0 2.6 1.5 2.6 3.2v1.1zm-4.7-1h3.6c0-1.2-0.3-2.2-1.5-2.2s-1.9 1-2.1 2.2z"/>
        <path class="st2"
              d="m152.1 154.7h-4.7c0.1 1.6 1.1 2.6 2.5 2.6 0.7 0 1.4-0.2 2.1-0.5v1c-0.8 0.4-1.5 0.5-2.2 0.5-2.2 0-3.5-1.6-3.5-4 0-2.2 1-3.9 3.3-3.9 1.9 0 2.6 1.5 2.6 3.2v1.1zm-4.7-1h3.6c0-1.2-0.3-2.2-1.5-2.2s-1.9 1-2.1 2.2z"/>
        <path class="st2" d="m154.9 147.6 0.1 10.6h-1.1v-10.5l1-0.1z"/>
        <path class="st2"
              d="m162.3 158.2-0.2-0.7c-0.6 0.5-1.3 0.8-2.1 0.8-1 0-1.8-0.5-2.4-1.2s-0.9-1.7-0.9-2.9c0-1.1 0.3-2 0.9-2.7s1.6-1.1 2.9-1.1c0.5 0 1 0.1 1.4 0.2v-2.9l1.1-0.1h0.1v10.6h-0.8zm-0.4-1.7v-4.7c-0.5-0.2-1-0.3-1.5-0.3-0.8 0-1.4 0.2-1.9 0.7s-0.7 1.2-0.7 2.2c0 0.8 0.2 1.5 0.5 2 0.4 0.5 0.9 0.9 1.8 0.9 0.8 0 1.4-0.3 1.8-0.8z"/>
        <path class="st2"
              d="m165.4 148.5c0-0.4 0.3-0.8 0.8-0.8 0.4 0 0.8 0.3 0.8 0.8 0 0.4-0.4 0.8-0.8 0.8s-0.8-0.3-0.8-0.8zm1.4 2.1v7.6h-1.1v-7.6h1.1z"/>
        <path class="st2"
              d="m170.1 150.6 0.2 0.7c0.3-0.2 0.7-0.4 1.1-0.6s0.8-0.3 1.2-0.3c0.7 0 1.4 0.2 1.9 0.6 0.5 0.5 0.8 1.2 0.8 2.2v4.9h-1.1v-4.8c0-0.7-0.2-1.2-0.5-1.5s-0.7-0.4-1.2-0.4c-0.4 0-0.7 0.1-1.1 0.2-0.3 0.1-0.7 0.3-1 0.5v6h-1.1v-7.6h0.8z"/>
        <path class="st2"
              d="m179.1 156.6h1.4c1 0 1.8 0.2 2.3 0.6s0.7 0.9 0.7 1.5c0 0.8-0.5 1.6-1.2 2.1s-1.7 0.9-2.7 0.9c-0.9 0-1.6-0.3-2.1-0.7s-0.8-1-0.8-1.7c0-0.6 0.3-1.3 0.9-1.9-0.2-0.1-0.4-0.3-0.5-0.5s-0.2-0.5-0.2-0.7c0-0.4 0.2-0.9 0.5-1.3-0.2-0.2-0.4-0.5-0.5-0.8s-0.2-0.7-0.2-1c0-0.7 0.3-1.4 0.8-1.8 0.5-0.5 1.2-0.7 2-0.7 0.6 0 1.1 0.1 1.5 0.4 0.3-0.2 0.7-0.4 1-0.6 0.3-0.1 0.7-0.2 0.9-0.2l0.3 1c-0.4 0.1-0.9 0.2-1.4 0.5 0.3 0.4 0.4 0.9 0.4 1.4 0 0.7-0.3 1.4-0.8 1.9s-1.2 0.8-2 0.8c-0.5 0-1-0.1-1.4-0.3-0.2 0.2-0.3 0.4-0.3 0.6 0.5 0.2 0.8 0.5 1.4 0.5zm0.4 1h-0.9c-0.4 0.5-0.7 1.1-0.7 1.6 0 0.4 0.1 0.8 0.4 1.1s0.8 0.4 1.4 0.4c0.8 0 1.4-0.2 1.9-0.6s0.7-0.8 0.7-1.3c0-0.6-0.3-0.9-0.9-1-0.4-0.2-1.1-0.2-1.9-0.2zm0.4-6.1c-0.6 0-1 0.2-1.3 0.5s-0.4 0.7-0.4 1.1 0.2 0.8 0.4 1.1c0.3 0.3 0.7 0.5 1.3 0.5s1-0.2 1.3-0.5 0.4-0.7 0.4-1.1-0.1-0.8-0.4-1.1-0.8-0.5-1.3-0.5z"/>
        <path class="st2" d="m196.8 158.2h-1.4l-1.7-5.8-1.7 5.8h-1.4l-2.4-7.6h1.1l2 6.4 1.9-6.4h1l1.9 6.4 2-6.4h1.1l-2.4 7.6z"/>
        <path class="st2"
              d="m205.9 154.7h-4.7c0.1 1.6 1.1 2.6 2.5 2.6 0.7 0 1.4-0.2 2.1-0.5v1c-0.8 0.4-1.5 0.5-2.2 0.5-2.2 0-3.5-1.6-3.5-4 0-2.2 1-3.9 3.3-3.9 1.9 0 2.6 1.5 2.6 3.2v1.1zm-4.7-1h3.6c0-1.2-0.3-2.2-1.5-2.2s-1.9 1-2.1 2.2z"/>
        <path class="st2"
              d="m208.4 150.6 0.3 0.9c0.6-0.7 1.2-1 1.9-1 0.2 0 0.4 0 0.6 0.1 0.2 0 0.4 0.1 0.6 0.2l-0.4 1c-0.3-0.1-0.7-0.2-1-0.2-0.7 0-1.2 0.4-1.6 1v5.7h-1.1v-7.6h0.7z"/>
        <path class="st2"
              d="m218.9 157.4-0.5 1c-0.4 0-0.8-0.3-1.3-0.6-0.4-0.3-0.9-0.8-1.3-1.3s-0.8-1-1.1-1.3c-0.1-0.2-0.3-0.4-0.3-0.5-0.1-0.1-0.1-0.2-0.2-0.3v3.9h-1.1v-10.4l1.1-0.2h0.1v6.6l3-3.6h1.5l-3.1 3.7c0 0.2 0.3 0.5 0.6 0.9 0.4 0.4 0.8 0.9 1.3 1.3 0.4 0.3 0.9 0.6 1.3 0.8z"/>
        <path class="st2"
              d="m220.2 150.6v-1.4l1.1-0.2h0.1v1.6h2.1v1.1h-2.1v3.7c0 0.7 0.2 1.2 0.4 1.5s0.6 0.4 1 0.4 0.9-0.2 1.4-0.5l0.3 1c-0.6 0.3-1.3 0.5-1.9 0.5-0.7 0-1.2-0.2-1.7-0.7-0.4-0.5-0.7-1.2-0.7-2.3v-3.7h-0.8v-1.1h0.8z"/>
    </g>
</svg>
