<?xml version="1.0" encoding="utf-8"?>
<!DOCTYPE svg PUBLIC "-//W3C//DTD SVG 1.1//EN" "http://www.w3.org/Graphics/SVG/1.1/DTD/svg11.dtd">
<svg version="1.1" id="Layer_1" xmlns="http://www.w3.org/2000/svg" xmlns:xlink="http://www.w3.org/1999/xlink" x="0px"
	 y="0px"
	 viewBox="0 0 1024 1024" enable-background="new 0 0 1024 1024" xml:space="preserve">
<g>
	<path fill="#FCFCFB" d="M72.6,492.9c-24-1.6-48-3.3-72-4.9c0-0.8,0-1.6,0-2.3c13.6-6.3,27.3-12.6,40.9-19
		c24.8,1.7,49.6,3.4,74.4,5.1c0,0,0,0.1,0,0.1l0-0.1c0.3,0,0.7,0.1,1,0.1c-0.5,0.3-1,0.6-1.5,0.9C101.2,479.5,86.9,486.2,72.6,492.9
		z"/>
	<path fill="#FCFCFB" d="M953.3,530c23.6,1.6,47.1,3.2,70.7,4.8c0,0.9,0,1.7,0,2.6c-13.4,6.3-26.9,12.6-40.3,18.9
		c-25.2-1.8-50.3-3.5-75.5-5.3C923.2,544,938.3,537,953.3,530z"/>
	<path fill="#37BBA4"
		  d="M41.5,466.6c-13.6,6.3-27.3,12.6-40.9,19c0-7.3,0-14.5,0-21.8C14.2,464.7,27.9,465.7,41.5,466.6z"/>
	<path fill="#37BBA4" d="M0.6,535.4c12.1-0.9,24.3-1.7,36.4-2.6c-6.5,4.9-13.1,9.7-19.6,14.6c-5.2,3.9-10.4,8-15.6,12
		c-0.4,0-0.8,0.1-1.2,0.1C0.6,551.5,0.6,543.4,0.6,535.4z"/>
	<path fill="#37BBA4"
		  d="M983.7,556.3c13.4-6.3,26.9-12.6,40.3-18.9c0,7.3,0,14.5,0,21.8C1010.6,558.3,997.1,557.3,983.7,556.3z"/>
	<path fill="#37BBA4" d="M1024,487.6c-11.9,0.9-23.9,1.7-35.8,2.6c0.4-0.3,0.8-0.7,1.2-1c11.4-8.6,22.9-17.1,34.3-25.6
		c0.1,0,0.2-0.1,0.3-0.1C1024,471.5,1024,479.6,1024,487.6z"/>
	<path fill="#FCFCFB" d="M338.1,511.5c-12.5-0.9-24.9-1.8-37.4-2.7c0.6-0.4,1.2-0.8,1.8-1.1c14.3-6.7,28.6-13.3,42.9-20
		c0.1,0,0.3,0,0.4,0c0.4,0,0.9,0.1,1.3,0.1c24.5,1.7,49,3.4,73.5,5.1c-9.9,4.7-19.7,9.4-29.6,14.1c-0.4,0.2-0.8,0.5-1.2,0.7
		c0.5,0,0.9,0.1,1.4,0.1c7.7-0.5,15.5-1.1,23.2-1.6c0.5,0,1,0.1,1.5,0.2c-0.4,0.3-0.7,0.7-1.1,1c-11.3,8.4-22.7,16.9-34,25.3
		c-25.2,1.8-50.4,3.5-75.6,5.3c11.2-8.4,22.4-16.7,33.6-25.1c0.5-0.4,1-0.9,1.5-1.4C339.5,511.5,338.8,511.5,338.1,511.5z"/>
	<path fill="#FCFCFB" d="M688.4,511.5c12,0.9,24.1,1.7,36.1,2.6c-14.9,7-29.9,14-44.8,21c-24.8-1.7-49.6-3.4-74.4-5.1
		c-0.3,0-0.6-0.1-0.8-0.1c0.4-0.3,0.8-0.7,1.3-0.9c9.4-4.4,18.9-8.8,28.3-13.2c0.4-0.2,0.7-0.4,1.1-0.7c-0.4-0.1-0.9-0.2-1.3-0.1
		c-7.8,0.5-15.6,1.1-23.3,1.6c-0.4,0-0.8,0-1.3-0.1c0.3-0.3,0.5-0.7,0.9-1c11.4-8.5,22.8-16.9,34.2-25.4c24.8-1.8,49.6-3.5,74.4-5.3
		c0.1,0,0.2,0,0.4,0c0.3,0,0.6,0,0.9-0.1c-10.8,8.1-21.7,16.2-32.5,24.3c-0.9,0.7-1.7,1.4-2.6,2.1
		C686.1,511.4,687.2,511.4,688.4,511.5z"/>
	<path fill="#37BBA4" d="M380.8,532.8c11.4-8.4,22.7-16.9,34-25.3c0.4-0.3,0.8-0.7,1.1-1c-0.5-0.1-1-0.2-1.5-0.2
		c-7.7,0.5-15.5,1.1-23.2,1.6c-0.4,0-0.9-0.1-1.4-0.1c0.4-0.3,0.7-0.6,1.2-0.7c9.9-4.7,19.7-9.4,29.6-14.1
		c25.7,1.8,51.4,3.6,77.1,5.4c-2.2,1.2-4.6,2.2-6.6,3.7c-11.4,8.4-22.7,16.9-34,25.4C431.7,529.2,406.2,531,380.8,532.8z"/>
	<path fill="#37BBA4" d="M644.3,490.2c-11.4,8.5-22.8,16.9-34.2,25.4c-0.3,0.3-0.6,0.7-0.9,1c0.4,0,0.8,0.1,1.3,0.1
		c7.8-0.5,15.6-1.1,23.3-1.6c0.4,0,0.9,0.1,1.3,0.1c-0.4,0.2-0.7,0.5-1.1,0.7c-9.4,4.4-18.9,8.8-28.3,13.2c-0.5,0.2-0.8,0.6-1.3,0.9
		c-25.5-1.8-51-3.6-76.5-5.3c13.4-9.7,26.8-19.4,40.2-29.1C593.6,493.8,619,492,644.3,490.2z"/>
	<path fill="#FCFCFB" d="M568.2,495.5c-13.4,9.7-26.8,19.4-40.2,29.1c-22.9,0.9-45.9,1.8-68.8,2.7c-0.3,0-0.6,0.1-0.9,0.1
		c-0.4,0-0.8,0-1.2,0c11.3-8.5,22.6-17,34-25.4c2-1.5,4.4-2.5,6.6-3.7C521.2,497.4,544.7,496.5,568.2,495.5z"/>
	<path fill="#37BBA4" d="M688.4,511.5c-1.2-0.1-2.3-0.2-3.5-0.3c0.9-0.7,1.7-1.4,2.6-2.1c10.8-8.1,21.7-16.2,32.5-24.3
		c25.5-1.8,50.9-3.6,76.4-5.4c-1.6,1.2-3.2,2.4-4.7,3.6c-10.3,7.7-20.5,15.4-30.8,23.1c-23.5,1.7-47.1,3.3-70.6,5
		C689.6,511.2,689,511.4,688.4,511.5z"/>
	<path fill="#37BBA4" d="M345.4,487.7c-14.3,6.7-28.6,13.3-42.9,20c-0.6,0.3-1.2,0.7-1.8,1.1c-25.5-1.8-51.1-3.5-76.6-5.3
		c14.9-7,29.9-14,44.8-21C294.4,484.2,319.9,485.9,345.4,487.7z"/>
	<path fill="#37BBA4" d="M912.7,495.5c-25.4,1.8-50.9,3.5-76.3,5.3c0.6-0.5,1.3-1,1.9-1.5c11.2-8.4,22.4-16.7,33.5-25
		c25.5-1.8,51-3.6,76.5-5.4c-0.1,0.1-0.3,0.3-0.4,0.4C936.2,478,924.5,486.7,912.7,495.5z"/>
	<path fill="#37BBA4" d="M72.6,492.9c14.3-6.7,28.7-13.4,43-20.1c0.5-0.2,1-0.6,1.5-0.9c25.4,1.8,50.9,3.5,76.3,5.3
		c-5.1,2.4-10.3,4.8-15.4,7.3c-9.7,4.6-19.4,9.2-29.1,13.9C123.5,496.5,98,494.7,72.6,492.9z"/>
	<path fill="#FCFCFB" d="M871.9,474.2c-11.2,8.3-22.4,16.7-33.5,25c-0.7,0.5-1.3,1-1.9,1.5c-24.8,1.8-49.5,3.5-74.3,5.3
		c-0.2,0-0.4,0-0.7,0.1c-0.2,0-0.4,0-0.6,0c10.3-7.7,20.5-15.4,30.8-23.1c1.6-1.2,3.2-2.4,4.7-3.6
		C821.6,477.8,846.7,476,871.9,474.2z"/>
	<path fill="#FCFCFB" d="M148.9,498.3c9.7-4.6,19.4-9.2,29.1-13.9c5.1-2.4,10.3-4.8,15.4-7.3c25.2,1.7,50.4,3.5,75.6,5.2
		c-14.9,7-29.9,14-44.8,21C199,501.7,174,500,148.9,498.3z"/>
	<path fill="#FCFCFB" d="M912.7,495.5c11.7-8.8,23.5-17.5,35.2-26.3c0.2-0.1,0.3-0.2,0.4-0.4c24.5-1.7,49.1-3.4,73.6-5.1
		c0.2,0,0.4,0,0.6-0.1c0.4,0,0.8,0,1.1-0.1c-11.4,8.5-22.9,17.1-34.3,25.6c-0.4,0.3-0.8,0.7-1.2,1C963,492,937.9,493.7,912.7,495.5z
		"/>
	<path fill="#37BBA4" d="M347.1,487.9c-0.4,0-0.9-0.1-1.3-0.1C346.3,487.8,346.7,487.8,347.1,487.9z"/>
	<path fill="#37BBA4" d="M1022.6,463.6c-0.2,0-0.4,0-0.6,0.1C1022.2,463.7,1022.4,463.7,1022.6,463.6z"/>
	<path fill="#37BBA4" d="M719.1,484.9c-0.1,0-0.2,0-0.4,0C718.9,484.9,719,484.9,719.1,484.9z"/>
	<polygon fill="#37BBA4" points="116,471.8 116,471.8 116,471.8 116,471.7 	"/>
	<path fill="#37BBA4" d="M953.3,530c-15,7-30.1,14-45.1,21c-25.5-1.8-51-3.5-76.5-5.3c4.5-2.1,9-4.2,13.5-6.4
		c10.4-4.9,20.7-9.8,31.1-14.7C902,526.4,927.7,528.2,953.3,530z"/>
	<path fill="#37BBA4" d="M679.8,535.1c14.9-7,29.9-14,44.8-21c25.5,1.8,51,3.5,76.5,5.3c-0.2,0.1-0.4,0.2-0.6,0.3
		c-14.7,6.9-29.5,13.8-44.2,20.7C730.8,538.7,705.3,536.9,679.8,535.1z"/>
	<path fill="#37BBA4" d="M112.6,527.5c24.6-1.8,49.3-3.5,73.9-5.3c0.8-0.1,1.6-0.1,2.5-0.2c-0.3,0.3-0.7,0.6-1,0.8
		c-11.5,8.6-23,17.2-34.6,25.8c-25.5,1.8-51,3.6-76.5,5.4C88.8,545.2,100.7,536.3,112.6,527.5z"/>
	<path fill="#FCFCFB" d="M153.4,548.7c11.5-8.6,23.1-17.2,34.6-25.8c0.3-0.3,0.7-0.5,1-0.8c25.2-1.8,50.3-3.5,75.5-5.3
		c-0.4,0.4-0.8,0.7-1.2,1.1c-11.5,8.5-22.9,17.1-34.4,25.6C203.7,545.2,178.5,546.9,153.4,548.7z"/>
	<path fill="#37BBA4" d="M228.9,543.4c11.5-8.5,22.9-17.1,34.4-25.6c0.4-0.3,0.8-0.7,1.2-1.1c23.9-1.7,47.8-3.4,71.7-5
		c0.7,0,1.3-0.2,2-0.2c0.7,0,1.4,0,2.1,0.1c-0.5,0.5-0.9,1-1.5,1.4c-11.2,8.4-22.4,16.7-33.6,25.1
		C279.8,539.9,254.3,541.7,228.9,543.4z"/>
	<path fill="#FCFCFB" d="M756.3,540.5c14.7-6.9,29.5-13.8,44.2-20.7c0.2-0.1,0.4-0.2,0.6-0.3c25.1,1.8,50.1,3.5,75.2,5.3
		c-10.4,4.9-20.7,9.8-31.1,14.7c-4.5,2.1-9,4.2-13.5,6.4c-0.3,0-0.6,0-0.9,0c-0.2,0-0.4,0-0.6-0.1
		C805.5,543.9,780.9,542.2,756.3,540.5z"/>
	<path fill="#FCFCFB" d="M112.6,527.5c-11.9,8.9-23.8,17.7-35.8,26.6c-25,1.8-50.1,3.5-75.1,5.3c5.2-4,10.4-8,15.6-12
		c6.5-4.9,13.1-9.8,19.6-14.6C62.2,531,87.4,529.2,112.6,527.5z"/>
	<path fill="#37BBA4" d="M458.3,527.4c0.3,0,0.6-0.1,0.9-0.1C458.9,527.3,458.6,527.4,458.3,527.4z"/>
	<path fill="#37BBA4" d="M830.2,545.6c0.2,0,0.4,0,0.6,0.1C830.6,545.7,830.4,545.7,830.2,545.6z"/>
	<path fill="#37BBA4" d="M761.5,506.2c0.2,0,0.4,0,0.7-0.1C761.9,506.1,761.7,506.1,761.5,506.2z"/>
</g>
</svg>
