<svg xmlns="http://www.w3.org/2000/svg" viewBox="0 0 2672.54 278.39"><defs><style>.cls-1{fill:#fff;}.cls-2{fill:#00c8aa;}</style></defs><g id="Layer_3" data-name="Layer 3"><path class="cls-1" d="M1287.22,111.56V56h-54.88V0h-139.2A139.24,139.24,0,0,0,956.69,111.56H0v55.61H956.76a139.24,139.24,0,0,0,136.38,111.22h139.2V222.78h54.88V167.17h-54.88V111.56Z"/><path class="cls-2" d="M2672.54,111.56H1718.59V0H1440.2V278.39h278.39V167.17h954ZM1607.05,195a27.8,27.8,0,0,1-27.8,27.8h0a27.8,27.8,0,0,1-27.8-27.8h0a27.8,27.8,0,0,1,27.8-27.8h0a27.8,27.8,0,0,1,27.8,27.8Zm0-111.22a27.8,27.8,0,0,1-27.8,27.8h0a27.8,27.8,0,0,1-27.8-27.8h0A27.81,27.81,0,0,1,1579.24,56h0a27.81,27.81,0,0,1,27.8,27.81Z"/></g></svg>