<?xml version="1.0" encoding="utf-8"?>
<!DOCTYPE svg PUBLIC "-//W3C//DTD SVG 1.1//EN" "http://www.w3.org/Graphics/SVG/1.1/DTD/svg11.dtd">
<svg version="1.1" id="Layer_1" xmlns="http://www.w3.org/2000/svg" x="0px" y="0px"
	 viewBox="0 0 560 315" enable-background="new 0 0 560 315" xml:space="preserve">
<g>
	<path fill="white" d="M217.6,157.3c0-48.4,0-96.8,0-145.2c0-1.3-0.7-3,1.8-3c1.6,0,2.4,0.4,2.1,2.1c0,0.3,0,0.7,0,1
		c0,96.8,0,193.5,0,290.3c0,1.8,0.2,3.5-2.5,3.1c-1-0.1-1.6-0.4-1.5-1.5c0-0.7,0-1.4,0-2C217.6,253.9,217.6,205.6,217.6,157.3z"/>
	<path fill="white" d="M56.4,157.7c0,31.4,0,62.7,0,94.1c0,2.2-0.6,2.9-2.7,2.6c-1-0.1-1.3-0.6-1.3-1.5c0-0.5,0-1,0-1.5
		c0-62.7,0-125.3,0-188c0-1-0.9-2.7,1.2-3c2-0.3,2.7,0.4,2.7,2.6C56.4,94.7,56.4,126.2,56.4,157.7z"/>
	<path fill="white" d="M229.1,157.4c0,30.8,0,61.6,0,92.3c0,2.1-0.4,3-2.6,2.7c-1.1-0.1-1.5-0.6-1.4-1.6c0-0.3,0-0.7,0-1
		c0-61.6,0-123.1,0-184.7c0-2.1,0.5-2.9,2.6-2.7c0.9,0.1,1.4,0.3,1.4,1.3c0,0.7,0,1.4,0,2C229.1,96.4,229.1,126.9,229.1,157.4z"/>
	<path fill="white" d="M214,157.4c0,29.4,0,58.9,0,88.3c0,1.5,0.2,2.9-2.1,2.7c-1.3-0.1-2.1-0.4-1.9-1.9c0-0.3,0-0.7,0-1
		c0-58.7,0-117.4,0-176.1c0-1-0.8-2.7,1.3-2.9c2.1-0.3,2.7,0.5,2.7,2.6C214,98.6,214,128,214,157.4z"/>
	<path fill="white" d="M202.6,157.2c0-28.9,0-57.9,0-86.8c0-1.7,0.1-3,2.3-2.7c1.1,0.1,1.7,0.5,1.6,1.7c0,0.5,0,1,0,1.5
		c0,57.7,0,115.4,0,173.1c0,1.1,0.8,2.7-1.1,3.2c-2.1,0.5-2.8-0.1-2.8-2.6C202.6,215.4,202.6,186.3,202.6,157.2z"/>
	<path fill="white" d="M67.5,157.5c0-27.1,0-54.1,0-81.2c0-2.2,0.6-2.9,2.7-2.6c1,0.1,1.3,0.6,1.3,1.5c0,0.5,0,1,0,1.5
		c0,53.9,0,107.8,0,161.6c0,1,0.9,2.7-1.2,3c-2,0.3-2.7-0.4-2.7-2.6C67.5,211.6,67.5,184.6,67.5,157.5z"/>
	<path fill="white" d="M112.7,157.5c0-28.1,0-56.1,0-84.2c0-1.2-0.6-2.8,1.7-2.7c1.5,0,2.1,0.4,2,2c-0.1,2.4,0,4.7,0,7.1
		c0,53.9,0,107.9,0,161.8c0,1,0.9,2.6-1.3,2.9c-2.2,0.2-2.4-0.8-2.4-2.6C112.7,213.7,112.7,185.6,112.7,157.5z"/>
	<path fill="white" d="M266.5,157.5c0,22.8,0,45.5,0,68.3c0,2-0.4,3-2.6,2.7c-1.1-0.1-1.5-0.6-1.4-1.6c0-0.4,0-0.8,0-1.3
		c0-45.4,0-90.8,0-136.3c0-1.2-0.7-2.8,1.6-2.9c2.3-0.1,2.3,1.1,2.3,2.8C266.5,112,266.5,134.7,266.5,157.5z"/>
	<path fill="white" d="M142.4,157.5c0-20,0-39.9,0-59.9c0-1.9,0.3-2.8,2.4-2.6c1.3,0.1,1.9,0.4,1.7,1.8c0,0.2,0,0.3,0,0.5
		c0,40.1,0,80.1,0,120.2c0,1.4,0,2.4-1.9,2.4c-1.7,0-2.3-0.5-2.3-2.3c0.1-11.3,0-22.7,0-34C142.4,174.9,142.4,166.2,142.4,157.5z"/>
	<path fill="white" d="M105,157.5c0-20,0-39.9,0-59.9c0-2,0.5-2.7,2.5-2.5c1.1,0.1,1.7,0.5,1.7,1.7c0,0.4,0,0.8,0,1.3
		c0,39.7,0,79.3,0,119c0,1.1,0.7,2.7-1.4,2.9c-1.9,0.2-2.8-0.2-2.8-2.5C105,197.4,105,177.4,105,157.5z"/>
	<path fill="white" d="M187.6,157.2c0-22.1,0-44.2,0-66.2c0-2.1,0.7-2.7,2.6-2.5c0.9,0.1,1.4,0.4,1.4,1.4c0,0.5,0,1,0,1.5
		c0,44.1,0,88.1,0,132.2c0,1.1,0.8,2.7-1.4,2.9c-1.9,0.2-2.5-0.5-2.5-2.5C187.7,201.7,187.6,179.5,187.6,157.2z"/>
	<path fill="white" d="M123.9,157.7c0,25,0,50.1,0,75.1c0,1.7,0,3-2.3,2.7c-1.1-0.1-1.5-0.6-1.4-1.6c0-0.5,0-1,0-1.5
		c0-50,0-100,0-150c0-1-0.9-2.7,1.1-3c2.2-0.4,2.6,0.7,2.6,2.7C123.8,107.3,123.9,132.5,123.9,157.7z"/>
	<path fill="white" d="M274,157.7c0,21.7,0,43.5,0,65.2c0,1.6,0.1,2.8-2.1,2.7c-1.4-0.1-1.9-0.5-1.9-1.9c0.1-2.2,0-4.4,0-6.6
		c0-41.6,0-83.2,0-124.9c0-1-0.9-2.7,1.3-2.9c2.1-0.2,2.7,0.5,2.6,2.7C274,113.9,274,135.8,274,157.7z"/>
	<path fill="white" d="M281.7,157.5c0,18.5,0,37.1,0,55.6c0,1.1,0.6,2.6-1.5,2.8c-2.4,0.3-2.7-0.8-2.7-2.9
		c0.1-36.4,0-72.8,0-109.1c0-0.8,0-1.5,0-2.3c-0.1-1.4-0.2-2.6,1.9-2.6c2.1,0,2.2,1,2.2,2.7C281.7,120.3,281.7,138.9,281.7,157.5z"
	/>
	<path fill="white" d="M364.2,157.6c0,19.5,0,38.9,0.1,58.4c0,2.1-0.7,2.6-2.6,2.4c-0.9-0.1-1.4-0.3-1.4-1.3c0-0.5,0-1,0-1.5
		c0-38.7,0-77.5,0-116.2c0-1-0.8-2.7,1.4-2.8c1.9-0.1,2.5,0.4,2.5,2.5C364.2,118.6,364.2,138.1,364.2,157.6z"/>
	<path fill="white" d="M285.1,157.2c0-16.7,0-33.3-0.1-50c0-2.2,0.8-2.7,2.7-2.7c1.1,0,1.5,0.4,1.5,1.5c0,0.4,0,0.8,0,1.3
		c0,33.5,0,67,0,100.5c0,1.9-0.2,3-2.6,2.7c-1.6-0.2-1.6-1-1.6-2.2c0-6.5,0-13,0-19.5C285.1,178.2,285.1,167.7,285.1,157.2z"/>
	<path fill="white" d="M164.9,157.5c0-14.7,0-29.4,0-44.2c0-1.7,0.1-2.6,2.2-2.6c2.1,0,2,1.2,2,2.6c0,29.4,0,58.9,0,88.3
		c0,1.7-0.1,2.6-2.2,2.6c-2.1,0-1.9-1.2-1.9-2.6C164.9,186.9,164.9,172.2,164.9,157.5z"/>
	<path fill="white" d="M465.2,157.2c0-14.6,0-29.3,0-43.9c0-1.4-0.2-2.6,1.9-2.6c2.1,0,2.2,1,2.2,2.7c0,29.4,0,58.8,0,88.3
		c0,1.7-0.3,2.6-2.3,2.6c-2.2,0-1.9-1.3-1.9-2.7C465.2,186.8,465.2,172,465.2,157.2z"/>
	<path fill="white" d="M352.6,157.2c0-14,0-28.1,0-42.1c0-1.4-0.1-2.6,2-2.6c2.1,0,2.2,1.1,2.2,2.7c0,28.2,0,56.5,0,84.7
		c0,1.4,0.1,2.6-2,2.6c-2.1,0-2.2-1.1-2.2-2.7C352.6,185.6,352.6,171.4,352.6,157.2z"/>
	<path fill="white" d="M536.8,157.7c0,13.4,0,26.7,0,40.1c0,1.7-0.2,2.7-2.2,2.6c-2.1,0-2-1.2-2-2.6c0-26.9,0-53.8,0-80.7
		c0-1.4-0.1-2.6,2-2.6c2.1,0,2.2,1,2.2,2.6C536.8,130.7,536.8,144.2,536.8,157.7z"/>
	<path fill="white" d="M296.7,157.6c0,13.4-0.1,26.9,0.1,40.3c0,2.2-0.9,2.6-2.7,2.4c-1-0.1-1.6-0.4-1.5-1.5c0-0.3,0-0.7,0-1
		c0-26.9,0-53.8,0-80.6c0-1.4-0.2-2.7,2-2.6c1.8,0,2.2,0.7,2.2,2.4c-0.1,7.5,0,15,0,22.6C296.7,145.6,296.7,151.6,296.7,157.6z"/>
	<path fill="white" d="M172.6,157.4c0-14.8,0-29.6,0-44.4c0-1.4-0.1-2.6,2-2.6c2.1,0,2,1.2,2,2.6c0,29.6,0,59.2,0,88.8
		c0,1.9-0.3,2.9-2.4,2.7c-1.2-0.1-1.5-0.6-1.5-1.7c0-3.1,0-6.3,0-9.4C172.6,181.4,172.6,169.4,172.6,157.4z"/>
	<path fill="white" d="M390.2,157.3c0-14.7,0.1-29.4-0.1-44.1c0-2.4,1-2.6,2.8-2.4c0.9,0.1,1.1,0.5,1.1,1.3c0,0.5,0,1,0,1.5
		c0,29.3,0,58.5,0,87.8c0,1.1,0.8,2.7-1.4,2.8c-1.9,0.1-2.6-0.4-2.6-2.5C390.3,186.9,390.2,172.1,390.2,157.3z"/>
	<path fill="white" d="M244,157.5c0,14.8,0,29.6,0,44.4c0,1.9-0.5,2.5-2.4,2.4c-1.2-0.1-1.6-0.5-1.5-1.7c0-0.3,0-0.5,0-0.8
		c0-29.5,0-59,0-88.5c0-1.1-0.5-2.4,1.5-2.5c1.8-0.1,2.5,0.3,2.4,2.3C244,127.9,244,142.7,244,157.5z"/>
	<path fill="white" d="M521.8,157.7c0,12.8,0,25.6,0,38.3c0,1.6-0.1,2.5-2.1,2.5c-2,0-2.1-0.9-2.1-2.5c0-25.7,0-51.4,0-77.2
		c0-1.6,0.1-2.5,2.1-2.5c2,0,2.1,0.9,2.1,2.5C521.8,131.8,521.8,144.8,521.8,157.7z"/>
	<path fill="white" d="M525.2,157.4c0-12.8,0-25.5,0-38.3c0-1.6,0-2.7,2.2-2.6c2,0,2,1,2,2.5c0,25.7,0,51.4,0,77.1
		c0,1.5,0,2.5-2,2.5c-2.2,0-2.2-1-2.2-2.6C525.2,183.1,525.2,170.2,525.2,157.4z"/>
	<path fill="white" d="M476.9,157.4c0,12.9,0,25.7,0,38.6c0,2.1-0.7,2.6-2.6,2.5c-1.2-0.1-1.7-0.4-1.6-1.6c0.1-1.4,0-2.9,0-4.3
		c0-24.5,0-49.1,0-73.6c0-1.7,0.2-2.7,2.2-2.5c1.6,0.1,2,0.7,2,2.1c-0.1,6.3,0,12.7,0,19C476.9,144.2,476.9,150.8,476.9,157.4z"/>
	<path fill="white" d="M480.2,157.2c0-12.8,0-25.5,0-38.3c0-1.6,0.1-2.5,2.1-2.5c2,0,2.1,1,2.1,2.5c0,25.7,0,51.4,0,77.1
		c0,1.6-0.2,2.4-2.1,2.5c-2.1,0-2-1.1-2-2.5C480.2,183.1,480.2,170.1,480.2,157.2z"/>
	<path fill="white" d="M424.2,157.5c0,14.2,0,28.4,0,42.6c0,1.3,0.2,2.5-1.8,2.4c-1.9,0-2.2-0.9-2.1-2.5c0-28.4,0-56.8,0-85.2
		c0-1.7,0.4-2.4,2.2-2.4c2.1,0,1.8,1.2,1.8,2.5C424.2,129.1,424.2,143.3,424.2,157.5z"/>
	<path fill="white" d="M7.5,157.2c0-14,0-28.1,0-42.1c0-1.4-0.2-2.6,1.9-2.6c2,0,2,1.2,2,2.6c0,28.3,0,56.5,0,84.8
		c0,1.5,0,2.6-2,2.6c-2.2,0-1.9-1.3-1.9-2.6C7.5,185.6,7.5,171.4,7.5,157.2z"/>
	<path fill="white" d="M251.5,157.5c0,14.2,0,28.4,0.1,42.6c0,2.2-0.8,2.6-2.6,2.4c-0.8-0.1-1.3-0.4-1.3-1.2c0-0.4,0-0.8,0-1.3
		c0-28.3,0-56.6,0-84.9c0-1.1-0.4-2.4,1.5-2.6c1.8-0.1,2.5,0.4,2.4,2.4C251.5,129.1,251.5,143.3,251.5,157.5z"/>
	<path fill="white" d="M236.5,157.4c0,14.1,0,28.2,0,42.3c0,1.5,0.1,2.6-1.9,2.7c-2,0.1-2-1.1-2-2.6c0-28.2,0-56.4,0-84.7
		c0-1.4-0.2-2.7,1.9-2.7c1.9,0,2,1.1,2,2.6C236.5,129.2,236.5,143.3,236.5,157.4z"/>
	<path fill="white" d="M427.7,157.5c0-14.1,0-28.2,0-42.3c0-1.8,0.4-2.7,2.4-2.5c1.2,0.1,1.7,0.5,1.6,1.7c0,0.3,0,0.5,0,0.8
		c0,28.2,0,56.5,0,84.7c0,1.3,0.2,2.5-1.8,2.5c-1.9,0-2.2-0.8-2.1-2.4C427.8,185.7,427.7,171.6,427.7,157.5z"/>
	<path fill="white" d="M149.9,157.5c0-12.2,0-24.4,0-36.5c0-1.6,0.2-2.5,2.1-2.5c1.9,0,2.1,0.9,2.1,2.5c0,24.4,0,48.7,0,73.1
		c0,1.6-0.1,2.5-2.1,2.5c-1.9,0-2.1-0.9-2.1-2.5C149.9,181.8,149.9,169.7,149.9,157.5z"/>
	<path fill="white" d="M349.2,157.7c0,12.1,0,24.2,0,36.3c0,1.5,0,2.5-2.1,2.5c-1.9,0-2.1-0.9-2.1-2.5c0-24.3,0-48.7,0-73
		c0-1.6,0.2-2.5,2.1-2.5c2,0,2.1,1,2,2.5C349.2,133.2,349.2,145.5,349.2,157.7z"/>
	<path fill="white" d="M544.3,157.5c0,12.2,0,24.4,0,36.5c0,1.5,0,2.5-2,2.5c-1.9,0-2.1-0.9-2.1-2.5c0-24.4,0-48.7,0-73.1
		c0-1.6,0.2-2.5,2.1-2.5c2,0,2,1,2,2.5C544.3,133.1,544.3,145.3,544.3,157.5z"/>
	<path fill="white" d="M97.4,157.5c0-12.2,0-24.4,0-36.5c0-1.5,0-2.6,2-2.5c1.9,0,2.1,0.9,2.1,2.5c0,24.4,0,48.7,0,73.1
		c0,1.6-0.2,2.5-2.1,2.5c-2,0-2.1-1-2.1-2.5C97.5,181.9,97.4,169.7,97.4,157.5z"/>
	<path fill="white" d="M382.7,157.5c0-13.4,0-26.9,0-40.3c0-1.3-0.3-2.6,1.9-2.7c2.3,0,2.1,1.3,2.1,2.8c0,26.8,0,53.6,0,80.4
		c0,1.3,0.4,2.7-1.8,2.8c-1.9,0-2.1-0.7-2.1-2.4c0.1-12.6,0-25.2,0-37.8C382.7,159.3,382.7,158.4,382.7,157.5z"/>
	<path fill="white" d="M416.7,157.5c0,13.5,0,26.9,0,40.4c0,1.9-0.5,2.6-2.4,2.4c-1.1-0.1-1.7-0.4-1.6-1.6c0-0.3,0-0.7,0-1
		c0-26.7,0-53.5,0-80.2c0-1-0.7-2.5,1.3-2.6c1.8-0.1,2.7,0.1,2.7,2.4C416.6,130.6,416.7,144,416.7,157.5z"/>
	<path fill="white" d="M442.7,157.5c0-13.4,0-26.9,0-40.3c0-1.6,0.2-2.5,2.1-2.4c2,0,1.8,1.1,1.8,2.4c0,26.9,0,53.8,0,80.7
		c0,1.6-0.2,2.5-2.1,2.4c-2,0-1.8-1.1-1.8-2.4C442.7,184.4,442.7,170.9,442.7,157.5z"/>
	<path fill="white" d="M405.2,157.2c0-13.4,0.1-26.7-0.1-40.1c0-2.2,0.9-2.5,2.7-2.4c0.9,0.1,1.4,0.4,1.3,1.4c0,0.4,0,0.8,0,1.3
		c0,26.7,0,53.5,0,80.2c0,1,0.7,2.5-1.3,2.6c-1.8,0.1-2.7-0.2-2.7-2.4C405.3,184.3,405.2,170.8,405.2,157.2z"/>
	<path fill="white" d="M45,157.2c0-13.4,0-26.7,0-40.1c0-1.9,0.5-2.6,2.4-2.4c1.2,0.1,1.7,0.4,1.6,1.7c0,0.3,0,0.7,0,1
		c0,26.7,0,53.5,0,80.2c0,1,0.7,2.5-1.3,2.6c-1.8,0.1-2.7-0.2-2.7-2.4C45,184.3,45,170.8,45,157.2z"/>
	<path fill="white" d="M551.8,157.5c0,12.9,0,25.7,0,38.6c0,1.3,0.2,2.4-1.8,2.5c-1.9,0-2.1-0.8-2.1-2.4c0-25.7,0-51.4,0-77.2
		c0-1.6,0.2-2.5,2.1-2.5c2,0,1.8,1.1,1.8,2.4C551.8,131.8,551.8,144.6,551.8,157.5z"/>
	<path fill="white" d="M397.7,157.2c0-12.8,0-25.5,0-38.3c0-1.6,0.1-2.5,2.1-2.5c1.9,0,1.9,1,1.9,2.4c0,25.8,0,51.6,0,77.4
		c0,1.4-0.1,2.3-1.9,2.3c-2,0-2.1-0.9-2.1-2.5C397.7,183.1,397.7,170.2,397.7,157.2z"/>
	<path fill="white" d="M454.1,157.8c0,12.8,0,25.5,0,38.3c0,1.9-0.5,2.6-2.4,2.4c-1.1-0.1-1.7-0.4-1.6-1.6c0-0.3,0-0.7,0-1
		c0-25.6,0-51.2,0-76.8c0-1.4-0.2-2.6,1.9-2.6c2,0,2,1.1,2,2.5C454.1,131.9,454.1,144.9,454.1,157.8z"/>
	<path fill="white" d="M259,157.7c0,12.8,0,25.5,0,38.3c0,1.9-0.5,2.6-2.4,2.4c-1.2-0.1-1.7-0.5-1.6-1.7c0.1-0.8,0-1.7,0-2.5
		c0-25,0-50.1,0-75.1c0-1.1-0.6-2.6,1.6-2.7c1.9-0.1,2.4,0.6,2.4,2.4C259,131.9,259,144.8,259,157.7z"/>
	<path fill="white" d="M30,157.2c0-12.8,0-25.5,0-38.3c0-1.6,0.1-2.5,2.1-2.5c1.9,0,1.9,0.9,1.9,2.3c0,25.8,0,51.6,0,77.4
		c0,1.4-0.1,2.3-1.9,2.3c-2,0-2.1-0.9-2.1-2.5C30,183.1,30,170.2,30,157.2z"/>
	<path fill="white" d="M439.1,157.7c0,12.8,0,25.5,0,38.3c0,1.3,0.2,2.5-1.8,2.5c-1.9,0-2.1-0.9-2.1-2.5c0-25.7,0-51.4,0-77.1
		c0-1.6,0.2-2.5,2.1-2.5c2,0,1.8,1.2,1.8,2.5C439.1,131.9,439.1,144.8,439.1,157.7z"/>
	<path fill="white" d="M555.4,157.2c0-12.8,0-25.5,0-38.3c0-1.3-0.2-2.5,1.8-2.5c1.9,0,2.1,0.9,2.1,2.5c0,25.7,0,51.4,0,77.1
		c0,1.6-0.2,2.5-2.1,2.5c-2,0-1.8-1.2-1.8-2.5C555.4,183.1,555.4,170.1,555.4,157.2z"/>
	<path fill="white" d="M0,157.2c0-12.8,0-25.5,0-38.3c0-1.3-0.2-2.5,1.8-2.5c2,0,2.1,1,2.1,2.5c0,25.7,0,51.4,0,77.1
		c0,1.6-0.3,2.4-2.2,2.5c-2.1,0-1.7-1.3-1.7-2.5C0,183,0,170.1,0,157.2z"/>
	<path fill="white" d="M514.1,157.7c0,12.7,0,25.4,0,38c0,1.3,0.4,2.7-1.8,2.7c-2.1,0-2.1-1.2-2.1-2.6c0-25.6,0-51.2,0-76.9
		c0-1.4,0.1-2.6,2.1-2.6c2.3,0,1.8,1.5,1.8,2.7C514.1,132,514.1,144.9,514.1,157.7z"/>
	<path fill="white" d="M326.5,157.6c0,12.6,0,25.2,0,37.8c0,1.4,0.7,3.2-1.9,3.1c-2.6-0.1-1.9-1.9-1.9-3.2c0-15.8,0-31.6,0-47.4
		c0-9.5,0-18.9,0-28.4c0-1-0.5-2.6,1.2-2.9c1.6-0.3,2.7-0.1,2.7,2.3C326.4,131.8,326.5,144.7,326.5,157.6z"/>
	<path fill="white" d="M131.4,157.5c0,14.8,0,29.6,0,44.4c0,1.8-0.3,2.7-2.3,2.5c-1-0.1-1.5-0.5-1.5-1.5c0-0.3,0-0.7,0-1
		c0-29.5,0-59,0-88.5c0-1-0.6-2.4,1.4-2.6c1.9-0.2,2.4,0.6,2.4,2.4C131.3,127.9,131.4,142.7,131.4,157.5z"/>
	<path fill="white" d="M161.6,157.5c0,10.8,0,21.6,0,32.4c0,1.6,0,2.7-2.1,2.6c-2,0-2-1-2-2.5c0-21.7,0-43.4,0-65.1
		c0-1.5,0-2.5,2-2.5c2.2,0,2.2,1,2.2,2.6C161.5,135.8,161.6,146.7,161.6,157.5z"/>
	<path fill="white" d="M89.9,157.5c0-10.8,0-21.6,0-32.5c0-1.5-0.1-2.5,2-2.5c2.1,0,2.2,0.9,2.2,2.6c0,21.6,0,43.3,0,64.9
		c0,1.5,0.1,2.5-2,2.5c-2.1,0-2.2-0.9-2.2-2.6C90,179.1,89.9,168.3,89.9,157.5z"/>
	<path fill="white" d="M26.4,157.7c0,12.1,0,24.2,0,36.3c0,1.5-0.1,2.5-2.1,2.5c-1.9,0-1.9-1-1.9-2.4c0-24.4,0-48.9,0-73.3
		c0-1.4,0.1-2.4,1.9-2.4c2,0,2.1,1,2.1,2.5C26.4,133.2,26.4,145.5,26.4,157.7z"/>
	<path fill="white" d="M41.4,157.5c0,12.2,0,24.3,0,36.5c0,1.5,0,2.5-2,2.5c-2.1,0-2-1.2-2-2.6c0-24.3,0-48.5,0-72.8
		c0-1.4-0.2-2.6,1.9-2.7c2.3,0,2.1,1.3,2.1,2.7C41.4,133.3,41.4,145.4,41.4,157.5z"/>
	<path fill="white" d="M337.7,157.2c0-14,0-27.9,0-41.9c0-1.4-0.3-2.7,1.9-2.7c2.2,0,1.9,1.3,1.9,2.7c0,28.1,0,56.2,0,84.2
		c0,1.4,0.3,2.7-1.9,2.7c-2.2,0-1.9-1.3-1.9-2.7C337.7,185.5,337.7,171.3,337.7,157.2z"/>
	<path fill="white" d="M319,157.5c0,14.1,0,28.2,0,42.4c0,1.6-0.2,2.6-2.1,2.4c-1.1-0.1-1.7-0.4-1.6-1.6c0-0.4,0-0.8,0-1.3
		c0-27.9,0-55.8,0-83.7c0-1-0.7-2.5,1.1-2.9c1.8-0.3,2.7,0.1,2.7,2.3C318.9,129.2,319,143.3,319,157.5z"/>
	<path fill="white" d="M375.3,157.4c0-12,0-24,0-36c0-1.3-0.6-2.9,1.9-2.9c2.3,0,2,1.4,2,2.8c0,24.2,0,48.4,0,72.5
		c0,1.2,0.5,2.8-1.8,2.8c-1.9,0-2.2-0.7-2.1-2.4c0.1-11.8,0-23.7,0-35.5C375.3,158.2,375.3,157.8,375.3,157.4z"/>
	<path fill="white" d="M184,157.4c0,11.5,0,23,0,34.5c0,1.4,0.2,2.6-1.9,2.6c-2.1,0-2-1.1-2-2.6c0-23,0-46,0-68.9
		c0-1.4-0.2-2.6,1.9-2.6c2.1,0,2,1.1,2,2.6C184,134.5,184,146,184,157.4z"/>
	<path fill="white" d="M461.7,157.5c0,11.5,0,23,0,34.5c0,1.6-0.2,2.5-2.1,2.5c-1.9,0-1.9-1-1.9-2.4c0-23,0-46,0-68.9
		c0-1.4-0.2-2.6,1.9-2.6c2,0,2,1,2,2.5C461.6,134.5,461.7,146,461.7,157.5z"/>
	<path fill="white" d="M491.7,157.5c0,12.8,0,25.5,0,38.3c0,1.3,0.5,2.7-1.8,2.8c-2.1,0-2-1.2-2-2.6c0-25.6,0-51.2,0-76.8
		c0-1.4-0.2-2.6,1.9-2.6c2.3,0,1.8,1.5,1.8,2.7C491.7,131.9,491.7,144.7,491.7,157.5z"/>
	<path fill="white" d="M502.9,157.2c0-12.8,0.1-25.5-0.1-38.3c0-2.2,0.8-2.6,2.6-2.4c0.9,0.1,1.1,0.5,1.1,1.3c0,0.4,0,0.8,0,1.3
		c0,25.6,0,51.2,0,76.8c0,1,0.6,2.4-1.4,2.6c-2,0.1-2.3-0.7-2.3-2.5C502.9,183.1,502.9,170.1,502.9,157.2z"/>
	<path fill="white" d="M495.4,157.2c0-12.8,0.1-25.5-0.1-38.3c0-2.2,0.8-2.6,2.6-2.4c0.9,0.1,1.2,0.5,1.1,1.3c0,0.4,0,0.8,0,1.3
		c0,25.6,0,51.2,0,76.8c0,1,0.6,2.4-1.4,2.6c-2,0.1-2.3-0.7-2.3-2.5C495.4,183.1,495.4,170.1,495.4,157.2z"/>
	<path fill="white" d="M18.9,157.8c0,10.7,0,21.5,0,32.2c0,1.5,0,2.5-2,2.5c-2.1,0-1.9-1.2-1.9-2.6c0-21.6,0-43.3,0-64.9
		c0-1.5,0-2.5,2-2.5c2.1,0,2,1.2,2,2.6C18.9,136,18.9,146.9,18.9,157.8z"/>
	<path fill="white" d="M300.3,157.5c0-12.2,0-24.4,0-36.6c0-1.3-0.2-2.5,1.8-2.5c2.1,0,2,1.2,2,2.6c0,24.3,0,48.6,0,72.8
		c0,1.4,0.3,2.7-1.9,2.6c-2.2,0-1.8-1.4-1.8-2.7C300.3,181.7,300.3,169.6,300.3,157.5z"/>
	<path fill="white" d="M367.8,157.5c0-10.1,0-20.3,0-30.4c0-1.3-0.3-2.7,1.9-2.7c2.1,0,2,1.1,2,2.5c0,20.4,0,40.8,0,61.1
		c0,1.5,0,2.6-2,2.5c-2.2,0-1.9-1.3-1.9-2.7C367.8,177.8,367.8,167.6,367.8,157.5z"/>
	<path fill="white" d="M311.5,157.8c0,10.7,0,21.5,0,32.2c0,1.2,0.3,2.5-1.7,2.5c-2.1,0-2-1.1-2-2.6c0-21.6,0-43.3,0-64.9
		c0-1.3-0.3-2.5,1.8-2.5c2.1,0,2,1.1,2,2.6C311.5,136,311.5,146.9,311.5,157.8z"/>
	<path fill="white" d="M135.1,157.5c0-9.5,0-19.1,0-28.6c0-1.3-0.2-2.5,1.8-2.5c2.1,0,2,1.2,2,2.6c0,19,0,38,0,57
		c0,1.4,0.2,2.6-1.9,2.6c-2.2,0-1.8-1.4-1.8-2.7C135.1,176.4,135.1,167,135.1,157.5z"/>
	<path fill="white" d="M199,157.5c0,7.6,0,15.2,0,22.8c0,1.5,0,2.6-2,2.5c-1.9,0-1.9-1-1.9-2.4c0-15.3,0-30.6,0-45.9
		c0-1.4,0-2.4,1.9-2.4c2,0,2.1,1,2,2.5C199,142.3,199,149.9,199,157.5z"/>
	<path fill="white" d="M78.9,157.5c0,7.5,0,15.1,0,22.6c0,1.5-0.2,2.3-2,2.3c-1.8,0-2-0.8-2-2.3c0-15.1,0-30.1,0-45.2
		c0-1.5,0.2-2.3,2-2.3c1.8,0,2,0.8,2,2.3C78.9,142.4,78.9,150,78.9,157.5z"/>
	<path fill="white" d="M330.2,157.5c0-8.2,0-16.4,0-24.6c0-1.5-0.1-2.6,2-2.6c2,0.1,1.8,1.3,1.8,2.6c0,16.4,0,32.8,0,49.2
		c0,1.5,0,2.6-2,2.6c-2,0-1.8-1.3-1.8-2.6C330.2,173.9,330.2,165.7,330.2,157.5z"/>
	<path fill="white" d="M60,157.5c0-7,0-14,0-21.1c0-1.5,0.1-2.3,2-2.3c1.8,0,2,0.9,2,2.3c0,14,0,28.1,0,42.1
		c0,1.5-0.1,2.3-1.9,2.3c-1.8,0-2-0.8-2-2.3C60,171.5,60,164.5,60,157.5z"/>
	<path fill="white" d="M82.4,157.5c0-1.9,0.1-3.9,0-5.8c-0.1-1.5,0.6-1.9,1.9-1.8c1.2,0,2.1,0.1,2.1,1.7c-0.1,4-0.1,7.9,0,11.9
		c0,1.6-0.9,1.7-2.1,1.7c-1.3,0-2-0.3-1.9-1.8C82.5,161.4,82.4,159.4,82.4,157.5z"/>
</g>
</svg>
