<svg xmlns="http://www.w3.org/2000/svg" viewBox="0 0 2672.85 259.35"><defs><style>.cls-1{fill:#fff;}.cls-2{fill:#00c8aa;}</style></defs><g id="Layer_3" data-name="Layer 3"><path class="cls-1" d="M2575.54,32.85a96.83,96.83,0,1,0,97,96.82A96.9,96.9,0,0,0,2575.54,32.85Zm26.26,143.51h-52.51L2523,130.54l26.26-45.82h52.51l26.26,45.82Z"/><path class="cls-1" d="M2298.42,32.85a96.83,96.83,0,1,0,97,96.82A96.91,96.91,0,0,0,2298.42,32.85Zm-21.49,144.48-25.61-25.56,68.59-68.46,25.6,25.56Z"/><path class="cls-1" d="M2062.27,34.58h-112l-56,96.82,56,96.83h112l56-96.83Zm-57.22,141.78a45,45,0,1,1,45-45A45,45,0,0,1,2005.05,176.36Z"/><path class="cls-2" d="M1698,65.71h113a130.52,130.52,0,0,0-46.73-47.57,130,130,0,0,0-132.59,0A130.52,130.52,0,0,0,1585,65.71H1104.4A130,130,0,0,0,871.68,79.2a129.32,129.32,0,0,0,12,123,130,130,0,0,0,219.73-6.8H1586a130,130,0,0,0,224,0H1698ZM1028,195.38H953l-37.51-64.84L953,65.7h75l37.51,64.84Z"/><path class="cls-1" d="M681.34,32.85a96.83,96.83,0,1,0,97,96.82A96.91,96.91,0,0,0,681.34,32.85Zm48.5,115.54H698.66v29.7H664v-29.7H632.85V112.25H664v-31h34.64v31h31.18Z"/><path class="cls-1" d="M404.22,32.85a96.83,96.83,0,1,0,97,96.82A96.9,96.9,0,0,0,404.22,32.85Zm26.26,143.51H378l-26.25-45.82L378,84.72h52.52l26.25,45.82Z"/><path class="cls-1" d="M168.07,34.58H56L0,131.4l56,96.83h112l56-96.83ZM110.85,176.36a45,45,0,1,1,45-45A45,45,0,0,1,110.85,176.36Z"/></g></svg>