<svg xmlns="http://www.w3.org/2000/svg" viewBox="84 21 939 875"><g transform="scale(1,-1) translate(0,-960.0)"><path fill="#000" d="M512 363q-35 0 -60 25t-25 60v0q0 6 0.5 11.5t2.5 10.5v0l-148 149q-41 -32 -77 -67.5t-66 -74.5l-2 -2l-21 -26l21 -27q46 -57 92 -100t93 -72t95 -44q47 -14 95 -14q43 1 82.5 11.5t75.5 29.5l-2 -1l-134 134q-5 -2 -10.5 -2.5t-11.5 -0.5v0v0zM887 422l21 26l-21 26 q-64 80 -130 132t-133 76t-134 19q-67 -4 -133 -37l133 -134q5 2 10.5 2.5t11.5 0.5v0q35 0 60 -25t25 -60v0q0 -6 -0.5 -11.5t-2.5 -10.5v0l148 -149q41 32 77 67.5t66 75.5l2 2v0zM201 820l-61 -61l142 -140q16 12 34 23t38 21l3 1zM823 76l61 61l-142 140 q-16 -12 -34 -23t-37 -21l-3 -2z" /></g></svg>