<svg xmlns="http://www.w3.org/2000/svg" viewBox="84 21 939 875"><g transform="scale(1,-1) translate(0,-960.0)"><path fill="#000" d="M725 363q-43 0 -80 -20.5t-60 -53.5v-1l-175 88q8 16 12 34t5 38v0v0v0q0 10 -1 19t-3 18v-1l188 92q23 -20 51.5 -31.5t60.5 -11.5h1.5h0.5v0q71 0 121 50t50 121t-50 121t-121 50q-70 0 -120 -50t-50 -121v0q0 -15 2.5 -28.5t7.5 -26.5l-1 1l-180 -90q-24 27 -57 43 t-72 16q-71 0 -121 -50t-50 -121t50 -121t121 -50h0.5h0.5v0q28 0 53 8.5t46 23.5l-1 -1l201 -101v-7v-8q0 -71 50 -121t120 -50q71 0 121 50t50 121t-50 121t-121 50v0v0z" /></g></svg>