<svg xmlns="http://www.w3.org/2000/svg" viewBox="84 21 939 875"><g transform="scale(1,-1) translate(0,-960.0)"><path fill="#000" d="M474 474q36 23 58.5 61t22.5 84q0 70 -50 120t-121 50t-121 -50t-50 -120q0 -46 22 -84t59 -61q-39 -14 -69 -40q-31 -26 -52.5 -62.5t-32.5 -81.5q-12 -45 -12 -98v-85h512v85q0 53 -12 98q-11 45 -32.5 81.5t-52.5 62.5q-30 26 -69 40v0zM730 474q36 23 58.5 61 t22.5 84q0 70 -50 120t-121 50q-15 0 -29 -2.5t-28 -7.5q27 -33 42 -74t15 -86q0 -34 -8.5 -66t-24.5 -61q28 -25 50 -58q22 -32 37.5 -70t22.5 -81q8 -44 8 -91v-85h171v85q0 53 -12 98q-11 45 -32.5 81.5t-52.5 62.5q-30 26 -69 40v0z" /></g></svg>