<svg xmlns="http://www.w3.org/2000/svg" viewBox="84 21 939 875"><g transform="scale(1,-1) translate(0,-960.0)"><path fill="#000" d="M939 560l-171 -86v102h-67q12 18 18 40t6 45v0q0 71 -50 120.5t-120 49.5q-38 0 -71.5 -15.5t-56.5 -42.5v0q-24 27 -57 42.5t-71 15.5q-71 0 -121 -49.5t-50 -120.5v0q0 -23 6.5 -45t17.5 -41v1h-67v-512h683v102l171 -86v480zM555 747q35 0 60 -25t25 -61 q0 -35 -25 -60t-60 -25q-36 0 -61 25t-25 60v0q0 36 25 61t61 25v0v0zM213 661q0 36 25 61t61 25q35 0 60 -25t25 -61q0 -35 -25 -60t-60 -25v0q-36 0 -61 25t-25 60v0v0zM853 218l-85 43v118l85 43v-204z" /></g></svg>