<svg xmlns="http://www.w3.org/2000/svg" viewBox="14 -10 967 903"><g transform="scale(1,-1) translate(0,-960.0)"><path fill="#000" d="M797 645q-50 28 -120 8t-122 -47v226h-86v-226q-52 27 -122 46.5t-120 -7.5q-19 -10 -37.5 -35.5t-18.5 -76.5q0 -61 13 -135t42 -142t76 -121q46 -52 114 -70q4 -1 8 -1.5t8 -0.5q21 0 37.5 10.5t27.5 20.5q4 2 8 5.5t7 5.5q3 -2 7 -5.5t8 -5.5q13 -11 34 -23t47 -6 q68 18 114 70q47 53 76 121t42 142t13 135q0 50 -18.5 75.5t-37.5 36.5v0zM593 150q-2 2 -6 5t-7 5q-13 11 -29.5 21.5t-38.5 10.5t-38.5 -10.5t-29.5 -21.5q-3 -2 -7 -5t-6 -5q-41 13 -73 52q-33 39 -55.5 93t-34.5 116q-12 63 -12 123q0 15 3 24t9 12q28 15 98.5 -12.5 t122.5 -60.5l23 -14l22 14q52 33 123 60.5t98 12.5q6 -3 9 -12t3 -24q0 -60 -12 -123q-12 -62 -34.5 -115.5t-55.5 -93.5q-32 -39 -72 -52v0z" /></g></svg>