<svg xmlns="http://www.w3.org/2000/svg" viewBox="14 -10 967 903"><g transform="scale(1,-1) translate(0,-960.0)"><path fill="#000" d="M878 424q-7 11 -7 24t7 24l15 23q25 38 20.5 83.5t-36.5 77.5l-19 18q-17 18 -39 27t-45 10q-1 23 -10 44.5t-26 39.5l-18 18q-32 32 -77.5 36.5t-83.5 -20.5l-23 -15q-11 -7 -24 -7t-24 7l-23 15q-38 25 -83.5 20.5t-77.5 -36.5l-18 -18q-17 -18 -26 -39.5t-10 -44.5 q-23 -1 -45 -10.5t-39 -26.5l-19 -18q-32 -32 -36.5 -77.5t20.5 -83.5l15 -23q7 -11 7 -24t-7 -24l-15 -23q-25 -38 -20.5 -83.5t36.5 -77.5l18 -18q18 -17 39.5 -26t44.5 -10q1 -23 10.5 -45t26.5 -39l18 -19q19 -18 42.5 -27.5t48.5 -9.5q18 0 36 5t34 16l23 14q11 8 24 8 t24 -8l23 -14q37 -25 82.5 -20.5t77.5 36.5l18 18q18 17 27 39t10 45q23 1 44.5 10t39.5 26l18 18q32 33 36.5 78.5t-20.5 83.5l-15 22zM346 734l18 18q11 11 26.5 12.5t28.5 -6.5l22 -15q32 -22 71 -22t71 22l22 15q13 8 28.5 6.5t25.5 -12.5l18 -18q13 -12 13 -29.5 t-13 -30.5l-63 -63q-23 14 -48.5 21.5t-53.5 7.5t-54 -7.5t-48 -21.5l-63 63q-13 13 -13 30.5t13 29.5h-1zM588 373v0v-0.5v-0.5q-30 -30 -75 -30t-75 30v0v0.5v0.5q-15 15 -23 34.5t-8 40.5t8 40.5t23 34.5v0v0.5v0.5q30 30 75 30t75 -30v0v-0.5v-0.5q15 -15 23 -34.5 t8 -40.5t-8 -40.5t-23 -34.5zM208 300q-11 11 -12.5 26.5t6.5 28.5l15 22q22 32 22 71t-22 71l-15 23q-8 12 -6.5 27.5t12.5 26.5l18 18q7 6 14.5 9t15.5 3q9 0 16.5 -3t14.5 -9l63 -63q-15 -23 -22.5 -49t-7.5 -53q0 -28 7.5 -54t22.5 -48l-63 -63q-13 -13 -30.5 -13 t-29.5 13l-18 18zM678 162l-18 -18q-11 -11 -26 -12.5t-28 6.5l-23 15q-32 21 -71 21.5t-71 -21.5l-23 -15q-12 -8 -27.5 -6.5t-26.5 12.5l-18 18q-12 13 -12 30.5t12 29.5l63 63q45 -28 102 -28t103 28l63 -63q12 -12 12 -29.5t-12 -30.5h1zM807 377l15 -22 q8 -13 6.5 -28.5t-12.5 -26.5l-18 -18q-12 -12 -29.5 -12t-30.5 12l-63 64q14 22 21.5 48t7.5 54q0 27 -7.5 53t-21.5 49l63 63q13 12 30.5 12t29.5 -12l19 -19q10 -10 12 -25.5t-7 -27.5l-15 -23q-21 -32 -21 -70.5t21 -71.5v1z" /></g></svg>