<svg xmlns="http://www.w3.org/2000/svg" viewBox="14 -10 967 903"><g transform="scale(1,-1) translate(0,-960.0)"><path fill="#000" d="M512 832q-80 0 -149 -30q-70 -30 -122.5 -82.5t-82.5 -122.5q-30 -69 -30 -149v0v-171q0 -44 17 -83t45.5 -67.5t67.5 -45.5t83 -17v0h43v427h-43h-0.5h-0.5q-36 0 -68.5 -11.5t-58.5 -31.5v0q0 62 24 116q23 55 63.5 95.5t95.5 63.5q54 24 116 24t116 -24 q55 -23 95.5 -63.5t63.5 -95.5q24 -54 24 -116v0v0q-26 20 -58.5 31.5t-68.5 11.5h-0.5h-0.5h-43v-427h43q44 0 83 17t67.5 45.5t45.5 67.5t17 83v0v171q0 80 -30 149q-30 70 -82.5 122.5t-122.5 82.5q-69 30 -149 30v0v0zM299 398v-241q-38 13 -62 46t-24 74q0 42 24 74.5 t61 46.5h1v0zM725 157v241q38 -13 62 -46t24 -75q0 -41 -24 -74t-61 -46h-1v0z" /></g></svg>