<svg xmlns="http://www.w3.org/2000/svg" viewBox="14 -10 967 903"><g transform="scale(1,-1) translate(0,-960.0)"><path fill="#000" d="M891 681q-1 3 -47.5 55.5t-160.5 52.5q-64 0 -105.5 -19.5t-65.5 -41.5q-24 22 -65.5 41.5t-105.5 19.5q-114 0 -160.5 -52.5t-47.5 -55.5l-5 -9v-625l36.5 36l36.5 36q15 15 57 44t83 29q42 0 84 -29t57 -44l30 -30l15 15l15 15q16 15 57.5 44t83.5 29q41 0 83 -29 t57 -44l73 -72v625l-5 9v0zM469 236q-26 16 -59 28.5t-69 12.5q-35 0 -68 -12.5t-60 -28.5v413q10 12 39.5 33.5t88.5 21.5q60 0 89.5 -21.5t38.5 -33.5v-413v0zM811 236q-27 16 -60 28.5t-68 12.5q-36 0 -69 -12.5t-59 -28.5v413q9 12 38.5 33.5t89.5 21.5q59 0 89 -21.5 t39 -33.5v-413v0z" /></g></svg>