<svg xmlns="http://www.w3.org/2000/svg" viewBox="14 -10 967 903"><g transform="scale(1,-1) translate(0,-960.0)"><path fill="#000" d="M512 832q-80 0 -149 -30q-70 -30 -122.5 -82.5t-82.5 -122.5q-30 -69 -30 -149t30 -149q30 -70 82.5 -122.5t122.5 -82.5q69 -30 149 -30t149 30q70 30 122.5 82.5t82.5 122.5q30 69 30 149v0q0 80 -30 149q-30 70 -82.5 122.5t-122.5 82.5q-69 30 -149 30v0zM512 149 q-62 0 -116 24q-55 23 -95.5 63.5t-63.5 95.5q-24 54 -24 116t24 116q23 55 63.5 95.5t95.5 63.5q54 24 116 24t116 -24q55 -23 95.5 -63.5t63.5 -95.5q24 -54 24 -116v0q0 -62 -24 -116q-23 -55 -63.5 -95.5t-95.5 -63.5q-54 -24 -116 -24v0v0zM555 491v170h-86v-256h256 v86h-170v0z" /></g></svg>