<svg xmlns="http://www.w3.org/2000/svg" viewBox="14 -10 967 903"><g transform="scale(1,-1) translate(0,-960.0)"><path fill="#000" d="M555 277q0 -17 -12.5 -29.5t-30.5 -12.5t-30.5 12.5t-12.5 29.5q0 18 12.5 30.5t30.5 12.5t30.5 -12.5t12.5 -30.5zM555 654q-10 4 -21 5.5t-22 1.5h-128v-85h128q18 0 30.5 -12.5t12.5 -30.5q0 -17 -12.5 -29.5t-30.5 -12.5h-43v-128h86v50q37 13 61 46t24 74 q0 12 -2 22.5t-5 20.5q-10 27 -30.5 47.5t-47.5 30.5v0zM512 875q-88 0 -166 -34t-135.5 -91.5t-91.5 -135.5t-34 -166v-427h427q88 0 166 34t135.5 91.5t91.5 135.5t34 166v427h-427v0zM512 107q-71 0 -133 27q-62 26 -108.5 72.5t-72.5 108.5q-27 62 -27 133t27 133 q26 62 72.5 108.5t108.5 72.5q62 27 133 27t133 -27q62 -26 108.5 -72.5t72.5 -108.5q27 -62 27 -133t-27 -133q-26 -62 -72.5 -108.5t-108.5 -72.5q-62 -27 -133 -27z" /></g></svg>