<svg xmlns="http://www.w3.org/2000/svg" viewBox="14 -10 967 903"><g transform="scale(1,-1) translate(0,-960.0)"><path fill="#000" d="M512 875q-88 0 -166 -34t-135.5 -91.5t-91.5 -135.5t-34 -166v-427h427q88 0 166 34t135.5 91.5t91.5 135.5t34 166v427h-427v0zM171 448q0 59 19 112.5t53 96.5l61 -61q-10 -14 -18.5 -29t-14.5 -32q-7 -21 -11 -43t-4 -44t4 -44t11 -43q14 -38 38 -69 q25 -31 56.5 -53.5t68.5 -34.5q38 -12 78 -12q41 0 78.5 12.5t69.5 34.5l61 -61q-43 -33 -96.5 -52.5t-112.5 -19.5q-71 0 -133 27t-108.5 73.5t-72.5 108.5q-27 62 -27 133v0zM598 301q-19 -11 -41 -17.5t-45 -6.5q-53 0 -97.5 31t-62.5 82q-6 14 -8.5 28.5t-2.5 29.5 t2.5 29.5t8.5 28.5q2 8 5.5 15t7.5 14l233 -233v-1zM781 239l-61 61q10 14 18.5 29t14.5 31l-81 30q-2 -8 -5.5 -15t-7.5 -14l-233 233q19 12 41 18t45 6q53 0 97.5 -31t62.5 -81l81 29q-14 38 -38 69q-25 31 -56.5 53.5t-68.5 34.5q-38 12 -78 12q-41 0 -78.5 -12.5 t-69.5 -34.5l-61 61q43 33 96.5 52.5t112.5 19.5q71 0 133 -27t108.5 -73.5t72.5 -108.5q27 -62 27 -133q0 -59 -19 -112t-53 -97v0z" /></g></svg>