<svg xmlns="http://www.w3.org/2000/svg" viewBox="14 -10 967 903"><g transform="scale(1,-1) translate(0,-960.0)"><path fill="#000" d="M512 874q-88 0 -166 -33q-77 -34 -135 -92t-92 -135q-33 -78 -33 -166t33 -166q34 -77 92 -135t135 -92q78 -33 166 -33t166 33q77 34 135 92t92 135q33 78 33 166t-33 166q-34 77 -92 135t-135 92q-78 33 -166 33zM512 107q-71 0 -133 27t-108 73t-73 108t-27 133 t27 133t73 108t108 73t133 27t133 -27t108 -73t73 -108t27 -133t-27 -133t-73 -108t-108 -73t-133 -27v0zM469 661h86v-298h-86v298v0zM555 277q0 -17 -12.5 -29.5t-30.5 -12.5t-30.5 12.5t-12.5 29.5q0 18 12.5 30.5t30.5 12.5t30.5 -12.5t12.5 -30.5z" /></g></svg>