<svg xmlns="http://www.w3.org/2000/svg" viewBox="14 -10 967 903"><g transform="scale(1,-1) translate(0,-960.0)"><path fill="#000" d="M171 789h170v-170h-170v170zM171 277h170v-170h-170v170zM341 448q0 -35 -25 -60t-60 -25t-60 25t-25 60t25 60t60 25t60 -25t25 -60v0zM597 704q0 -35 -25 -60t-60 -25t-60 25t-25 60t25 60t60 25t60 -25t25 -60zM597 192q0 -35 -25 -60t-60 -25t-60 25t-25 60t25 60 t60 25t60 -25t25 -60zM427 533h170v-170h-170v170v0zM683 789h170v-170h-170v170zM683 277h170v-170h-170v170zM853 448q0 -35 -25 -60t-60 -25t-60 25t-25 60t25 60t60 25t60 -25t25 -60z" /></g></svg>