<svg xmlns="http://www.w3.org/2000/svg" viewBox="14 -10 967 903"><g transform="scale(1,-1) translate(0,-960.0)"><path fill="#000" d="M887 422l21 26l-21 26q-64 80 -130 132t-133 76t-134 19q-67 -4 -133 -37l-156 156l-61 -61l142 -140q-41 -32 -77 -67.5t-66 -74.5l-2 -2l-21 -26l21 -27q46 -57 92 -100t93 -72t95 -44q47 -14 95 -14q43 1 82.5 11.5t75.5 29.5l-2 -1l155 -156l61 61l-142 140 q41 32 77 67.5t66 75.5l2 2v0zM226 448q26 31 54 58t60 50l1 1l86 -87q-1 -3 -1 -5.5v-5.5v-6t1 -5v0q0 -35 25 -60t60 -25v0q6 0 11.5 0.5t10.5 2.5v0l69 -69q-47 -19 -93 -18q-47 0 -94 19t-94 56q-48 38 -96 94v0zM683 339l-86 87q1 3 1 5.5v5.5v6t-1 5v0q0 35 -25 60 t-60 25v0q-6 0 -11.5 -0.5t-10.5 -2.5v0l-69 69q47 19 93 19q47 0 94 -19t94 -57q48 -37 96 -94q-26 -31 -54 -58t-60 -50l-1 -1v0z" /></g></svg>