<svg xmlns="http://www.w3.org/2000/svg" viewBox="14 -10 967 903"><g transform="scale(1,-1) translate(0,-960.0)"><path fill="#000" d="M512 875q-88 0 -166 -34q-78 -33 -136 -91t-91 -136q-34 -78 -34 -166t34 -166q33 -78 91 -136t136 -91q78 -34 166 -34t166 34q78 33 136 91t91 136q34 78 34 166v0q0 88 -34 166q-33 78 -91 136t-136 91q-78 34 -166 34v0v0zM512 107q-71 0 -133 26q-62 27 -108.5 73.5 t-73.5 108.5q-26 62 -26 133t26 133q27 62 73.5 108.5t108.5 73.5q62 26 133 26t133 -26q62 -27 108.5 -73.5t73.5 -108.5q26 -62 26 -133v0q0 -71 -26 -133q-27 -62 -73.5 -108.5t-108.5 -73.5q-62 -26 -133 -26v0zM555 533h-171v-85h85v-128h-85v-85h256v85h-85v213v0z M555 619q0 -18 -12.5 -30.5t-30.5 -12.5t-30.5 12.5t-12.5 30.5q0 17 12.5 29.5t30.5 12.5t30.5 -12.5t12.5 -29.5v0z" /></g></svg>