<svg xmlns="http://www.w3.org/2000/svg" viewBox="14 -10 967 903"><g transform="scale(1,-1) translate(0,-960.0)"><path fill="#000" d="M640 832q-53 0 -100 -20q-46 -20 -81 -55t-55 -81q-20 -47 -20 -100q0 -41 12.5 -79t34.5 -69l-291 -291l61 -60l55 55l97 -98l60 60l-97 98l25 25l98 -98l60 61l-98 97l90 90q31 -22 69 -34.5t79 -12.5q53 0 100 20q46 20 81 55t55 81q20 47 20 100t-20 100 q-20 46 -55 81t-81 55q-47 20 -100 20h1zM640 405q-71 0 -121 50t-50 121t50 121t121 50t121 -50t50 -121t-50 -121t-121 -50zM725 619q0 -18 -12.5 -30.5t-29.5 -12.5q-18 0 -30.5 12.5t-12.5 30.5q0 17 12.5 29.5t30.5 12.5q17 0 29.5 -12.5t12.5 -29.5v0z" /></g></svg>