<svg xmlns="http://www.w3.org/2000/svg" viewBox="14 -10 967 903"><g transform="scale(1,-1) translate(0,-960.0)"><path fill="#000" d="M866 862l-115 -115q-48 39 -109.5 61t-129.5 22q-79 0 -149 -30t-122 -81.5t-82 -121.5q-31 -70 -31 -149v-171q0 -32 9.5 -62t26.5 -56l-1 1l-65 -66l60 -60l66 65q25 -16 55 -25.5t62 -9.5h43v196l367 366q28 -36 44 -82t16 -96v0q-26 20 -58.5 31.5t-68.5 11.5h-0.5 h-0.5h-43v-427h43q44 0 83 17t67.5 45.5t45.5 67.5t17 83v0v171q0 68 -23 129.5t-63 110.5l1 -1l114 115zM725 157v241q38 -13 62 -46t24 -75q0 -41 -24 -74t-61 -46h-1v0zM213 277v0v0q0 42 24 74.5t61 46.5h1v-103l-73 -73q-6 12 -9.5 26t-3.5 29v0v0zM299 157l-13 5 l13 13v-18zM341 491h-0.5h-0.5q-36 0 -68.5 -11.5t-58.5 -31.5v0q0 62 24 116t64.5 94.5t94.5 64.5q54 23 116 23q50 0 96 -16t83 -44l-1 1l-306 -307v111h-43z" /></g></svg>