<svg xmlns="http://www.w3.org/2000/svg" viewBox="14 -10 967 903"><g transform="scale(1,-1) translate(0,-960.0)"><path fill="#000" d="M524 204l35 -34l111 144l153 -152l60 60l-160 160l187 240l-267 267l-239 -187l-160 160l-61 -60l153 -153l-144 -111l34 -35q22 -22 22 -54.5t-22 -55.5l-73 -73l170 -171h-153v-85h683v85h-495l55 55q23 23 55.5 23t55.5 -23v0zM637 775l160 -160l-134 -172l-199 199 l172 134zM610 375l-60 -76l-230 230l76 60l213 -214h1zM286 332q15 15 25.5 33t15.5 36l96 -96q-19 -5 -36.5 -15t-32.5 -25l-12 -13l-68 68l12 12v0z" /></g></svg>