<svg xmlns="http://www.w3.org/2000/svg" viewBox="14 -10 967 903"><g transform="scale(1,-1) translate(0,-960.0)"><path fill="#000" d="M926 94l-76 76q2 5 2.5 10.5t0.5 11.5v85h-85v-25l-79 80h40v69l45 -69h79l-58 82q19 9 32 28.5t13 41.5q0 30 -19.5 55t-61.5 25h-97v-206l-141 142q4 2 10 3t11 1q14 0 24.5 -6t18.5 -18l5 -7l53 36l-5 8q-17 24 -42.5 37.5t-55.5 13.5q-18 0 -35 -5.5t-32 -15.5 l-157 157h68v85h-128q-6 0 -11.5 -0.5t-10.5 -2.5l-76 76l-60 -60l76 -76q-1 -5 -2 -10.5t-1 -11.5v-85h85v25l93 -92q-14 8 -28.5 12t-30.5 4q-49 0 -83.5 -35t-34.5 -85q0 -49 34.5 -84.5t83.5 -35.5t83.5 35.5t34.5 84.5q0 17 -4.5 32.5t-11.5 28.5l34 -35 q-1 -6 -2 -12.5t-1 -13.5q0 -49 34.5 -84.5t83.5 -35.5q7 0 14 0.5t14 2.5l140 -139h-68v-86h128q6 0 11 1t11 2l76 -76l60 60zM729 504h23q12 0 16.5 -7.5t4.5 -13.5q0 -4 -3.5 -12t-18.5 -8h-22v40v1zM289 392q-23 0 -37 16t-14 40q0 25 14.5 40.5t36.5 15.5t36.5 -15.5 t14.5 -40.5q0 -24 -14.5 -40t-36.5 -16v0zM256 277h-85v-85q0 -35 25 -60t60 -25h128v85h-128v85zM768 619h85v85q0 35 -25 60t-60 25h-128v-85h128v-85v0z" /></g></svg>