<svg xmlns="http://www.w3.org/2000/svg" viewBox="14 -10 967 903"><g transform="scale(1,-1) translate(0,-960.0)"><path fill="#000" d="M768 617l157 141l-58 63l-142 -129q0 1 0.5 2.5t0.5 3.5t-0.5 3.5t-0.5 2.5v0q0 70 -50 120t-120 50q-38 0 -71.5 -16t-56.5 -42v0q-24 26 -57 42t-71 16q-71 0 -121 -50t-50 -120v0q0 -24 6.5 -45.5t17.5 -40.5v1h-67v-502l-71 -64l57 -63l130 117h567v101l171 -85v479 l-171 -85v100zM555 789q35 0 60 -25t25 -60t-25 -60t-60 -25q-36 0 -61 25t-25 60v0q0 35 25 60t61 25v0v0zM213 704q0 35 25 60t61 25q35 0 60 -25t25 -60t-25 -60t-60 -25v0q-36 0 -61 25t-25 60v0v0zM171 533h377l-377 -341v341zM683 192h-387l379 341h8v-341zM853 464 v-203l-85 43v118z" /></g></svg>