<svg xmlns="http://www.w3.org/2000/svg" viewBox="14 -10 967 903"><g transform="scale(1,-1) translate(0,-960.0)"><path fill="#000" d="M773 478v4.5v4.5v5.5v4.5v0v73q0 54 -20 102q-21 48 -56.5 83.5t-83.5 55.5q-48 21 -102 21t-102 -21q-48 -20 -83.5 -55.5t-55.5 -83.5q-21 -48 -21 -102v0v-73v-4.5v-5.5v-4.5v-4.5v0l-157 -243h249q0 -71 50 -121t121 -50t121 50t50 121v0h249zM512 149q-35 0 -60 25 t-25 61v0h170q0 -36 -25 -61t-60 -25v0v0zM250 320l91 137v16v6v6v6v6v0v73q0 73 52 125t125 52t125 -52t52 -125v0v-73v-6v-6v-6v-6v0l-3 -16l82 -137h-524z" /></g></svg>