<svg xmlns="http://www.w3.org/2000/svg" viewBox="14 -10 967 903"><g transform="scale(1,-1) translate(0,-960.0)"><path fill="#000" d="M256 277h-85v-85q0 -35 25 -60t60 -25h128v85h-128v85zM768 192h-128v-85h128q35 0 60 25t25 60v85h-85v-85zM768 789h-128v-85h128v-85h85v85q0 35 -25 60t-60 25v0zM256 704h128v85h-128q-35 0 -60 -25t-25 -60v-85h85v85zM289 568q-49 0 -83.5 -35t-34.5 -85t34.5 -85 t83.5 -35t83.5 35t34.5 85t-34.5 85t-83.5 35zM289 392q-23 0 -37 16t-14 40q0 25 14.5 40.5t36.5 15.5t36.5 -15.5t14.5 -40.5q0 -24 -14.5 -40t-36.5 -16v0zM591 424l-6 -8q-7 -12 -18 -18t-25 -6q-22 0 -37.5 16.5t-15.5 40.5t15.5 39.5t38.5 15.5q13 0 24 -6t18 -18 l6 -7l52 36l-5 8q-16 24 -42 37.5t-55 13.5q-49 0 -84 -35t-35 -84t35 -85t84 -36q29 0 55 13.5t42 38.5l5 7l-52 37v0zM840 484q0 30 -19.5 55t-61.5 25h-97v-232h67v69l45 -69h79l-58 83q19 8 32 27.5t13 42.5v-1zM751 464h-22v40h23q12 0 16.5 -7.5t4.5 -13.5 q0 -4 -3.5 -12t-18.5 -8v1z" /></g></svg>