<svg xmlns="http://www.w3.org/2000/svg" viewBox="14 -10 967 903"><g transform="scale(1,-1) translate(0,-960.0)"><path fill="#000" d="M673 75v0v0q-44 0 -83 17t-68 45l-304 304q-28 29 -45 68t-17 83t17 83t45 68v0l46 46q20 20 47 31.5t58 11.5h4h4v0q33 -2 61 -16.5t47 -38.5v0q15 -19 23 -43t8 -50q0 -33 -12.5 -61.5t-34.5 -49.5v0l-10 -11l183 -183l10 11q22 22 50.5 34.5t61.5 12.5q27 0 51 -8.5 t43 -23.5v0q24 -19 38.5 -47t16.5 -61v0v-4v-4q0 -30 -11.5 -57.5t-31.5 -47.5v0l-45 -45q-29 -30 -68 -47t-84 -17v0v0zM369 747q-13 0 -24.5 -5t-20.5 -14l-45 -45q-17 -18 -27 -41t-10 -50q0 -26 10 -49.5t27 -40.5l304 -304q17 -17 40.5 -26.5t49.5 -9.5q27 0 50 9.5 t41 26.5v0l47 45q8 9 13.5 20.5t5.5 24.5q0 1 -0.5 2t-0.5 2v-1q0 15 -6.5 27t-16.5 20v0q-9 6 -19 9.5t-21 3.5q-15 0 -28 -6t-22 -16v0l-71 -71l-304 304l69 71q10 9 16 22t6 28q0 11 -3.5 21.5t-9.5 18.5v0q-8 10 -20 16.5t-26 7.5h-1h-3z" /></g></svg>