<svg xmlns="http://www.w3.org/2000/svg" viewBox="14 -10 967 903"><g transform="scale(1,-1) translate(0,-960.0)"><path fill="#000" d="M597 533h256v256h-85v-116q-47 53 -113 84.5t-142 31.5h-0.5h-0.5v0q-71 0 -133 -27q-62 -26 -108.5 -72.5t-72.5 -108.5q-27 -62 -27 -133t27 -133q26 -62 72.5 -108.5t108.5 -73.5q62 -26 133 -26q43 0 84 10q40 10 76 29t66 46t54 60v1l-70 49q-35 -50 -90 -80 t-120 -30q-53 0 -100 20t-81.5 54.5t-54.5 81.5t-20 100t20 99q20 47 54.5 82t81.5 55t100 20q56 0 105.5 -23t84.5 -62v0h-105v-86z" /></g></svg>