<svg xmlns="http://www.w3.org/2000/svg" viewBox="14 -10 967 903"><g transform="scale(1,-1) translate(0,-960.0)"><path fill="#000" d="M826 159l54 66l-260 213l259 188l-51 70l-277 -201l-103 85q9 17 14.5 38t5.5 43q0 71 -50 121t-120 50q-71 0 -121 -50t-50 -121q0 -70 50 -120t121 -50v0h1v0v0v0q25 0 48 7t42 20v-1l91 -75l-61 -42q-23 23 -54 36t-66 13q-71 0 -121 -50t-50 -120q0 -71 50 -121 t121 -50q70 0 120 49.5t50 119.5v0q0 13 -2 25t-5 23v-1l85 63zM213 661q0 36 25 61t61 25q35 0 60 -25t25 -61q0 -35 -25 -60t-60 -25v0q-36 0 -61 25t-25 60v0v0zM299 192q-36 0 -61 25t-25 60q0 36 25 61t61 25q35 0 60 -25t25 -61v0q0 -35 -25 -60t-60 -25v0v0z" /></g></svg>