<svg xmlns="http://www.w3.org/2000/svg" viewBox="14 -10 967 903"><g transform="scale(1,-1) translate(0,-960.0)"><path fill="#000" d="M512 555l154 115l-52 68l-173 -130l-66 49q4 11 6.5 23t2.5 24q0 53 -38 90.5t-90 37.5q-53 0 -90.5 -37.5t-37.5 -90.5t37.5 -90.5t90.5 -37.5q17 0 32.5 4.5t29.5 12.5l51 -38l-51 -39q-14 8 -29.5 12.5t-32.5 4.5q-53 0 -90.5 -37.5t-37.5 -90.5q0 -52 37.5 -90 t90.5 -38q52 0 90 38t38 90q0 13 -2.5 24.5t-6.5 22.5l66 49l173 -130l52 68l-154 116v0zM213 704q0 18 12.5 30.5t30.5 12.5t30.5 -12.5t12.5 -30.5t-12.5 -30.5t-30.5 -12.5t-30.5 12.5t-12.5 30.5zM256 363q-18 0 -30.5 12.5t-12.5 29.5q0 18 12.5 30.5t30.5 12.5 t30.5 -12.5t12.5 -30.5q0 -17 -12.5 -29.5t-30.5 -12.5zM512 149q0 -35 25 -60t60 -25v128h-85v-43zM768 149v-85h43q35 0 60 25t25 60h-128zM811 448v-128h85v43q0 35 -25 60t-60 25zM811 277h85v-85h-85v85zM640 149h85v-85h-85v85zM512 320h85v-85h-85v85zM683 448h85 v-85h-85v85z" /></g></svg>