<svg xmlns="http://www.w3.org/2000/svg" viewBox="14 -10 967 903"><g transform="scale(1,-1) translate(0,-960.0)"><path fill="#000" d="M884 137l-218 218q28 37 43.5 82.5t15.5 95.5q0 62 -23 116q-24 55 -64.5 95.5t-94.5 63.5q-55 24 -116 24q-62 0 -116 -24q-55 -23 -95.5 -63.5t-63.5 -95.5q-24 -54 -24 -116q0 -61 24 -116q23 -54 63.5 -94.5t95.5 -64.5q54 -23 116 -23q50 0 95.5 16t82.5 43 l218 -218l60 61h1zM213 533q0 44 17 83t46 68t68 46t83 17t83 -17t67.5 -46t45.5 -68t17 -83t-17 -83t-45.5 -67.5t-67.5 -45.5t-83 -17t-83 17t-68 45.5t-46 67.5t-17 83v0zM256 576h341v-85h-341v85v0zM341 448h171v-85h-171v85v0zM341 704h171v-85h-171v85v0z" /></g></svg>