<svg xmlns="http://www.w3.org/2000/svg" viewBox="14 -10 967 903"><g transform="scale(1,-1) translate(0,-960.0)"><path fill="#000" d="M887 422l21 26l-21 26q-65 81 -131 133t-132.5 75.5t-133.5 18.5q-67 -4 -133 -38l-156 156l-60 -60l141 -141q-36 -27 -72.5 -63t-72.5 -80l-21 -27l21 -26q46 -57 92 -100q47 -43 94 -72t94 -43q47 -15 95 -15q39 0 78 10.5t78 29.5l155 -155l60 60l-141 141 q36 27 72.5 63t71.5 81h1zM343 557l87 -87q-2 -5 -2.5 -10.5t-0.5 -11.5q0 -8 1.5 -15.5t4.5 -15.5l-119 118q7 6 14.5 11.5t14.5 10.5v0zM226 448q7 8 13.5 15t12.5 14l188 -188q-53 16 -106 55.5t-108 103.5v0zM565 285l-84 84q7 -3 15 -4.5t16 -1.5q6 0 11.5 0.5 t10.5 2.5l69 -70q-9 -4 -18.5 -6.5t-19.5 -4.5v0zM681 339l-87 87q2 5 2.5 10.5t0.5 11.5q0 35 -25 60t-60 25q-6 0 -11.5 -1t-10.5 -2l-69 69q47 19 93 18q47 0 94 -19t94 -56q48 -38 96 -94q-30 -34 -59 -61.5t-58 -47.5v0z" /></g></svg>