<svg xmlns="http://www.w3.org/2000/svg" viewBox="14 -10 967 903"><g transform="scale(1,-1) translate(0,-960.0)"><path fill="#000" d="M781 614l47 47l-60 60l-47 -46q-43 33 -96 52.5t-113 19.5v0v0v0q-71 0 -133 -27t-108.5 -73.5t-73.5 -108.5q-26 -62 -26 -133q0 -70 26 -133q27 -62 73.5 -108t108.5 -73t133 -27t133 27t108.5 73t73.5 108q26 63 26 133v0v0.5v0.5q0 59 -19 112.5t-53 96.5v-1v0z M512 149q-53 0 -100 20q-46 21 -81 55.5t-55 81.5q-20 46 -20 99t20 100t55 81.5t81 54.5q47 20 100 20t100 -20q46 -20 81 -54.5t55 -81.5t20 -100v0q0 -53 -20 -99q-20 -47 -55 -81.5t-81 -55.5q-47 -20 -100 -20v0zM640 832h-256v-85h256v85zM469 576h86v-213h-86v213v0z " /></g></svg>