<svg xmlns="http://www.w3.org/2000/svg" viewBox="14 -10 967 903"><g transform="scale(1,-1) translate(0,-960.0)"><path fill="#000" d="M427 533h-256v256h85v-116q47 53 113 84.5t142 31.5h0.5h0.5v0q71 0 133 -27q62 -26 108.5 -72.5t72.5 -108.5q27 -62 27 -133t-27 -133q-26 -62 -72.5 -108.5t-108.5 -73.5q-62 -26 -133 -26q-43 0 -84 10q-40 10 -76 29t-66 46t-54 60v1l70 49q35 -50 90 -80t120 -30 q53 0 100 20t81.5 54.5t54.5 81.5t20 100t-20 99q-20 47 -54.5 82t-81.5 55t-100 20q-56 0 -105.5 -23t-84.5 -62v0h105v-86z" /></g></svg>