<svg xmlns="http://www.w3.org/2000/svg" viewBox="14 -10 967 903"><g transform="scale(1,-1) translate(0,-960.0)"><path fill="#000" d="M608 432q43 25 69.5 69t26.5 97q0 80 -56 136t-136 56t-136 -56t-56 -136q0 -53 26 -97t69 -69h1q-45 -16 -82 -43q-37 -28 -64 -65t-42 -81q-15 -45 -15 -94v-85h598v85q0 49 -15 94q-15 44 -42 81t-63 64q-37 28 -81 43l-2 1v0zM512 704q44 0 75.5 -31t31.5 -76 q0 -44 -31.5 -75t-75.5 -31t-75.5 31t-31.5 75v0q0 45 31.5 76t75.5 31v0zM299 149q0 45 16 83q17 39 46 68t68 46t83 17t83 -17t68 -46t46 -68q16 -38 16 -83v0h-426z" /></g></svg>