<svg xmlns="http://www.w3.org/2000/svg" viewBox="14 -10 967 903"><g transform="scale(1,-1) translate(0,-960.0)"><path fill="#000" d="M884 137l-218 218q27 37 43 82.5t16 96.5q0 62 -24 116q-23 54 -63.5 94.5t-94.5 64.5q-55 23 -117 23t-116 -23q-54 -24 -94.5 -64.5t-64.5 -94.5q-23 -54 -23 -116t23 -117q24 -54 64.5 -94.5t94.5 -63.5q54 -24 116 -24q51 0 96.5 16t83.5 44l-1 -1l218 -218zM213 533 q0 45 17 83q17 39 46 68t68 46q38 17 83 17q44 0 83 -17t67.5 -46t45.5 -68q17 -38 17 -83q0 -44 -17 -83t-45.5 -67.5t-67.5 -45.5t-83 -17v0q-45 0 -83 17q-39 17 -68 45.5t-46 67.5t-17 83v0v0zM469 661h-85v-85h-85v-85h85v-86h85v86h86v85h-86v85v0z" /></g></svg>