<?xml version="1.0" encoding="UTF-8"?>
<svg width="391px" height="379px" viewBox="0 0 391 379" version="1.1" xmlns="http://www.w3.org/2000/svg" xmlns:xlink="http://www.w3.org/1999/xlink">
    <title>Studio Hyperdrive logo small</title>
    <defs></defs>
    <g id="logo-small-container" stroke="none" stroke-width="1" fill="none" fill-rule="evenodd" transform="translate(-765.000000, -351.000000)">
        <g id="logo-small" transform="translate(765.000000, 350.000000)" fill="#ffffff">
            <path d="M343.1945,101.1356 C351.2605,117.8776 356.7815,137.6496 356.7815,157.4776 C356.7815,227.9866 299.6235,285.1446 229.1155,285.1446 C201.8115,285.1446 176.5125,276.5686 155.7565,261.9696 L133.6825,281.0626 C160.0725,301.4706 193.1735,313.6226 229.1155,313.6226 C315.3515,313.6226 385.2595,243.7136 385.2595,157.4776 C385.2595,130.8146 377.5705,104.7156 365.7875,82.7576 L343.1945,101.1356 Z" id="ring-bottom"></path>
            <path d="M122.8282,228.2138 C109.3252,207.9648 101.4492,183.6428 101.4492,157.4778 C101.4492,86.9698 158.6062,29.8118 229.1152,29.8118 C250.5602,29.8118 272.7672,36.1088 290.5112,45.4508 L309.4342,23.3738 C286.4112,9.9978 257.6592,1.3328 229.1152,1.3328 C142.8782,1.3328 72.9702,71.2408 72.9702,157.4778 C72.9702,192.1098 84.2522,224.1028 103.3312,249.9968 L122.8282,228.2138 Z" id="ring-top"></path>
            <g id="swoosh-container" transform="translate(0.000000, 0.384000)">
                <path d="M0.0001,378.9997 L376.3741,51.9997 C376.3741,51.9997 402.8961,26.7167 383.3961,7.5597 C364.1471,-11.3493 340.4791,14.3527 340.4791,14.3527 L0.0001,378.9997 Z" id="swoosh"></path>
            </g>
        </g>
    </g>
</svg>